SplineFontDB: 3.0
FontName: Crimson-Semibold
FullName: Crimson Semibold
FamilyName: Crimson
Weight: Semibold
Copyright: Copyright (c) 2011, Sebastian Kosch (sebastian@aldusleaf.org),\nwith Reserved Font Name "Crimson".\nThis Font Software is licensed under the SIL Open Font License, Version 1.1.\nThis license is available with a FAQ at: http://scripts.sil.org/OFL
UComments: "2011-9-20: Created." 
Version: 0.6
ItalicAngle: 0
UnderlinePosition: -100
UnderlineWidth: 50
Ascent: 717
Descent: 307
sfntRevision: 0x00009999
LayerCount: 2
Layer: 0 0 "Back"  1
Layer: 1 0 "Fore"  0
XUID: [1021 732 1356305489 5808660]
OS2Version: 0
OS2_WeightWidthSlopeOnly: 0
OS2_UseTypoMetrics: 1
CreationTime: 1316567991
ModificationTime: 1316572068
OS2TypoAscent: 0
OS2TypoAOffset: 1
OS2TypoDescent: 0
OS2TypoDOffset: 1
OS2TypoLinegap: 0
OS2WinAscent: 0
OS2WinAOffset: 1
OS2WinDescent: 0
OS2WinDOffset: 1
HheadAscent: 0
HheadAOffset: 1
HheadDescent: 0
HheadDOffset: 1
OS2Vendor: 'PfEd'
MarkAttachClasses: 1
DEI: 91125
Encoding: UnicodeBmp
UnicodeInterp: none
NameList: Adobe Glyph List
DisplaySize: -48
AntiAlias: 1
FitToEm: 1
WinInfo: 143 11 8
BeginChars: 65690 856

StartChar: exclam
Encoding: 33 33 1
Width: 253
Flags: HW
LayerCount: 2
Fore
SplineSet
59 55.5 m 0
 59 90.5 89 119 124.5 119 c 1
 160.5 119 189 89 189 54 c 0
 189 19 160.5 -11 125 -11 c 1
 89 -11 59 19 59 55.5 c 0
128.5 642 m 0
 159.5 642 181.5 613.5 181.5 579 c 0
 181.5 551 160 365.5 143 196.5 c 1
 139 186 135.5 179.5 125 177 c 1
 120 178 111.5 183 107 191 c 1
 94.5 305 70.5 528.5 70.5 579.5 c 0
 70.5 614.5 94.5 642 128.5 642 c 0
EndSplineSet
EndChar

StartChar: quotedbl
Encoding: 34 34 2
Width: 301
Flags: HW
LayerCount: 2
Fore
SplineSet
233 699.5 m 0
 246 699.5 253 696 261.5 685 c 1
 261.5 653.5 252.5 530 246 473 c 1
 242.5 466.5 232.5 456.5 224 452 c 1
 220.5 452 216.5 454.5 214.5 459 c 1
 191.5 537.5 176 592.5 176 623 c 0
 176 653.5 198 699.5 233 699.5 c 0
93 699.5 m 0
 106 699.5 113 696 121.5 685 c 1
 121.5 653.5 112.5 530 106 473 c 1
 102.5 466.5 92.5 456.5 84 452 c 1
 80.5 452 76.5 454.5 74.5 459 c 1
 51.5 537.5 36 592.5 36 623 c 0
 36 653.5 58 699.5 93 699.5 c 0
EndSplineSet
EndChar

StartChar: numbersign
Encoding: 35 35 3
Width: 474
Flags: HW
LayerCount: 2
Fore
SplineSet
407.932 354 m 1
 248.932 354 248.932 354 78.9321 354 c 1
 66.9321 354 78.4321 408 91.4321 412 c 9
 417.432 412 l 17
 431.432 412 420.932 360 407.932 354 c 1
379.932 163 m 1
 220.932 163 220.932 163 50.9322 163 c 1
 38.9322 163 51.4322 217 64.4322 221 c 9
 390.432 221 l 17
 404.432 221 392.932 169 379.932 163 c 1
373.432 528 m 1
 297.932 56.5 l 2
 296.932 52.5 285.432 43.5 270.432 43.5 c 0
 260.432 43.5 259.432 47.5 259.432 47.5 c 1
 334.932 518 l 1
 337.932 527 341.432 531 360.432 531 c 0
 369.432 531 370.432 530 373.432 528 c 1
212.432 528 m 1
 135.932 56.5 l 2
 134.932 52.5 124.432 43.5 109.432 43.5 c 0
 99.4322 43.5 98.4322 47.5 98.4322 47.5 c 1
 173.932 518 l 1
 176.932 527 180.432 531 199.432 531 c 0
 208.432 531 209.432 530 212.432 528 c 1
EndSplineSet
EndChar

StartChar: dollar
Encoding: 36 36 4
Width: 506
Flags: HW
LayerCount: 2
Fore
SplineSet
258.5 640 m 0
 316.5 640 351 626 411.5 613 c 1
 420 562 421 507 422.5 465 c 1
 420.5 461.5 415.5 460 412 460 c 0
 408.5 460 387.5 458 385.5 467 c 0
 378.5 518 333 602.5 258 602.5 c 0
 197.5 602.5 164.5 564 164.5 509 c 0
 164.5 441 238.5 396 301.5 356 c 0
 365 315.5 455.5 277.5 455.5 166.5 c 0
 455.5 61 354.5 -10 250.5 -10 c 0
 190 -10 125 5 73 16.5 c 1
 62 66 51 152.5 50 171.5 c 1
 53 177.5 70.5 184 76.5 184 c 0
 82.5 184 87.8513 181.635 89 175.5 c 0
 96.5 135 140 28 246.5 28 c 0
 294.5 28 350.5 56 350.5 132 c 0
 350.5 209.5 273 244.5 216 280 c 0
 144 325 62.5 370.5 62.5 469 c 0
 62.5 569.5 161 640 258.5 640 c 0
287.5 675.5 m 17
 295.5 675.5 324.5 675 324.5 668 c 9
 207.5 -46 l 17
 198.5 -46 170.5 -44 170.5 -37 c 9
 287.5 675.5 l 17
EndSplineSet
EndChar

StartChar: percent
Encoding: 37 37 5
Width: 674
Flags: HW
LayerCount: 2
Fore
SplineSet
184 616 m 1
 130 616 116.5 551.5 116.5 498 c 0
 116.5 434.5 147.5 359 197 359 c 1
 250.5 359 261.5 424 261.5 476.5 c 0
 261.5 539.5 235 616 184 616 c 1
190 643 m 0
 279.5 643 342 574 342 488 c 0
 342 406 280 331 190.5 331 c 0
 102.5 331 37 399.5 37 485.5 c 0
 37 572 101.5 643 190 643 c 0
477 281.5 m 1
 423 281.5 409 217 409 163.5 c 0
 409 100 440.5 24.5 490 24.5 c 1
 543.5 24.5 554 89.5 554 142 c 0
 554 205 528 281.5 477 281.5 c 1
483 308.5 m 0
 572.5 308.5 634.5 239.5 634.5 153.5 c 0
 634.5 71.5 573 -3.5 483 -3.5 c 0
 395 -3.5 329.5 65 329.5 151 c 0
 329.5 237.5 394.5 308.5 483 308.5 c 0
608 629.5 m 1
 108.5 -2.5 l 2
 104.5 -8 86 -16 71.5 -16 c 0
 57 -16 55.5 -5.5 55 -4.5 c 1
 554 628 l 1
 560.5 634.5 572.5 640.5 584 640.5 c 0
 603 640.5 603.5 636.5 608 629.5 c 1
EndSplineSet
EndChar

StartChar: ampersand
Encoding: 38 38 6
Width: 675
Flags: HW
LayerCount: 2
Fore
SplineSet
386.5 95 m 1
 340 147 243 289 225.5 313.5 c 1
 187.5 285.5 155 255 155 196 c 0
 155 116 210 56 292 56 c 0
 329 56 364 72.5 386.5 95 c 1
305 614.5 m 0
 266 614.5 237 581.5 237 534.5 c 0
 237 484 263 436.5 287.5 396 c 1
 340.5 425.5 369.5 460 369.5 521.5 c 0
 369.5 560 350 614.5 305 614.5 c 0
294 650.5 m 0
 388.5 650.5 455 607.5 455 536.5 c 0
 455 446.5 378 395.5 309.5 361.5 c 1
 344.5 307.5 413 216 453.5 167.5 c 1
 484 209.5 512.5 255.5 512.5 266.5 c 0
 512.5 288 472.5 282.5 465.5 284.5 c 1
 462 290.5 462 309 466.5 312 c 1
 540 311.5 l 2
 575 311 613.5 313.5 659 315.5 c 1
 662.5 313.5 662 288 657.5 285 c 1
 645.5 284.5 602.5 279.5 588.5 269 c 0
 579 262 525.5 183.5 481.5 134 c 1
 507.5 106.5 544.5 62.5 567.5 62.5 c 0
 592 62.5 617.5 98.5 625.5 112 c 1
 635.5 112 647 102.5 649.5 94 c 1
 645.5 83.5 593.5 -1.5 524 -1.5 c 1
 467.5 -1.5 425.5 50 411.5 66 c 1
 365 23.5 301 -3.5 234.5 -3.5 c 1
 134.5 -3.5 47 56 47 157 c 0
 47 263.5 131 313.5 200 352 c 1
 175.5 391.5 142.5 436.5 142.5 504.5 c 0
 142.5 587.5 205 650.5 294 650.5 c 0
EndSplineSet
EndChar

StartChar: quotesingle
Encoding: 39 39 7
Width: 168
Flags: HW
LayerCount: 2
Fore
SplineSet
96 705 m 0
 110 705 120.5 700 128 687.5 c 1
 125.5 641.5 118.5 541.5 109.5 481 c 1
 106 475 96 466 86.5 462 c 1
 83 462 78.5 464 76 468 c 1
 54.5 533 33.5 590.5 33.5 628 c 0
 33.5 664 59 705 96 705 c 0
EndSplineSet
EndChar

StartChar: parenleft
Encoding: 40 40 8
Width: 271
Flags: HW
LayerCount: 2
Fore
SplineSet
124 295 m 0
 124 101 199 -61.5 265.5 -120 c 1
 266.5 -121.5 257.5 -140 251.5 -143.5 c 1
 155.5 -80.5 32 63.5 32 295 c 0
 32 527 155.5 670 251.5 733 c 1
 257.5 729.5 266.5 711 265.5 709.5 c 1
 199 651 124 489.5 124 295 c 0
EndSplineSet
EndChar

StartChar: parenright
Encoding: 41 41 9
Width: 271
Flags: HW
LayerCount: 2
Fore
SplineSet
238.592 295 m 0
 238.592 63.5 115.092 -80.5 19.0918 -143.5 c 1
 13.0918 -140 4.0918 -121.5 5.0918 -120 c 1
 71.5918 -61.5 146.592 101 146.592 295 c 0
 146.592 489.5 71.5918 651 5.0918 709.5 c 1
 4.0918 711 13.0918 729.5 19.0918 733 c 1
 115.092 670 238.592 527 238.592 295 c 0
EndSplineSet
EndChar

StartChar: asterisk
Encoding: 42 42 10
Width: 441
Flags: HW
LayerCount: 2
Fore
SplineSet
294.002 615.5 m 0
 313.002 637 341.502 640 356.502 625.5 c 0
 372.502 609.5 373.002 583.5 353.002 563 c 0
 319.502 529 284.002 532.5 256.001 505.5 c 1
 256.001 505.5 249.501 497 250.001 492 c 0
 250.501 487.5 254.001 485 259.002 483 c 0
 294.002 467 321.502 478 365.502 458.5 c 0
 391.502 447.5 403.502 421 394.502 402 c 0
 384.502 382 359.502 374 334.002 386 c 0
 291.002 407 283.002 442 249.001 460 c 1
 249.001 460 239.501 465.5 235.001 463 c 0
 231.001 461 231.001 458 230.001 452.5 c 0
 226.001 414.5 244.001 392 239.001 344 c 0
 236.001 316 215.001 297 194.501 299.5 c 0
 172.501 303 156.501 323.5 160.501 351.5 c 0
 167.501 399 198.001 418 205.001 456 c 1
 205.001 456 206.001 465.5 202.501 469.5 c 0
 200.501 472.5 197.001 472.5 191.501 471.5 c 0
 154.501 463.5 138.001 439.5 90.5014 429 c 0
 63.0014 423 38.0014 437 34.5014 457.5 c 0
 31.0014 479.5 46.0014 501 74.0014 506 c 0
 121.501 514.5 147.501 491 186.501 496 c 1
 186.501 496 197.001 498 198.501 503 c 0
 200.001 507 198.501 510.5 195.501 515.5 c 0
 176.501 548.5 148.501 556.5 124.001 598.5 c 0
 110.001 623 116.001 650.5 134.001 660.5 c 0
 154.001 670.5 178.501 663 192.001 638 c 0
 214.501 595 200.001 563 217.001 528 c 1
 217.001 528 222.001 518 227.001 517 c 0
 230.501 516.5 234.001 518 238.001 522 c 0
 264.002 550 262.001 579.5 294.002 615.5 c 0
EndSplineSet
EndChar

StartChar: plus
Encoding: 43 43 11
Width: 542
Flags: HW
LayerCount: 2
Fore
SplineSet
241 474 m 1
 254.5 481.5 278 485 283.5 485 c 0
 293.5 485 298 481 298 477.5 c 1
 297.5 274.5 l 1
 337.5 274.5 461.5 274.5 501.5 274.5 c 1
 506.5 274.5 510.5 268.5 510.5 261.5 c 0
 510.5 242.861 503.5 226.5 495.5 217.5 c 1
 458 217.5 298 217.5 298 217.5 c 1
 298 217.5 298 56 298 17.5 c 1
 286 9 263 6.5 253 6.5 c 0
 246.5 6.5 241 11 241 15 c 2
 241 217.5 l 1
 36.5 217.5 l 1
 34 217.5 30.5 220.5 30.5 230.5 c 0
 30.5 234.5 34 264.5 43 274.5 c 1
 83.084 274.5 240.5 274.5 240.5 274.5 c 1
 240.5 274.5 241 464.5 241 474 c 1
EndSplineSet
EndChar

StartChar: comma
Encoding: 44 44 12
Width: 208
Flags: HW
LayerCount: 2
Fore
SplineSet
109.5 131 m 0
 122 131 135.5 125.5 144.5 119.5 c 1
 152 106 160.5 83 160.5 52 c 0
 160.5 -24 93.5 -116.5 33 -148 c 1
 24 -146.5 15 -131.5 15 -125.5 c 1
 34.5 -112 82 -73.5 82 -17 c 0
 82 16 41.5 19 41.5 71 c 0
 41.5 89.5 60.5 131 109.5 131 c 0
EndSplineSet
EndChar

StartChar: hyphen
Encoding: 45 45 13
Width: 373
Flags: HW
LayerCount: 2
Fore
SplineSet
68 264 m 1
 68 264 276 275 309 276 c 0
 313 276 316 275 316 267 c 0
 316 250 310 227 302 210 c 1
 255 207 152 203 61 199 c 0
 56 199 54 201 54 210 c 0
 54 229 61 249 68 264 c 1
EndSplineSet
EndChar

StartChar: period
Encoding: 46 46 14
Width: 217
Flags: HW
LayerCount: 2
Fore
SplineSet
42 55.5 m 0
 42 90.5 72 119 107.5 119 c 1
 143.5 119 172 89 172 54 c 0
 172 19 143.5 -11 108 -11 c 1
 72 -11 42 19 42 55.5 c 0
EndSplineSet
EndChar

StartChar: slash
Encoding: 47 47 15
Width: 417
Flags: HW
LayerCount: 2
Fore
SplineSet
370.5 761 m 0
 381.5 761 385.5 756 386.5 752.5 c 1
 91 -13 l 2
 88.5 -20 75.5 -35 46.5 -35 c 0
 31.5 -35 28.5 -28 28.5 -28 c 1
 326 742.5 l 1
 328.5 748 343.5 761 370.5 761 c 0
EndSplineSet
EndChar

StartChar: zero
Encoding: 48 48 16
Width: 543
Flags: HW
LayerCount: 2
Fore
SplineSet
274 593.5 m 0
 199.5 593.5 159.5 468 159.5 311 c 0
 159.5 154 206.5 36.5 269 36.5 c 0
 346 36.5 380 169.5 380 326.5 c 0
 380 483.5 338.5 593.5 274 593.5 c 0
271 633 m 0
 401 633 489 502 489 315 c 0
 489 141 400 -3 271 -3 c 0
 143 -3 50.5 128 50.5 315 c 0
 50.5 489 142 633 271 633 c 0
EndSplineSet
EndChar

StartChar: one
Encoding: 49 49 17
Width: 344
Flags: HW
LayerCount: 2
Fore
SplineSet
130.66 130.5 m 2
 130.66 501 l 2
 130.66 537.5 124.66 546.5 109.66 546.5 c 0
 97.6601 546.5 57.1602 534 38.6602 525 c 1
 32.1602 529 27.1602 536.5 27.1602 543 c 0
 27.1602 545 26.1602 551 29.1602 552 c 0
 127.66 595 227.66 642.5 230.66 642.5 c 2
 232.66 642.5 l 2
 238.66 642.5 242.66 630 243.66 625 c 1
 243.66 625 235.16 592.5 235.16 529.5 c 2
 235.16 130.5 l 2
 235.16 94 235.16 64.5 241.66 46.5 c 0
 245.66 34.5 293.16 30 305.66 29.5 c 1
 310.16 23.5 310.16 2 305.66 -3.5 c 1
 265.66 -0.5 222.16 2.5 181.66 2.5 c 0
 141.16 2.5 99.6601 -0.5 59.6602 -3.5 c 1
 55.1602 2 55.1602 23.5 59.6602 29.5 c 1
 72.1602 30 119.66 34.5 123.66 46.5 c 0
 130.16 64.5 130.66 94 130.66 130.5 c 2
EndSplineSet
EndChar

StartChar: two
Encoding: 50 50 18
Width: 484
Flags: HW
LayerCount: 2
Fore
SplineSet
447.5 171 m 1
 432 123 396.5 18.5 390.5 0 c 9
 390.5 0 38.5 0 35 0 c 1
 30.5 3.5 26 11.5 25.5 16 c 1
 106 105 185 191 249 288.5 c 0
 292.5 355 301.5 405.5 301.5 452.5 c 0
 301.5 520 252 570.5 193 570.5 c 0
 118 570.5 74.5 506 64.5 492 c 1
 58 492 44.5 502.5 44.5 512 c 1
 56.5 543.5 128 642 236.5 642 c 0
 332.5 642 409.5 571 409.5 474.5 c 0
 409.5 415.5 383.5 360.5 343 312 c 0
 280 236.5 197 144 140 87.5 c 1
 148 87.5 325.5 87.5 325.5 87.5 c 2
 375.5 87.5 396 126.5 414.5 170.5 c 0
 416.5 175.5 421.5 177 427.5 177 c 0
 433 177 443 174.5 447.5 171 c 1
EndSplineSet
EndChar

StartChar: three
Encoding: 51 51 19
Width: 472
Flags: HW
LayerCount: 2
Fore
SplineSet
240 642 m 0
 289.5 642 381 605 381 514 c 0
 381 439.5 310.5 391 280.5 375.5 c 1
 319 374.5 425 322 425 219 c 0
 425 80 290.5 -5.5 164 -5.5 c 0
 118 -5.5 71.5 8.5 45.5 24.5 c 1
 39 31 30 52 30 65 c 0
 30 91.5 48.5 115.5 76.5 115.5 c 0
 104 115.5 120.5 87.5 136.5 70 c 0
 155 50 182.5 35.5 209 35.5 c 0
 266.5 35.5 315.5 81.5 315.5 184 c 0
 315.5 262 263 326.5 196.5 326.5 c 0
 183 326.5 158 320.5 139 315.5 c 1
 135 320.5 131.5 329.5 131.5 337.5 c 0
 131.5 341.5 131.5 344 133 347 c 1
 201.5 361 285 398.5 285 477 c 0
 285 534 247.5 578.5 189 578.5 c 0
 130.5 578.5 86 527 78 519.5 c 1
 71.5 520.5 66 535.5 66 544.5 c 1
 100 592 161 642 240 642 c 0
EndSplineSet
EndChar

StartChar: four
Encoding: 52 52 20
Width: 494
Flags: HW
LayerCount: 2
Fore
SplineSet
366.5 644 m 0
 374.5 644 387.5 631 387.5 621 c 2
 387.5 236.5 l 25
 440 236.5 l 2
 446.5 236.5 454 217.5 454 192.5 c 0
 454 180.5 448.5 175.5 447.5 174 c 1
 434.5 174 387.5 174 387.5 174 c 25
 387.5 1.5 l 1
 387.5 1.5 373 -5.5 332.5 -5.5 c 0
 303.5 -5.5 285 -3 285 5 c 2
 285 174 l 25
 17 174 l 1
 9.5 178 7 186.5 7 196 c 1
 67 270.5 288.5 558.5 341.5 624.5 c 1
 348 632.5 358.5 644 366.5 644 c 0
285 495 m 17
 267.5 472.5 93.5 246.5 84 236.5 c 1
 80.5 236.5 260 236.5 285 236.5 c 1
 285 273 285 495 285 495 c 17
EndSplineSet
EndChar

StartChar: five
Encoding: 53 53 21
Width: 463
Flags: HW
LayerCount: 2
Fore
SplineSet
228 409 m 0
 330.5 409 422.5 319 422.5 224 c 0
 422.5 85 290.5 -5.5 164 -5.5 c 0
 118 -5.5 71.5 8.5 45.5 24.5 c 1
 39 31 30 52 30 65 c 0
 30 91.5 48.5 115.5 76.5 115.5 c 0
 104 115.5 120.5 87.5 136.5 70 c 0
 155 50 182.5 35.5 209 35.5 c 0
 266.5 35.5 315.5 81 315.5 184 c 0
 315.5 260.5 252.5 333.5 166 333.5 c 1
 124 333.5 91 325 78 319 c 1
 73 319 69.5 329.5 69.5 336 c 1
 81 393.5 117 579.5 126.5 635 c 1
 183.5 635 257.5 635 289.5 635 c 1
 331 635 374 643.5 381 645 c 1
 386.5 642 393.5 640.5 393.5 632.5 c 0
 393.5 621 372.5 566 360 549 c 1
 320.034 545.218 274.777 542.574 227.5 542.014 c 1
 211.492 541.592 163.652 541.5 152 541.5 c 1
 145 506.5 128.5 421 122.5 393 c 1
 149 401.5 196 409 228 409 c 0
EndSplineSet
EndChar

StartChar: six
Encoding: 54 54 22
Width: 495
Flags: HW
LayerCount: 2
Fore
SplineSet
159.5 316.5 m 1
 155.5 288.5 153.5 255.5 153.5 229.5 c 0
 153.5 142.5 183 31.5 255 31.5 c 0
 306 31.5 344 93 344 183 c 0
 344 268 313.5 346 233 346 c 0
 212.5 346 183 341.5 159.5 316.5 c 1
269 400 m 0
 387.5 400 452 313.5 452 205 c 0
 452 90.5 355 -6 245 -6 c 0
 128.5 -6 45 112 45 231 c 1
 45 337.5 90 432.5 151 498 c 0
 229.5 582.5 337 630.5 413 646 c 1
 421.5 643 423.5 626.5 422.5 618.5 c 1
 317.5 579 208 504 169.5 365 c 1
 200 387 239.5 400 269 400 c 0
EndSplineSet
EndChar

StartChar: seven
Encoding: 55 55 23
Width: 448
Flags: HW
LayerCount: 2
Fore
SplineSet
360.5 635 m 2
 391 635 433 638.5 439 638.5 c 0
 445 638.5 446 631.5 446 626.5 c 0
 446 615.5 432.5 593 418 562.5 c 2
 150.5 -5 l 1
 147.5 -7.5 140 -8 136.5 -8 c 0
 125.5 -8 92.5 -1 92.5 13 c 1
 165 121 327.5 452 373 548 c 1
 342.5 548 130.5 548 130.5 548 c 2
 85.5 548 69.5 513 55.5 467.5 c 0
 54.5 463.5 51.5 462 43.5 461.5 c 0
 36.5 461 25.5 465 21.5 468.5 c 1
 36.5 520 57 603 64 634.5 c 1
 72 634.5 360.5 635 360.5 635 c 2
EndSplineSet
EndChar

StartChar: eight
Encoding: 56 56 24
Width: 507
Flags: HW
LayerCount: 2
Fore
SplineSet
254 31.5 m 1
 311.5 31.5 345.5 71.5 345.5 128 c 1
 345.5 208 248 270 226 285 c 0
 222.5 287.5 221 288.5 218.5 288.5 c 0
 217 288.5 215 289 214 287.5 c 0
 175.5 256.5 158.5 213.5 158.5 156.5 c 1
 158.5 87 198 31.5 254 31.5 c 1
250 600 m 1
 207.5 600 176.5 557 176.5 505 c 1
 176.5 432 240 392.5 271.5 375 c 0
 274 373.5 277.5 371.5 280.5 371.5 c 0
 283 371.5 284.5 372.5 286.5 374 c 0
 316 401 331 438.5 331 486 c 1
 331 537.5 302.5 600 250 600 c 1
254 638 m 1
 344.5 638 429.5 586.5 429.5 492.5 c 1
 429.5 422 369.5 375.5 318 349 c 1
 315 348 315.5 345 318 343.5 c 0
 366.5 315.5 451.5 248 451.5 167 c 1
 451.5 63.5 352.5 -7.5 249 -7.5 c 1
 143.5 -7.5 53.5 45 53.5 153.5 c 1
 53.5 239 133 290.5 182.5 312 c 0
 185 313.5 184.5 315.5 181.5 317.5 c 0
 143 345 75 399 75 483 c 1
 75 569.5 163 638 254 638 c 1
EndSplineSet
EndChar

StartChar: nine
Encoding: 57 57 25
Width: 495
Flags: HW
LayerCount: 2
Fore
SplineSet
333 323.5 m 1
 337.5 348.5 339 382.5 339 410.5 c 0
 339 497.5 309.5 608.5 237.5 608.5 c 0
 186.5 608.5 148.5 547 148.5 457 c 0
 148.5 372 179 294 259.5 294 c 0
 280 294 309.5 298.5 333 323.5 c 1
70 21.5 m 1
 175 61 284.5 136 323 275 c 1
 292.5 253 253 240 223.5 240 c 0
 105 240 40.5 326.5 40.5 435 c 0
 40.5 549.5 137.5 646 247.5 646 c 0
 364 646 447.5 528 447.5 409 c 1
 447.5 302.5 402.5 207.5 341.5 142 c 0
 263 57.5 155.5 9.5 79.5 -6 c 1
 71 -3 69 13.5 70 21.5 c 1
EndSplineSet
EndChar

StartChar: colon
Encoding: 58 58 26
Width: 241
Flags: HW
LayerCount: 2
Fore
SplineSet
54 201.5 m 0
 54 236.5 84 265 119.5 265 c 1
 155.5 265 184 235 184 200 c 0
 184 165 155.5 135 120 135 c 1
 84 135 54 165 54 201.5 c 0
54 221.5 m 0
 54 256.5 84 285 119.5 285 c 1
 155.5 285 184 255 184 220 c 0
 184 185 155.5 155 120 155 c 1
 84 155 54 185 54 221.5 c 0
EndSplineSet
EndChar

StartChar: semicolon
Encoding: 59 59 27
Width: 237
Flags: HW
LayerCount: 2
Fore
SplineSet
126.5 131 m 0
 139 131 152.5 125.5 161.5 119.5 c 1
 169 106 177.5 83 177.5 52 c 0
 177.5 -24 110.5 -116.5 50 -148 c 1
 41 -146.5 32 -131.5 32 -125.5 c 1
 51.5 -112 99 -73.5 99 -17 c 0
 99 16 58.5 19 58.5 71 c 0
 58.5 89.5 77.5 131 126.5 131 c 0
48.5 368 m 0
 48.5 403 79 431.5 114.5 431.5 c 1
 149.5 431.5 177 403 177 368 c 0
 177 333 150 301 114.5 301 c 1
 78.5 301 48.5 333 48.5 368 c 0
EndSplineSet
EndChar

StartChar: less
Encoding: 60 60 28
Width: 494
Flags: HW
LayerCount: 2
Fore
SplineSet
443.5 40 m 0
 443.5 33 433.5 -15 427.5 -15 c 0
 426.5 -15 424.5 -14 422.5 -13 c 2
 47.5 177 l 2
 32.5 185 29.5 200 29.5 217 c 0
 29.5 228 37.5 236 47.5 241 c 2
 418.5 428 l 2
 420.5 429 422.5 430 423.5 430 c 0
 426.5 430 433.5 415 440.5 378 c 0
 441.5 372 437.5 369 437.5 369 c 1
 115.5 209 l 1
 440.5 46 l 1
 440.5 46 443.5 45 443.5 40 c 0
EndSplineSet
EndChar

StartChar: equal
Encoding: 61 61 29
Width: 555
Flags: HW
LayerCount: 2
Fore
SplineSet
472.273 127 m 1
 311.273 127 238.273 127 66.2735 127 c 1
 54.2735 127 68.2735 179 82.2735 184 c 9
 485.273 184 l 17
 499.273 184 486.273 134 472.273 127 c 1
472.273 271 m 1
 311.273 271 238.273 271 66.2735 271 c 1
 54.2735 271 68.2735 323 82.2735 328 c 9
 485.273 328 l 17
 499.273 328 486.273 278 472.273 271 c 1
EndSplineSet
EndChar

StartChar: greater
Encoding: 62 62 30
Width: 494
Flags: HW
LayerCount: 2
Fore
SplineSet
48 40 m 0
 48 44.5 51 46 51 46 c 1
 376 209 l 1
 54.5 369 l 1
 54.5 369 51 371 51.5 377.5 c 0
 55 405 64.5 430 68 430 c 0
 69 430 71 429 73 428 c 2
 444.5 241 l 2
 454.5 236 462 228 462 217 c 0
 462 200 459.5 185 444.5 177 c 2
 69.5 -13 l 2
 67.5 -14 65.5 -15 64.5 -15 c 0
 58.5 -15 48 32.5 48 40 c 0
EndSplineSet
EndChar

StartChar: question
Encoding: 63 63 31
Width: 376
Flags: HW
LayerCount: 2
Fore
SplineSet
62.5 55.5 m 0
 62.5 91.5 92.5 119 126.5 119 c 0
 162.5 119 191 91 191 55.5 c 0
 191 20 163.5 -11 128.5 -11 c 0
 95 -11 62.5 18 62.5 55.5 c 0
105.5 533 m 0
 79.5 533 52.5 558 52.5 591 c 0
 52.5 607 58.5 626 64.5 632.5 c 1
 76.5 639 98.5 644.5 133.5 644.5 c 0
 189 644.5 335 592 335 464 c 0
 335 386 285.5 348 221.5 310 c 0
 194.5 293.5 153 267 141.5 249 c 0
 133.5 236 136 209.5 136 193 c 1
 133 186 127.5 178 120.5 177.5 c 1
 114 178.5 106 184 102.5 189 c 1
 96.5 207.5 88.5 251 88.5 284.5 c 0
 88.5 350.5 134.5 379.5 171 403.5 c 0
 220.5 435.5 267.5 468.5 267.5 509.5 c 0
 267.5 546 240.5 574.5 203.5 574.5 c 0
 159 574.5 139.5 533 105.5 533 c 0
EndSplineSet
EndChar

StartChar: at
Encoding: 64 64 32
Width: 757
Flags: HW
LayerCount: 2
Fore
SplineSet
430 578 m 0
 626 578 720 436 720 280 c 0
 720 127 623.5 -7 506.5 -7 c 0
 457.5 -7 416 18 416 79 c 0
 416 89 418.5 108.5 421.5 116.5 c 1
 402.5 79.5 339.5 -5 280 -5 c 3
 223.5 -5 184 38 184 125 c 3
 184 271 341 439 480.5 439 c 0
 515.5 439 552.5 433 571.5 426 c 9
 513 116.5 l 2
 512 112.5 510 96.5 510 91.5 c 0
 510 68.5 518.5 45.5 545.5 45.5 c 0
 602 45.5 678 150 678 275 c 0
 678 410 604 538 430 538 c 0
 226 538 89.5 344 89.5 170 c 0
 89.5 53 151.5 -35.5 223.5 -77.5 c 0
 259.5 -98.5 280.5 -102 299.5 -105 c 1
 299.5 -113 275.5 -124 261.5 -124 c 0
 247 -124 232.5 -121.5 219.5 -116.5 c 0
 127.5 -82.5 45.5 26.5 45.5 167.5 c 0
 45.5 363.5 198 578 430 578 c 0
438.5 389 m 3
 358.5 389 282.5 264.5 282.5 149.5 c 0
 282.5 100 299 73.5 328 73.5 c 3
 374 73.5 431.5 171 452 274 c 2
 472 376 l 17
 463 386 451.5 389 438.5 389 c 3
EndSplineSet
EndChar

StartChar: A
Encoding: 65 65 33
Width: 644
Flags: HW
LayerCount: 2
Fore
SplineSet
91.7153 136.5 m 6
 91.7153 136.5 264.216 551 294.716 629 c 5
 300.716 643.5 322.216 662.5 332.216 662.5 c 4
 338.216 662.5 343.216 659.5 345.716 657.5 c 5
 549.863 137 l 5
 563.546 102.798 571.347 80.4306 576.716 68 c 4
 590.216 35.5 642.216 29.5 650.216 29.5 c 5
 655.216 21.5 654.716 0 652.216 -3.5 c 5
 612.216 -1.5 574.216 3 530.216 3 c 4
 484.216 3 437.716 -1.5 396.716 -3.5 c 5
 391.716 1.5 392.216 27 397.216 29.5 c 5
 411.716 29.5 443.216 35 454.716 45 c 4
 459.216 49 461.216 54 461.216 60.5 c 4
 461.216 80 398.216 233.5 398.216 233.5 c 5
 398.216 233.5 394.716 237.5 391.716 237.5 c 4
 359.716 239.5 318.216 238.5 293.216 238.5 c 4
 252.215 238.5 228.715 238.5 188.715 236.5 c 4
 186.215 236.5 183.215 233.5 182.715 232.5 c 5
 182.715 232.5 155.215 168 141.715 130 c 4
 130.715 100 123.715 70.5 123.715 60.5 c 4
 123.715 35.5 187.715 29.5 195.715 29.5 c 5
 200.215 24.5 199.715 1.5 197.215 -3.5 c 5
 159.715 -0.5 138.715 3 94.7153 3 c 4
 48.7153 3 28.7154 -0.5 -11.7846 -3.5 c 5
 -15.2846 0 -16.2846 20 -12.7846 29 c 5
 -0.78467 29 40.7153 40 50.7153 54.5 c 4
 69.2153 81.5 78.7153 104.5 91.7153 136.5 c 6
291.716 505.5 m 5
 204.215 290 l 5
 204.215 290 204.215 286 206.215 286 c 4
 229.215 284.5 267.716 283.5 290.716 283.5 c 4
 321.716 283.5 342.216 284 373.216 286 c 4
 375.216 286 376.216 291 376.216 291 c 5
 291.716 505.5 l 5
EndSplineSet
EndChar

StartChar: B
Encoding: 66 66 34
Width: 604
Flags: HW
LayerCount: 2
Fore
SplineSet
225.386 333 m 1
 225.386 113.5 l 2
 225.386 103.5 226.386 60 233.886 50.5 c 0
 245.386 37 273.386 35.5 304.886 35.5 c 0
 365.386 35.5 437.386 63.5 437.386 176 c 0
 437.386 251 406.386 333 281.886 333 c 2
 225.386 333 l 1
225.386 371.5 m 1
 301.886 371.5 l 2
 362.886 371.5 398.886 421 398.886 487 c 0
 398.886 579 352.386 622 280.386 622 c 0
 262.886 622 234.886 621 230.386 611 c 0
 225.386 599 225.386 572.5 225.386 543 c 2
 225.386 371.5 l 1
316.886 659.5 m 0
 408.886 659.5 518.386 621 518.386 506 c 0
 518.386 427.5 444.886 379.5 413.886 368 c 0
 408.886 366 409.386 363.5 411.386 362.5 c 1
 460.886 358.5 565.386 297 565.386 195.5 c 0
 565.386 134 526.386 73 473.386 38.5 c 0
 418.386 2.5 345.886 -3 270.386 -3 c 0
 232.886 -3 77.8857 -2.5 38.8857 -3 c 1
 34.3857 2.5 34.3857 24 38.8857 30 c 1
 51.3857 30.5 101.386 34.5 105.386 46.5 c 0
 111.886 64.5 111.886 94 111.886 130.5 c 2
 111.886 528 l 2
 111.886 564.5 111.886 594 105.386 612 c 0
 101.386 624 51.3857 627.5 38.8857 628 c 1
 34.3857 634 34.3857 655.5 38.8857 661 c 1
 81.8857 658.5 128.886 657 169.386 657 c 0
 209.886 657 258.386 659.5 316.886 659.5 c 0
EndSplineSet
EndChar

StartChar: C
Encoding: 67 67 35
Width: 671
Flags: HW
LayerCount: 2
Fore
SplineSet
383 667 m 0
 449 667 526.5 661 593 647 c 1
 594 641.5 621.5 508.5 621.5 497.5 c 1
 621.5 489.5 609 482.5 598 482.5 c 1
 592.5 482.5 587.5 483.5 584.5 487 c 1
 576.5 522 544 627 390 627 c 0
 245.5 627 170.5 487.5 170.5 347.5 c 0
 170.5 191.5 245.5 34 408 34 c 0
 468.693 34 508.118 52.2301 536 77.5376 c 0
 576.59 113.983 597.04 177.065 601.5 197.5 c 1
 616 197.5 631 191 635 187.5 c 1
 635 172 611.5 48.5 597 39.5 c 1
 538 12.5 472 -6.5 380 -6.5 c 0
 187 -6.5 41 139 41 322 c 0
 41 512 189.5 667 383 667 c 0
EndSplineSet
EndChar

StartChar: D
Encoding: 68 68 36
Width: 732
Flags: HW
LayerCount: 2
Fore
SplineSet
225.886 543 m 2
 225.886 129.5 l 1
 225.886 119.5 226.386 67 232.886 54 c 0
 239.886 41.5 273.886 35.5 305.386 35.5 c 0
 457.886 35.5 556.886 124 556.886 319 c 0
 556.886 530 436.386 622 290.386 622 c 0
 272.886 622 234.886 621 230.886 610.5 c 0
 225.886 596.5 225.886 572 225.886 543 c 2
318.386 659 m 0
 543.386 659 685.886 530 685.886 335 c 0
 685.886 133 557.386 -3 308.386 -3 c 0
 265.386 -3 77.8857 -2.5 38.8857 -3 c 1
 34.3857 2.5 34.3857 24 38.8857 30 c 1
 51.3857 30.5 101.386 34.5 105.386 46.5 c 0
 111.886 64.5 111.886 94 111.886 130.5 c 2
 111.886 528 l 2
 111.886 564.5 111.886 594 105.386 612 c 0
 101.386 624 51.3857 627.5 38.8857 628 c 1
 34.3857 634 34.3857 655.5 38.8857 661 c 1
 81.8857 658.5 128.886 657 169.386 657 c 0
 209.886 657 266.886 658.5 318.386 659 c 0
EndSplineSet
EndChar

StartChar: E
Encoding: 69 69 37
Width: 590
Flags: HW
LayerCount: 2
Fore
SplineSet
169.386 657 m 0
 237.386 657 408.886 663.5 492.886 664 c 1
 499.886 614 512.886 567 521.886 522 c 1
 518.886 519 508.386 517 501.386 517 c 0
 494.386 517 487.886 519.5 486.386 524.5 c 0
 464.886 592 431.386 620.5 374.386 620.5 c 2
 289.886 620.5 l 0
 272.386 620.5 234.386 619.5 230.386 609 c 0
 225.386 595 225.386 571 225.386 543 c 2
 225.386 361.5 l 2
 225.386 356 246.386 353 268.386 353 c 2
 321.386 353 l 2
 398.886 353 403.886 362 420.386 424 c 0
 421.386 429 426.886 431.5 433.886 431.5 c 0
 440.886 431.5 448.886 429.5 451.886 426.5 c 1
 451.886 236 l 1
 449.886 234 441.886 232 434.886 232 c 0
 427.886 232 421.386 235 419.886 240 c 0
 406.386 292.5 397.386 298.5 388.386 303.5 c 0
 376.886 309.5 335.386 311 297.386 311 c 0
 269.386 311 225.386 310 225.386 299.5 c 2
 225.386 128.5 l 2
 225.386 118 225.386 67 232.386 54.5 c 0
 241.886 42.5 266.386 39.5 300.386 39.5 c 1
 357.386 39.5 l 2
 399.886 39.5 441.386 48 466.886 68 c 0
 493.386 88 508.886 122 525.386 166 c 0
 526.386 170 532.386 172 539.386 172 c 0
 549.386 172 563.886 169 566.886 166 c 1
 547.886 112 519.886 41 512.886 -3 c 1
 437.386 -3 184.386 -1 98.3858 -1.5 c 1
 72.8858 1.5 55.8857 12 38.8857 15.5 c 1
 42.8857 18.5 66.3857 29.5 70.8857 38.5 c 1
 80.8858 48.5 107.886 66.5 109.386 93.5 c 1
 111.886 101.5 111.886 299.5 111.886 314.5 c 2
 111.886 336 111.886 565 107.886 575 c 1
 105.386 596.5 82.3858 611.5 73.3858 620 c 1
 69.3858 629 42.8857 643.5 38.8857 646.5 c 1
 59.3857 647.5 128.886 657 169.386 657 c 0
EndSplineSet
EndChar

StartChar: F
Encoding: 70 70 38
Width: 537
Flags: HW
LayerCount: 2
Fore
SplineSet
169.386 657 m 0
 237.386 657 408.886 663.5 492.886 664 c 1
 499.886 614 512.886 567 521.886 522 c 1
 518.886 519 508.386 517 501.386 517 c 0
 494.386 517 487.886 519.5 486.386 524.5 c 0
 464.886 592 431.386 620.5 374.386 620.5 c 2
 289.886 620.5 l 0
 272.386 620.5 234.386 619.5 230.386 609 c 0
 225.386 595 225.386 571 225.386 543 c 2
 225.386 359.5 l 2
 225.386 354 246.386 351 268.386 351 c 2
 321.386 351 l 2
 398.886 351 403.886 360 420.386 422 c 0
 421.386 427 426.886 429.5 433.886 429.5 c 0
 440.886 429.5 448.886 427.5 451.886 424.5 c 1
 451.886 234 l 1
 449.886 232 441.886 230 434.886 230 c 0
 427.886 230 421.386 233 419.886 238 c 0
 406.386 290.5 397.386 296.5 388.386 301.5 c 0
 376.886 307.5 335.386 309 297.386 309 c 0
 269.386 309 225.386 308 225.386 297.5 c 2
 225.386 130.5 l 2
 225.386 94 225.386 64.5 231.886 46.5 c 0
 235.886 34.5 295.386 30 307.886 29.5 c 1
 312.386 23.5 312.386 2 307.886 -3.5 c 1
 267.886 -0.5 208.886 2.5 168.386 2.5 c 0
 123.886 2.5 77.8857 -1.5 38.8857 -3.5 c 1
 34.3857 2 34.3857 23.5 38.8857 29.5 c 1
 51.3857 30 101.386 34.5 105.386 46.5 c 0
 111.886 64.5 111.886 94 111.886 130.5 c 2
 111.886 528 l 2
 111.886 564.5 111.886 594 105.386 612 c 0
 101.386 624 51.3857 627.5 38.8857 628 c 1
 34.3857 634 34.3857 655.5 38.8857 661 c 1
 81.8857 658.5 128.886 657 169.386 657 c 0
EndSplineSet
EndChar

StartChar: G
Encoding: 71 71 39
Width: 717
Flags: HW
LayerCount: 2
Fore
SplineSet
514 179 m 1
 514 204 514.5 222.5 509 241.5 c 0
 504 259.5 451 263 439 263 c 1
 434.5 265.5 433.5 291 438.5 296 c 1
 484.5 294 531.5 290.5 576.5 290.5 c 0
 617 290.5 653.5 294 694 296 c 1
 698.5 287 697 265.5 693.5 263 c 1
 683.5 263 641.5 257.5 634.5 248.5 c 0
 629 238.5 626 214.5 626 190 c 1
 626 171.5 626 123 626 101 c 0
 626 86 634 74 634 66.5 c 0
 634 58 621.5 51.5 606.5 44.5 c 0
 553.5 21 492 -6.5 380 -6.5 c 0
 186.5 -6.5 41 139 41 322 c 0
 41 509 189.5 667 383 667 c 0
 449 667 526.5 661 593 647 c 1
 594 641.5 621.5 508.5 621.5 497.5 c 1
 621.5 489.5 609 482.5 598 482.5 c 1
 592.5 482.5 587.5 483.5 584.5 487 c 1
 576.5 522 545 627 391 627 c 0
 243 627 170.5 485 170.5 345 c 0
 170.5 189 248.5 33.5 406.5 33.5 c 0
 451.5 33.5 482 44 506 55.5 c 0
 511 58 514 62.5 514 70.5 c 0
 514 91.5 514 155 514 179 c 1
EndSplineSet
EndChar

StartChar: H
Encoding: 72 72 40
Width: 730
Flags: HW
LayerCount: 2
Fore
SplineSet
169.386 656 m 0
 209.886 656 258.386 659 298.386 662 c 1
 302.886 656.5 302.886 633.5 298.386 627.5 c 1
 285.886 627 235.886 622.5 231.886 610.5 c 0
 225.386 592.5 225.386 563 225.386 526.5 c 2
 225.386 368 l 1
 225.386 366 227.386 365 227.386 365 c 1
 271.386 364 315.886 362 366.386 362 c 0
 408.386 362 460.886 364 501.386 365 c 1
 501.386 365 503.386 367 503.386 369 c 0
 503.386 403 502.886 526.5 502.886 526.5 c 2
 502.886 563 502.886 592.5 496.386 610.5 c 0
 492.386 622.5 442.386 627 429.886 627.5 c 1
 425.386 633.5 425.386 656.5 429.886 662 c 1
 469.886 659 519.886 656 560.386 656 c 0
 600.886 656 649.386 659 689.386 662 c 1
 693.886 656.5 693.886 633.5 689.386 627.5 c 1
 676.886 627 626.886 622.5 622.886 610.5 c 0
 616.386 592.5 616.386 563 616.386 526.5 c 2
 616.386 132 l 2
 616.386 95.5 616.386 66 622.886 48 c 0
 626.886 36 676.886 31.5 689.386 31 c 1
 693.886 25 693.886 2 689.386 -3.5 c 1
 649.386 -0.5 599.886 2.5 559.386 2.5 c 0
 518.886 2.5 469.886 -0.5 429.886 -3.5 c 1
 425.386 2 425.386 25 429.886 31 c 1
 442.386 31.5 492.386 36 496.386 48 c 0
 502.886 66 502.886 95.5 502.886 132 c 2
 502.886 313.5 l 1
 502.886 315.5 500.886 318 500.886 318 c 1
 458.886 319 412.386 321 366.386 321 c 0
 241.386 321 229.886 318 226.386 316 c 1
 225.386 315 225.386 313 225.386 313 c 1
 225.386 132 l 2
 225.386 95.5 225.386 66 231.886 48 c 0
 235.886 36 285.886 31.5 298.386 31 c 1
 302.886 25 302.886 2 298.386 -3.5 c 1
 258.386 -0.5 208.886 2.5 168.386 2.5 c 0
 127.886 2.5 78.8857 -0.5 38.8857 -3.5 c 1
 34.3857 2 34.3857 25 38.8857 31 c 1
 51.3857 31.5 101.386 36 105.386 48 c 0
 111.886 66 111.886 95.5 111.886 132 c 2
 111.886 526.5 l 2
 111.886 563 111.886 592.5 105.386 610.5 c 0
 101.386 622.5 51.3857 627 38.8857 627.5 c 1
 34.3857 633.5 34.3857 656.5 38.8857 662 c 1
 78.8857 659 128.886 656 169.386 656 c 0
EndSplineSet
EndChar

StartChar: I
Encoding: 73 73 41
Width: 338
Flags: W
HStem: -3.5 33<36.3545 105.165 232.107 300.917> 629 33<36.3545 105.165 232.107 300.917>
VStem: 111.886 113.5<36.9863 621.514>
LayerCount: 2
Fore
SplineSet
169.386 656 m 4
 209.886 656 258.386 659 298.386 662 c 5
 302.886 656.5 302.886 635 298.386 629 c 5
 285.886 628.5 235.886 624 231.886 612 c 4
 225.386 594 225.386 564.5 225.386 528 c 6
 225.386 130.5 l 6
 225.386 94 225.386 64.5 231.886 46.5 c 4
 235.886 34.5 285.886 30 298.386 29.5 c 5
 302.886 23.5 302.886 2 298.386 -3.5 c 5
 258.386 -0.5 208.886 2.5 168.386 2.5 c 4
 127.886 2.5 78.8857 -0.5 38.8857 -3.5 c 5
 34.3857 2 34.3857 23.5 38.8857 29.5 c 5
 51.3857 30 101.386 34.5 105.386 46.5 c 4
 111.886 64.5 111.886 94 111.886 130.5 c 6
 111.886 528 l 6
 111.886 564.5 111.886 594 105.386 612 c 4
 101.386 624 51.3857 628.5 38.8857 629 c 5
 34.3857 635 34.3857 656.5 38.8857 662 c 5
 78.8857 659 128.886 656 169.386 656 c 4
EndSplineSet
EndChar

StartChar: J
Encoding: 74 74 42
Width: 320
Flags: HW
LayerCount: 2
Fore
SplineSet
163.5 656 m 0
 204 656 252.5 659 292.5 662 c 1
 297 656.5 297 635 292.5 629 c 1
 280 628.5 230 624 226 612 c 0
 219.5 594 219.5 564.5 219.5 528 c 2
 219.5 129.5 l 2
 219.5 -88.5 118 -222.5 -45.5 -222.5 c 1
 -66 -222.5 -95 -212 -105.5 -204.5 c 1
 -111.5 -196.5 -117.5 -185.5 -117.5 -171.5 c 1
 -117.5 -139 -94 -110.5 -62 -110.5 c 1
 -41.8068 -110.5 -25.2172 -125.79 -10 -140.623 c 0
 4.30056 -154.54 19.7109 -168 34 -168 c 1
 81.5 -168 106 -78.5 106 125.5 c 2
 106 528 l 2
 106 564.5 106 594 99.5 612 c 0
 95.5 624 45.5 628.5 33 629 c 1
 28.5 635 28.5 656.5 33 662 c 1
 73 659 123 656 163.5 656 c 0
EndSplineSet
EndChar

StartChar: K
Encoding: 75 75 43
Width: 682
Flags: HW
LayerCount: 2
Fore
SplineSet
169.386 656 m 0
 209.886 656 258.386 659 298.386 662 c 1
 302.886 656.5 302.886 633.5 298.386 627.5 c 1
 285.886 627 235.886 622.5 231.886 610.5 c 0
 225.386 592.5 225.386 563 225.386 526.5 c 2
 225.386 340 l 1
 257.886 364 301.386 402.5 333.886 435 c 0
 402.886 504 417.886 515.5 462.386 574 c 0
 470.386 584.5 474.386 597.5 474.386 606 c 0
 474.386 629 429.886 628.5 418.386 628.5 c 1
 414.386 635.5 414.386 653 417.386 662 c 1
 454.386 660 502.886 655.5 539.886 655.5 c 0
 583.886 655.5 617.386 659 655.886 662 c 1
 658.386 655.5 658.886 632 653.886 629 c 1
 644.886 628 582.886 625 547.886 588.5 c 1
 504.886 541.5 420.386 459 339.386 377.5 c 0
 333.386 371 335.386 366.5 338.886 361.5 c 0
 423.386 256.5 516.386 137.5 554.886 101 c 1
 604.386 42.5 660.886 31.5 692.386 29.5 c 1
 697.386 23.5 692.886 -1.5 691.886 -3.5 c 1
 643.886 -4.5 585.886 -3.5 555.386 0 c 0
 509.886 2.5 471.386 28 444.886 59 c 0
 421.386 87.5 322.886 209 244.386 303 c 0
 241.886 306 237.886 306.5 234.886 306.5 c 0
 231.386 306.5 227.386 305 225.386 302.5 c 1
 225.386 132 l 2
 225.386 95.5 225.386 66 231.886 48 c 0
 235.886 36 285.886 31.5 298.386 31 c 1
 302.886 25 302.886 2 298.386 -3.5 c 1
 258.386 -0.5 208.886 2.5 168.386 2.5 c 0
 127.886 2.5 78.8857 -0.5 38.8857 -3.5 c 1
 34.3857 2 34.3857 25 38.8857 31 c 1
 51.3857 31.5 101.386 36 105.386 48 c 0
 111.886 66 111.886 95.5 111.886 132 c 2
 111.886 526.5 l 2
 111.886 563 111.886 592.5 105.386 610.5 c 0
 101.386 622.5 51.3857 627 38.8857 627.5 c 1
 34.3857 633.5 34.3857 656.5 38.8857 662 c 1
 78.8857 659 128.886 656 169.386 656 c 0
EndSplineSet
EndChar

StartChar: L
Encoding: 76 76 44
Width: 566
Flags: HW
LayerCount: 2
Fore
SplineSet
225.386 130 m 2
 225.386 119.5 225.386 67 232.386 54.5 c 0
 241.886 42.5 266.386 39.5 300.386 39.5 c 1
 361.886 39.5 l 2
 399.886 39.5 441.386 47 466.886 68 c 0
 489.886 87 508.886 117 525.386 166 c 0
 526.386 170 532.386 172 539.386 172 c 0
 549.386 172 563.886 169 566.886 166 c 1
 547.886 112 519.886 41 512.886 -3 c 1
 444.663 -3 303.509 -1 169.693 -1.13952 c 0
 110.496 -1.21351 65.1431 -2.82673 38.8857 -3 c 1
 34.3857 2.5 34.3857 24 38.8857 30 c 1
 51.3857 30.5 101.386 34.5 105.386 46.5 c 0
 111.886 64.5 111.886 94 111.886 130.5 c 2
 111.886 528 l 2
 111.886 564.5 111.886 594 105.386 612 c 0
 101.386 624 51.3857 628.5 38.8857 629 c 1
 34.3857 635 34.3857 656.5 38.8857 662 c 1
 78.8857 659 128.886 656 169.386 656 c 0
 209.886 656 258.386 659 298.386 662 c 1
 302.886 656.5 302.886 635 298.386 629 c 1
 285.886 628.5 235.886 624 231.886 612 c 0
 225.386 594 225 564.5 225.386 528 c 2
 225.386 130 l 2
EndSplineSet
EndChar

StartChar: M
Encoding: 77 77 45
Width: 902
Flags: HW
LayerCount: 2
Fore
SplineSet
163.725 656.5 m 0
 197.725 656.5 225.725 660 256.724 662 c 1
 281.224 598.5 384.224 366 457.224 192 c 1
 457.724 191 460.224 190 461.224 190 c 0
 462.224 190 465.224 193 465.724 195 c 1
 495.224 271 550.655 410 601.224 544 c 0
 618.155 588.5 639.724 660 639.724 660 c 1
 660.224 658.5 714.155 656.5 733.155 656.5 c 0
 767.655 656.5 815.224 660 847.724 662 c 1
 850.224 658.5 853.724 632.5 851.224 628.5 c 1
 840.224 628.5 797.224 622.5 789.724 614 c 0
 782.724 606 779.724 594 780.224 574.5 c 0
 782.724 505 788.224 275 792.724 146 c 0
 794.224 107 795.724 72 805.224 47 c 0
 810.724 33 863.724 29.5 871.724 29.5 c 1
 876.224 20.5 875.724 3 873.724 -3.5 c 1
 833.724 -1.5 790.224 3 746.224 3 c 0
 700.224 3 653.724 -1.5 607.724 -3.5 c 1
 604.724 -0.5 603.224 21.5 606.724 29.5 c 1
 618.724 29.5 663.724 34 674.224 44.5 c 0
 680.224 50.5 682.724 71 682.724 83 c 0
 682.724 95 681.655 126 681.224 142.5 c 1
 679.224 214.5 672.655 450 669.655 531 c 1
 669.612 534.499 668.724 554 661.724 554 c 0
 659.724 554 658.724 552 656.724 547 c 1
 615.724 444 501.724 141 463.224 44.5 c 1
 459.724 35.5 437.224 -1 422.724 -2 c 0
 419.724 -2.5 416.724 -1 413.724 0 c 1
 180.225 553.5 l 1
 174.725 340.5 170.225 188 167.225 104.5 c 0
 166.725 89 168.725 62 171.225 54.5 c 0
 177.225 36.5 246.225 29.5 254.225 29.5 c 1
 258.224 23 258.224 3 256.224 -3.5 c 1
 216.225 -1.5 185.225 3 141.225 3 c 0
 95.2242 3 66.2242 -1.5 20.2242 -3.5 c 1
 17.2241 1 16.2241 20 19.7242 29 c 1
 31.7242 29 92.7242 36.5 102.725 56 c 0
 109.225 67.5 113.725 106.5 114.725 125 c 0
 122.225 303.5 129.225 544 130.225 576.5 c 0
 130.225 587 130.225 598.5 125.725 607.5 c 0
 119.725 619 72.7242 629 58.2242 629 c 1
 54.2242 633 56.2242 660 58.2242 662 c 1
 104.225 660 117.725 656.5 163.725 656.5 c 0
EndSplineSet
EndChar

StartChar: N
Encoding: 78 78 46
Width: 763
Flags: HW
LayerCount: 2
Fore
SplineSet
143.891 657.5 m 0
 176.391 657.5 213.391 659.5 236.391 662 c 1
 280.891 583 475.891 361 592.891 207 c 1
 593.891 210.5 593.891 249.5 593.891 256.5 c 1
 593.891 510.5 l 1
 593.891 547.5 591.891 593.5 583.391 609 c 0
 576.391 623 518.891 630 504.891 630 c 1
 501.391 633.5 500.391 655.5 503.891 663 c 1
 546.891 661 577.391 656.5 622.391 656.5 c 0
 667.391 656.5 696.891 661 739.891 663 c 1
 742.391 657.5 744.391 640 738.891 629.5 c 1
 728.891 629.5 665.891 624.5 658.391 608 c 0
 651.391 593.5 648.391 549.5 648.391 512.5 c 2
 648.391 139 l 2
 648.391 81 649.891 51 651.891 -1 c 1
 648.891 -4 633.391 -5 630.391 -5 c 0
 621.391 -5 608.391 4.5 598.391 18 c 2
 176.891 544 l 1
 176.891 136 l 2
 176.891 100 179.891 68 187.391 53 c 0
 193.891 38.5 254.391 30 266.391 30 c 1
 271.891 21.5 270.391 2.5 268.391 -3.5 c 1
 228.391 -1.5 191.891 3 147.891 3 c 0
 101.891 3 78.3911 -1.5 32.3911 -3.5 c 1
 28.3911 3.5 28.8911 24 32.3911 29.5 c 1
 44.3911 29.5 103.891 37.5 111.391 52.5 c 0
 119.391 67.5 122.391 99 122.391 137 c 1
 122.391 202.5 122.391 465.5 122.391 531 c 1
 122.391 564 119.391 593 108.391 610 c 0
 100.391 622.5 48.3911 630.5 36.3911 630.5 c 1
 31.3911 636 31.3911 658.5 35.3911 663.5 c 1
 73.8911 661.5 104.391 657.5 143.891 657.5 c 0
EndSplineSet
EndChar

StartChar: O
Encoding: 79 79 47
Width: 750
Flags: W
HStem: -10 40<312.589 468.572> 627 40<277.197 433.035>
VStem: 41 129.5<210.992 445.566> 576.5 129.5<210.892 445.669>
LayerCount: 2
Fore
SplineSet
353.5 627 m 1
 219.5 627 170.5 484 170.5 356.5 c 1
 170.5 202.5 239.5 30 391.5 30 c 1
 526 30 576.5 172.5 576.5 300.5 c 1
 576.5 454.5 505.5 627 353.5 627 c 1
373 667 m 0
 549 667 706 521 706 328 c 0
 706 141 549 -10 373 -10 c 0
 197 -10 41 135.5 41 328 c 0
 41 515 197 667 373 667 c 0
EndSplineSet
EndChar

StartChar: P
Encoding: 80 80 48
Width: 562
Flags: HW
LayerCount: 2
Fore
SplineSet
538.886 484 m 0
 538.886 357.5 445.886 280 329.886 280 c 0
 300.386 280 280.386 290.5 272.886 296.5 c 0
 269.389 299.497 260.613 313.425 260.682 320 c 0
 260.716 324.047 262.716 327 264.886 327.5 c 1
 275.386 324.5 288.886 323.5 303.886 323.5 c 0
 368.386 323.5 418.386 376.5 418.386 465 c 0
 418.386 554 369.386 622 280.386 622 c 0
 262.886 622 234.886 621 230.386 611 c 0
 225.386 599 225.386 572.5 225.386 543 c 2
 225.386 130.5 l 2
 225.386 94 225.386 64.5 231.886 46.5 c 0
 235.886 34.5 285.886 30 298.386 29.5 c 1
 302.886 23.5 302.886 2 298.386 -3.5 c 1
 258.386 -0.5 208.886 2.5 168.386 2.5 c 0
 127.886 2.5 78.8857 -0.5 38.8857 -3.5 c 1
 34.3857 2 34.3857 23.5 38.8857 29.5 c 1
 51.3857 30 101.386 34.5 105.386 46.5 c 0
 111.886 64.5 111.886 94 111.886 130.5 c 2
 111.886 528 l 2
 111.886 564.5 111.886 594 105.386 612 c 0
 101.386 624 51.3857 627.5 38.8857 628 c 1
 34.3857 634 34.3857 655.5 38.8857 661 c 1
 81.8857 658.5 130.386 657 170.886 657 c 0
 211.386 657 259.886 659.5 318.886 659.5 c 0
 426.886 659.5 538.886 598 538.886 484 c 0
EndSplineSet
EndChar

StartChar: Q
Encoding: 81 81 49
Width: 747
Flags: HW
LayerCount: 2
Fore
SplineSet
373 667 m 0
 549 667 706 521 706 328 c 0
 706 176.5 603 48.5 470.5 5.5 c 1
 564.5 -40 589 -77.5 691.5 -77.5 c 0
 731.5 -77.5 755.5 -71.5 762.5 -70.5 c 1
 768.776 -70.5 778.94 -74.4162 783 -80.4738 c 0
 784.319 -82.4458 784.5 -83.9565 784.5 -84.5 c 1
 729.5 -113.5 660 -139.5 599 -139.5 c 0
 490.5 -139.5 412.5 -33 293.5 0 c 0
 152 36.5 41 165.5 41 328 c 0
 41 515 197 667 373 667 c 0
353.5 627 m 0
 219.5 627 170.5 484 170.5 356.5 c 0
 170.5 202.5 239.5 30 391.5 30 c 0
 526 30 576.5 172.5 576.5 300.5 c 0
 576.5 454.5 505.5 627 353.5 627 c 0
EndSplineSet
EndChar

StartChar: R
Encoding: 82 82 50
Width: 651
Flags: HW
LayerCount: 2
Fore
SplineSet
318.886 659.5 m 0
 426.886 659.5 528.386 599 528.386 482 c 0
 528.386 405 449.886 339 391.386 320.5 c 1
 454.386 227.5 512.386 151.5 545.386 108 c 1
 596.886 42 653.386 31.5 684.886 29.5 c 1
 689.886 23.5 685.386 -1.5 684.386 -3.5 c 1
 636.386 -4.5 583.386 -3 552.886 0.5 c 0
 507.386 3 468.386 27.5 443.886 60 c 0
 436.386 70 314.886 238 283.386 287 c 0
 280.386 291.5 270.386 300.5 259.386 300.5 c 0
 255.886 300.5 229.886 300.5 225.386 300.5 c 1
 225.386 264 225.386 130.5 225.386 130.5 c 1
 225.386 94 225.386 64.5 231.886 46.5 c 0
 235.886 34.5 285.886 30 298.386 29.5 c 1
 302.886 23.5 302.886 2 298.386 -3.5 c 1
 258.386 -0.5 208.886 2.5 168.386 2.5 c 0
 127.886 2.5 78.8857 -0.5 38.8857 -3.5 c 1
 34.3857 2 34.3857 23.5 38.8857 29.5 c 1
 51.3857 30 101.386 34.5 105.386 46.5 c 0
 111.886 64.5 111.886 94 111.886 130.5 c 2
 111.886 528 l 2
 111.886 564.5 111.886 594 105.386 612 c 0
 101.386 624 51.3857 627.5 38.8857 628 c 1
 34.3857 634 34.3857 655.5 38.8857 661 c 1
 81.8857 658.5 130.386 657 170.886 657 c 0
 211.386 657 259.886 659.5 318.886 659.5 c 0
407.886 465 m 0
 407.886 549 376.886 622 280.386 622 c 0
 262.886 622 234.886 621 230.386 611 c 0
 225.386 599 225.386 572.5 225.386 543 c 2
 225.386 335.5 l 1
 225.386 335.5 264.886 335.5 275.386 335.5 c 0
 346.386 335.5 407.886 388 407.886 465 c 0
EndSplineSet
EndChar

StartChar: S
Encoding: 83 83 51
Width: 509
Flags: HW
LayerCount: 2
Fore
SplineSet
262 668 m 0
 322.5 668 358 654 421.5 640 c 1
 428 587.5 430.5 529.5 433 485.5 c 1
 431.758 480.01 426 479 422.5 479 c 0
 419 479 396.5 478.5 394.5 487.5 c 0
 387.5 540.5 339 628.5 261 628.5 c 0
 197.5 628.5 164 588.5 164 531 c 0
 164 460 243 415 306.5 373.5 c 0
 372.5 330.5 467 283 467 174 c 0
 467 64 362 -10 253.5 -10 c 0
 190 -10 123 5.5 68.5 17.5 c 1
 57.5 69 47 160 46 180 c 1
 49 185 68.5 193 74.5 193 c 0
 80.5 193 84.4453 190.135 85.5 184.5 c 0
 94 138.5 138.5 29.5 249.5 29.5 c 0
 306 29.5 358 63 358 137.5 c 0
 358 214.5 277 254 217.5 291 c 0
 142.5 338 57.5 387 57.5 489.5 c 0
 57.5 594 160.5 668 262 668 c 0
EndSplineSet
EndChar

StartChar: T
Encoding: 84 84 52
Width: 624
Flags: HW
LayerCount: 2
Fore
SplineSet
492.5 659 m 0
 536.5 659 559.5 673 574.5 676 c 0
 583.5 678.5 585 678 590 675.5 c 1
 593.5 645 611 524 616.5 497.5 c 1
 613.5 494.5 601 490 592 490.5 c 0
 587 490.5 581.5 492 580 495.5 c 1
 568 563 529.5 618.5 479 618.5 c 2
 369 618.5 l 1
 369 130.5 l 2
 369 94 369 64.5 375.5 46.5 c 0
 379.5 34.5 429.5 30 442 29.5 c 1
 446.5 23.5 446.5 2 442 -3.5 c 1
 402 -0.5 352.5 2.5 312 2.5 c 0
 271.5 2.5 222.5 -0.5 182.5 -3.5 c 1
 178 2 178 23.5 182.5 29.5 c 1
 195 30 245 34.5 249 46.5 c 0
 255.5 64.5 255.5 94 255.5 130.5 c 2
 255.5 618.5 l 1
 144.5 618.5 l 2
 94 618.5 55.5 563 43.5 495.5 c 1
 42 492 36.5 490.5 31.5 490.5 c 0
 22.5 490 10 494.5 7 497.5 c 1
 12.5 524 30 645 33.5 675.5 c 1
 38.5 678 44 677 51 675.5 c 0
 66 672.5 87 659 131 659 c 0
 219 659 401.5 659 492.5 659 c 0
EndSplineSet
EndChar

StartChar: U
Encoding: 85 85 53
Width: 723
Flags: HW
LayerCount: 2
Fore
SplineSet
153.886 656 m 4
 194.386 656 242.886 659 282.886 662 c 5
 287.386 656.5 287.386 635 282.886 629 c 5
 270.386 628.5 220.386 624 216.386 612 c 4
 209.886 594 209.886 564.5 209.886 528 c 6
 209.886 313 l 6
 209.886 237.36 219.293 181.929 246.835 135.5 c 4
 281.576 71.944 342.169 58.5 391.386 58.5 c 4
 482.886 58.5 567.886 118 569.386 291.5 c 6
 569.386 512 l 6
 569.386 551.5 566.386 589.5 557.386 607.5 c 4
 550.386 622 498.386 629 483.886 629.5 c 5
 478.886 636.5 479.886 656.5 482.886 662.5 c 5
 526.386 659.5 555.886 656.5 600.886 656.5 c 4
 645.886 656.5 670.386 660.5 713.886 662.5 c 5
 717.386 657 718.886 638.5 713.886 629.5 c 5
 701.386 629 643.886 624 636.386 607.5 c 4
 627.886 590 624.386 553.5 624.386 513 c 6
 624.386 281 l 6
 624.386 79 505.886 -6.5 355.886 -6.5 c 4
 277.871 -6.5 207.398 19.2647 161.174 70.5 c 4
 118.542 117.103 96.3858 183.965 96.3858 276 c 6
 96.3858 528 l 6
 96.3858 564.5 96.3858 594 89.8857 612 c 4
 85.8857 624 35.8857 628.5 23.3857 629 c 5
 18.8857 635 18.8857 656.5 23.3857 662 c 5
 63.3857 659 113.386 656 153.886 656 c 4
EndSplineSet
EndChar

StartChar: V
Encoding: 86 86 54
Width: 654
Flags: HW
LayerCount: 2
Fore
SplineSet
122.443 656 m 0
 165.443 656 215.443 659 254.943 662 c 1
 257.943 656 258.443 633 253.943 629 c 1
 243.443 628.5 193.443 625.5 193.443 599 c 0
 193.443 586.221 202.082 558.453 214.27 527.5 c 0
 259.693 416 359.693 163 361.193 158.921 c 1
 364.193 165.5 472.693 431.5 507.943 522.5 c 0
 516.943 547 527.943 578 527.943 597.5 c 0
 527.943 622.5 467.443 628.5 454.943 629 c 1
 449.943 633.5 450.443 656.5 454.943 662 c 1
 496.943 659 525.943 656 567.443 656 c 0
 612.443 656 631.943 660 672.443 662 c 1
 675.943 656.5 675.443 632.5 671.443 629 c 1
 660.943 628.5 618.943 625 604.443 607 c 0
 590.943 590 573.443 550.5 558.943 515 c 0
 481.443 322.5 435.943 216.5 358.443 31 c 0
 348.943 8.5 327.943 -6.5 315.443 -6.5 c 0
 308.943 -6.5 306.943 3 303.443 8.5 c 1
 269.443 97.5 136.943 416 99.4428 512 c 1
 85.9428 546 71.9428 578 58.9428 601 c 0
 47.4428 622 5.44287 628.5 -7.05713 629 c 1
 -10.5571 632.5 -10.0571 658 -7.05713 662 c 1
 35.4428 659 78.4428 656 122.443 656 c 0
EndSplineSet
EndChar

StartChar: W
Encoding: 87 87 55
Width: 918
Flags: HW
LayerCount: 2
Fore
SplineSet
126.144 656 m 0
 169.143 656 211.143 659 250.643 662 c 1
 253.643 656 254.143 633 249.643 629 c 1
 239.143 628.5 189.143 625.5 189.143 599 c 1
 189.143 587.747 198.485 561.013 208.751 529 c 0
 242.102 426.286 293.616 272.783 314.393 202 c 1
 337.893 279.5 426.893 545.5 453.643 627 c 0
 460.015 646.039 476.143 662 487.143 662 c 0
 491.143 662 494.643 657 499.143 646 c 1
 535.643 551 634.893 282 668.393 182.5 c 1
 689.893 259 746.143 436 769.643 522.5 c 0
 776.643 547.5 785.643 578 785.643 597.5 c 0
 785.643 622.5 725.143 628.5 712.643 629 c 1
 707.643 633.5 708.143 656.5 712.643 662 c 1
 754.643 659 784.643 656 826.143 656 c 0
 871.143 656 890.643 660 931.143 662 c 1
 934.643 656.5 934.143 632.5 930.143 629 c 1
 919.643 628.5 879.143 623.5 863.143 607 c 0
 848.643 591 836.143 565.5 824.643 527.5 c 0
 766.143 338.5 727.643 218 669.643 36 c 0
 662.643 14.5 643.143 -6.5 630.643 -6.5 c 0
 624.143 -6.5 619.143 3 616.143 8.5 c 1
 584.643 102.5 483.893 362.5 450.393 460 c 1
 422.393 368 364.143 198.5 313.143 38 c 0
 308.643 23.5 289.143 -6.5 276.643 -6.5 c 0
 270.143 -6.5 265.143 3 262.143 8.5 c 1
 233.143 101 122.644 422.5 92.1436 521 c 1
 81.1436 556 70.6436 583.5 56.6436 602.5 c 0
 43.6436 622 6.14356 628.5 -6.35645 629 c 1
 -10.3565 632.5 -9.35645 658 -6.35645 662 c 1
 36.1436 659 82.1436 656 126.144 656 c 0
EndSplineSet
EndChar

StartChar: X
Encoding: 88 88 56
Width: 682
Flags: HW
LayerCount: 2
Fore
SplineSet
164.51 656.5 m 0
 213.51 656.5 260.51 660 300.51 662 c 1
 302.51 656 303.51 629 298.51 629 c 1
 284.51 629 242.51 623 242.01 602.5 c 0
 242.01 595.5 246.01 585.5 252.01 576.5 c 2
 366.01 403 l 1
 418.26 471.48 487.079 557.445 502.081 588 c 0
 503.508 591.547 506.01 596.735 506.01 601 c 0
 506.01 612.5 479.51 628.5 434.51 628.5 c 1
 430.01 629 429.01 655.5 433.01 661.5 c 1
 470.51 658 516.01 655.5 553.01 655.5 c 0
 605.01 655.5 641.51 658.5 668.01 661.5 c 1
 671.01 656 672.01 631.5 666.51 628.5 c 1
 658.51 628.5 602.01 625.5 566.51 582 c 1
 528.51 533.5 426.01 413 390.01 365 c 1
 432.01 301.5 580.01 79.5 587.51 71 c 1
 611.51 39 662.51 29.5 686.01 29.5 c 1
 690.01 22.5 689.51 1.5 686.51 -3.5 c 1
 646.51 -1.5 596.01 2 555.01 2 c 0
 499.01 2 459.01 -1.5 403.01 -3.5 c 1
 398.01 1.5 399.01 29.5 404.01 29.5 c 0
 415.01 29.5 461.01 39 461.01 57.5 c 0
 461.01 60.5 459.01 66 457.01 69 c 2
 314.51 286.5 l 1
 276.875 236.32 185.157 112.041 163.511 74.5 c 0
 160.482 68.7915 157.01 62.2891 157.01 58 c 0
 157.01 43 193.01 29.5 236.01 29.5 c 1
 240.51 23 241.01 3.5 238.51 -3.5 c 1
 203.51 -1.5 153.01 2 116.01 2 c 0
 64.0098 2 30.5098 -1.5 -9.49025 -3.5 c 1
 -13.4902 2.5 -11.9902 24.5 -8.49023 29.5 c 1
 -0.490234 29.5 66.5098 32.5 96.5098 72.5 c 1
 134.51 121 250.51 279 286.51 327 c 1
 267.01 357 146.01 542.5 146.01 542.5 c 2
 125.51 574 107.01 600.5 86.0098 613.5 c 0
 70.5098 623.5 36.0098 629 24.0098 629 c 1
 19.0098 629 19.0098 657 24.0098 662 c 1
 73.0098 660 115.51 656.5 164.51 656.5 c 0
EndSplineSet
EndChar

StartChar: Y
Encoding: 89 89 57
Width: 603
Flags: HW
LayerCount: 2
Fore
SplineSet
243.568 130.5 m 2
 243.568 275.5 l 0
 243.568 282.5 241.667 290.586 237.245 299.5 c 0
 195.693 379.345 133.068 489.5 103.568 542.5 c 1
 85.5678 575 75.0678 586.5 55.0678 604.5 c 0
 39.0678 622 5.56785 628.5 -6.93213 629 c 1
 -11.9321 632.5 -11.4321 656.5 -6.93213 662 c 1
 37.0678 659 81.568 656 127.068 656 c 0
 172.568 656 222.068 659 261.568 662 c 1
 264.568 656 265.568 632.5 260.568 629 c 1
 247.068 628.5 200.068 625 200.068 599.5 c 0
 200.068 593.5 203.693 586.5 209.568 576.5 c 2
 338.193 348 l 1
 365.193 389.5 439.568 529.5 467.068 585 c 0
 469.568 590.5 471.068 597.5 471.068 604 c 0
 471.068 616 432.068 628 397.568 628.5 c 1
 393.568 632 393.568 657 396.568 661.5 c 1
 438.568 658.5 463.068 655.5 504.568 655.5 c 0
 552.568 655.5 575.068 659.5 615.568 661.5 c 1
 618.693 655.5 618.568 632 614.568 628.5 c 1
 604.068 628 552.568 627.5 533.568 596 c 0
 504.749 547.771 398.558 369.009 362.745 299.5 c 0
 358.15 290.452 357.568 282 357.568 274.5 c 0
 357.568 244.5 357.068 130.5 357.068 130.5 c 2
 356.875 94 357.068 64.5 363.568 46.5 c 0
 367.568 34.5 417.568 30 430.068 29.5 c 1
 434.568 23.5 434.568 2 430.068 -3.5 c 1
 390.068 -0.5 340.568 2.5 300.068 2.5 c 0
 259.568 2.5 210.568 -0.5 170.568 -3.5 c 1
 166.068 2 166.068 23.5 170.568 29.5 c 1
 183.068 30 233.068 34.5 237.068 46.5 c 0
 243.568 64.5 243.375 94 243.568 130.5 c 2
EndSplineSet
EndChar

StartChar: Z
Encoding: 90 90 58
Width: 630
Flags: HW
LayerCount: 2
Fore
SplineSet
219.92 617 m 2
 133 617 101.92 555 79.4199 483 c 1
 77.9199 480 74.9199 478 67.4199 478 c 0
 57.4199 478 42.9199 481.5 39.9199 484.5 c 1
 53.9199 536.5 66.4199 599.5 74.4199 665.5 c 1
 92.9199 662 160.42 658 180.92 658 c 1
 225.42 658 347.92 658.5 347.92 658.5 c 2
 431.92 659 484.92 662.5 568.92 668.5 c 1
 572.92 667.5 582.92 650 582.92 641 c 1
 580.92 633 177 42 177 42 c 17
 184.5 42 415.42 42 415.42 42 c 2
 455.828 42 487.489 55.6131 509.5 77.7904 c 0
 534.324 102.84 548.441 134.081 562.42 171 c 0
 563.42 174 570.42 175.5 576.42 175.5 c 0
 586.42 175.5 599.92 171.5 603.42 168 c 1
 583.42 102 563 47.5 552.5 0.5 c 1
 531.5 0.5 141.42 0 44.9199 0 c 1
 32.9199 0 19.5 13 22.9199 18 c 2
 433.42 617 l 1
 219.92 617 l 2
EndSplineSet
EndChar

StartChar: bracketleft
Encoding: 91 91 59
Width: 280
Flags: HW
LayerCount: 2
Fore
SplineSet
93 744 m 0
 185.5 744 254 751.5 272 755 c 1
 273 755 276.5 752 276.5 746 c 0
 276.5 736.5 270.5 726.5 266.5 725 c 0
 232.5 711 165 703 151.5 700 c 1
 151.5 -86 l 1
 165 -89 232.5 -97 266.5 -111 c 0
 270.5 -112.5 276.5 -122.5 276.5 -132 c 0
 276.5 -138 273 -141 272 -141 c 1
 254 -137.5 185.5 -130 93 -130 c 0
 77.5 -129.5 74 -113 74 -107 c 1
 74 721 l 1
 74 727 77.5 743.5 93 744 c 0
EndSplineSet
EndChar

StartChar: backslash
Encoding: 92 92 60
Width: 414
Flags: HW
LayerCount: 2
Fore
SplineSet
31.5 752.5 m 1
 35 757.5 43.5 759 51 759 c 0
 68.5 759 81 751 84 743 c 2
 84 743 382 -15.5 382 -21.5 c 1
 381 -25.5 369.5 -32 356.5 -32 c 0
 349 -32 335.5 -26.5 331 -16 c 0
 217 276 121 525 31.5 752.5 c 1
EndSplineSet
EndChar

StartChar: bracketright
Encoding: 93 93 61
Width: 280
Flags: HW
LayerCount: 2
Fore
SplineSet
185 744 m 0
 200.5 743.5 204 727 204 721 c 1
 204 -107 l 1
 204 -113 200.5 -129.5 185 -130 c 0
 92.5 -130 24 -137.5 6 -141 c 1
 5 -141 1.5 -138 1.5 -132 c 0
 1.5 -122.5 7.5 -112.5 11.5 -111 c 0
 45.5 -97 113 -89 126.5 -86 c 1
 126.5 700 l 1
 113 703 45.5 711 11.5 725 c 0
 7.5 726.5 1.5 736.5 1.5 746 c 0
 1.5 752 5 755 6 755 c 1
 24 751.5 92.5 744 185 744 c 0
EndSplineSet
EndChar

StartChar: asciicircum
Encoding: 94 94 62
Width: 390
Flags: HW
LayerCount: 2
Fore
SplineSet
186 657 m 0
 191.5 657 199.5 652 204 643.5 c 0
 249.5 559.5 273.5 517.5 322 438 c 1
 322 427.5 312 421 305 421 c 1
 253 472 186 554 186 554 c 25
 186 554 119.5 472 67.5 421 c 1
 60.5 421 49.5 427.5 49.5 438 c 1
 98 517.5 123.5 559.5 169 643.5 c 0
 173.5 652 180.5 657 186 657 c 0
EndSplineSet
EndChar

StartChar: underscore
Encoding: 95 95 63
Width: 498
Flags: HW
LayerCount: 2
Fore
SplineSet
10 -33 m 1
 10 -33 15 13 25 13 c 2
 474 13 l 2
 476 13 478 12 478 8 c 0
 478 -1 474 -15 468 -37 c 0
 466 -43 462 -43 462 -43 c 1
 17 -43 l 1
 17 -43 10 -43 10 -33 c 1
EndSplineSet
EndChar

StartChar: grave
Encoding: 96 96 64
Width: 295
Flags: HW
LayerCount: 2
Fore
SplineSet
75.5 660.5 m 0
 75.5 667 84 687 119 687 c 0
 133 687 148 683 153 678 c 0
 190 635 246 545 246 540 c 0
 246 534 238.5 524.5 231.5 524.5 c 0
 221.5 524.5 75.5 621.5 75.5 660.5 c 0
EndSplineSet
EndChar

StartChar: a
Encoding: 97 97 65
Width: 446
Flags: W
HStem: -8 62<119 216.205 325.5 406> 404.5 38<158.645 276>
VStem: 30.5 109<71.1359 169.361> 44 94.5<293.729 362.551> 267.5 103<65.8703 223 257.257 374.206>
LayerCount: 2
Fore
SplineSet
203.5 54 m 4xe8
 233.5 54 267.5 77 267.5 85 c 6
 267.5 223 l 5
 244 214 207 202.5 188 192.5 c 4
 156 176.5 139 150 139.5 120 c 4
 140 80 171.5 54 203.5 54 c 4xe8
241 442.5 m 4
 311 442.5 370.5 381 370.5 297.5 c 6
 370.5 101 l 6
 370.5 74 380 57 398 57 c 4
 414 57 425.5 66.5 429 68.5 c 5
 432.5 67.5 434.5 60.5 434.5 56 c 5
 434.5 49.5 433 44 430 39 c 5
 417 27 372.5 -6 341 -6 c 4
 310 -6 280 24 272.5 51.5 c 5
 262 41.5 190 -8 154.5 -8 c 4
 83.5 -8 30.5 48.5 30.5 110.5 c 4xe8
 30.5 150.5 57.5 182.5 81.5 190.5 c 4
 128.5 206.5 221.5 241 261.5 257 c 5
 266.5 262.5 267.5 267.5 267.5 280 c 6
 267.5 306.5 l 6
 267.5 354 237 404.5 195 404.5 c 4
 158.5 404.5 147 373.5 138.5 331.5 c 4
 133 303 117 285.5 87 285.5 c 4
 63 285.5 44 306.5 44 330.5 c 4xd8
 44 339 48.5 353.5 54.5 363 c 5
 76.5 384 160.5 442.5 241 442.5 c 4
EndSplineSet
EndChar

StartChar: b
Encoding: 98 98 66
Width: 515
Flags: HW
LayerCount: 2
Fore
SplineSet
224.389 -7.5 m 0
 190.889 -7.5 147.889 8.5 124.39 11.5 c 0
 104.389 14.5 88.3891 16.5 73.3891 11 c 1
 69.3891 11 54.8892 28.5 54.8892 34.5 c 1
 62.8892 53.5 66.8891 88 66.8891 131 c 2
 66.8891 558 l 2
 66.8891 573 66.8891 593.5 60.8892 608 c 0
 55.3892 621 20.3891 626 0.38916 626 c 1
 -2.11084 626 -3.61084 652.5 0.88916 655 c 1
 81.8893 662.5 145.889 685 168.389 694.5 c 1
 173.889 694 180.889 684 181.389 678 c 1
 181.389 678 170.389 639.5 170.389 584 c 2
 170.389 404.5 l 2
 170.389 399.5 170.389 388 176.389 393 c 0
 191.389 404.5 250.389 443.5 286.389 443.5 c 0
 404.389 443.5 481.889 341.5 481.889 234.5 c 0
 481.889 89 360.389 -7.5 224.389 -7.5 c 0
237.389 377 m 0
 210.389 377 183.389 362 174.389 352.5 c 0
 171.389 349.5 170.389 346.5 170.389 342.5 c 2
 170.389 98 l 2
 170.389 59.5 206.889 31.5 249.889 31.5 c 0
 317.889 31.5 367.889 117.5 367.889 195 c 0
 367.889 321.5 312.889 377 237.389 377 c 0
EndSplineSet
EndChar

StartChar: c
Encoding: 99 99 67
Width: 430
Flags: HW
LayerCount: 2
Fore
SplineSet
394.5 384 m 0
 394.5 351.5 373 329 346.5 329 c 1
 322 329 304 355.5 287.5 370 c 0
 268.5 386.5 250.5 395 225 395 c 0
 176.5 395 134 325.5 134 242.5 c 0
 134 114 210 66.5 287 66.5 c 0
 343.5 66.5 379 98 396 117 c 1
 400 116 406 108 406 101 c 1
 406 95 404 86.5 401.5 82.5 c 0
 383.5 54 324.5 -8.5 238 -8.5 c 0
 121.5 -8.5 32 79.5 32 197 c 0
 32 331 163 443 284 443 c 0
 329 443 362 433.5 379.5 422 c 1
 386 415 394.5 402 394.5 384 c 0
EndSplineSet
EndChar

StartChar: d
Encoding: 100 100 68
Width: 526
Flags: HW
LayerCount: 2
Fore
SplineSet
282.5 442 m 0
 303.5 442 328 438.5 337 436 c 1
 341 436 342 448 342 458 c 1
 342 470.5 342 541.5 342 558 c 1
 342 574.5 342 593.5 336 608 c 0
 330.5 621 295.5 626 275.5 626 c 1
 273 626 271.5 652.5 276 655 c 1
 357 662.5 421 685 443.5 694.5 c 1
 449 694 456 684 456.5 678 c 1
 456.5 678 445.5 639.5 445.5 584 c 2
 445.5 135.5 l 2
 445.5 108.5 446 79.5 453.5 67.5 c 0
 462 53.5 499.5 54 505.5 53.5 c 1
 507.5 52 508.5 46 508.5 41 c 0
 508.5 37 506 27 501.5 24 c 1
 446 19.5 357.5 -7.5 350.5 -7.5 c 0
 345.5 -7.5 342 3 342 14 c 2
 342 39.5 l 2
 342 43 341.5 47 339 45 c 0
 323.5 31.5 261.5 -8 211 -8 c 0
 117.5 -8 32.5 83 32.5 203 c 0
 32.5 353.5 192 442 282.5 442 c 0
250 395.5 m 0
 180 395.5 145.5 318.5 145.5 236.5 c 0
 145.5 134.5 190 55 266.5 55 c 0
 303 55 342 79 342 93.5 c 2
 342 348.5 l 2
 342 369 299 395.5 250 395.5 c 0
EndSplineSet
EndChar

StartChar: e
Encoding: 101 101 69
Width: 441
Flags: HW
LayerCount: 2
Fore
SplineSet
136 283.5 m 1
 145 283 265 286 282 287.5 c 0
 294 288 299.5 295 300 307 c 1
 300.5 342 281.5 404 228.5 404 c 1
 157 404 135 300.5 136 283.5 c 1
133 245 m 1
 131.5 111 218 65.5 284.5 65.5 c 0
 341 65.5 378.5 98 395.5 117 c 1
 399.5 116 405.5 108 405.5 101 c 1
 405.5 95 403.5 86.5 401 82.5 c 0
 383 54 324 -8.5 237.5 -8.5 c 0
 122.5 -8.5 32.5 75.5 32.5 200 c 0
 32.5 330 140.5 442.5 242 442.5 c 0
 367.5 442.5 404.5 348 404.5 299 c 0
 404.5 273.5 396 255.5 379 254.5 c 0
 329.5 250.5 176 246 133 245 c 1
EndSplineSet
EndChar

StartChar: f
Encoding: 102 102 70
Width: 325
Flags: HW
LayerCount: 2
Fore
SplineSet
284.193 697.5 m 0
 315.193 697.5 325.193 693.5 339.693 686.5 c 1
 350.193 680 364.193 666.5 364.193 649.5 c 1
 364.193 615 341.693 595 318.693 595 c 1
 298.693 595 286.193 609 271.193 619.5 c 0
 260.193 627 251.193 631.5 236.693 631.5 c 0
 213.193 631.5 193.693 598 194.193 543.5 c 1
 194.193 520.5 195.193 445.5 196.193 430 c 1
 199.693 430 297.193 430 313.693 430 c 1
 318.193 430 319.193 423.5 319.193 418 c 0
 319.193 409 310.193 394 300.693 386 c 1
 285.693 386 214.193 386 197.693 386 c 1
 197.693 341 197.693 130.5 197.693 130.5 c 2
 197.693 94 197.693 64.5 204.193 46.5 c 0
 208.193 34.5 257.193 30 269.693 29.5 c 1
 274.193 23.5 274.193 2 269.693 -3.5 c 1
 229.693 -0.5 186.193 2.5 145.693 2.5 c 0
 105.193 2.5 64.1928 -0.5 24.1929 -3.5 c 1
 19.6929 2 19.6929 23.5 24.1929 29.5 c 1
 36.6928 30 83.6928 34.5 87.6928 46.5 c 0
 94.1928 64.5 94.1928 94 94.1928 130.5 c 2
 94.1928 130.5 94.1928 341.5 94.1928 386 c 1
 80.6928 386 42.6928 386 29.6929 386 c 1
 25.6929 387 24.6929 393.5 24.6929 397 c 1
 29.6929 406 47.1928 424.5 53.6928 430 c 1
 68.1928 430 83.6928 430 94.1928 430 c 1
 94.1928 435.5 94.1928 440.5 94.1928 440.5 c 2
 94.1928 581.5 216.193 697.5 284.193 697.5 c 0
EndSplineSet
EndChar

StartChar: g
Encoding: 103 103 71
Width: 466
Flags: HW
LayerCount: 2
Fore
SplineSet
212 407.5 m 1
 157.5 407.5 140.5 350.5 140.5 299.5 c 1
 140.5 241 167.5 176 224 176 c 1
 277.5 176 292 233.5 292 283 c 1
 292 341.5 269 407.5 212 407.5 c 1
254.5 -9 m 0
 227 -9 166 -9.5 153 -11.5 c 1
 138 -22 115 -42.5 115 -67 c 0
 115 -132.5 164.5 -175 242 -175 c 0
 324.5 -175 376.5 -124 376.5 -80 c 0
 376.5 -44.5 334 -9 254.5 -9 c 0
310.5 81.5 m 0
 396 79 454.5 19 454.5 -26 c 0
 454.5 -127.5 328 -222 190.5 -222.5 c 0
 101 -223 20.5 -179 20.5 -104 c 0
 20.5 -62 80.5 -21 116 -3.5 c 1
 81.5 6.5 45 46 45 92 c 1
 53.5 111 101.5 146.5 129.5 162.5 c 1
 76.5 187.5 41.5 238 41.5 291 c 0
 41.5 372 117.5 441 216.5 441 c 0
 260.5 441 292.5 430.5 315.5 417.5 c 0
 326.5 412.5 324.5 413.5 330 412.5 c 1
 446 426 l 1
 451 424.5 456.5 420.5 456.5 415.5 c 0
 456.5 408 442.5 376.5 432.5 370 c 1
 409 371.5 384.5 373.5 371.5 375 c 1
 369 375 366.5 374 366.5 372 c 1
 377 358.5 391 328.5 391 291.5 c 0
 391 215 315.5 142.5 216 142.5 c 0
 198.5 142.5 175 146 162 149.5 c 1
 147.5 140 131.5 125 131.5 112 c 0
 131.5 99.5 153.5 82 185.5 82 c 0
 237.5 82 271 82.5 310.5 81.5 c 0
EndSplineSet
EndChar

StartChar: h
Encoding: 104 104 72
Width: 544
Flags: HW
LayerCount: 2
Fore
SplineSet
334.386 442 m 0
 445.386 442 466.886 369.5 466.886 218 c 2
 466.886 130.5 l 2
 466.886 94 466.886 64.5 473.386 46.5 c 0
 477.386 34.5 524.386 30 536.886 29.5 c 1
 541.386 23.5 541.386 2 536.886 -3.5 c 1
 496.886 -0.5 455.386 2.5 414.886 2.5 c 0
 374.386 2.5 339.386 -0.5 299.386 -3.5 c 1
 294.886 2 294.886 23.5 299.386 29.5 c 1
 311.886 30 352.886 34.5 356.886 46.5 c 0
 363.386 64.5 363.386 94 363.386 130.5 c 2
 363.386 220 l 2
 363.386 318 346.386 372.5 280.886 372.5 c 0
 242.386 372.5 189.386 331.5 189.386 317 c 2
 189.386 130.5 l 2
 189.386 97 189.386 64.5 195.886 46.5 c 0
 199.886 34.5 243.386 30 255.886 29.5 c 1
 260.386 23.5 260.386 2 255.886 -3.5 c 1
 215.886 -0.5 177.886 2.5 137.386 2.5 c 0
 96.8858 2.5 55.8857 -0.5 15.8857 -3.5 c 1
 11.3857 2 11.3857 23.5 15.8857 29.5 c 1
 28.3857 30 75.3857 34.5 79.3857 46.5 c 0
 85.8857 64.5 85.8857 94 85.8857 130.5 c 2
 85.8857 558 l 2
 85.8857 573 85.8857 593.5 79.8857 608 c 0
 74.3857 621 39.3857 626 19.3857 626 c 1
 16.8857 626 15.3857 652.5 19.8857 655 c 1
 100.886 662.5 164.886 685 187.386 694.5 c 1
 192.886 694 199.886 684 200.386 678 c 1
 200.386 678 189.386 631 189.386 583.5 c 1
 189.386 583.5 189.386 372.5 189.386 368.5 c 0
 189.386 366.5 189.886 365 191.386 364.5 c 1
 192.886 364.5 194.886 366.5 196.386 368 c 0
 220.386 395 287.386 442 334.386 442 c 0
EndSplineSet
EndChar

StartChar: i
Encoding: 105 105 73
Width: 287
Flags: HW
LayerCount: 2
Fore
SplineSet
203.348 317 m 5
 203.348 130.5 l 6
 203.348 97 203.348 64.5 209.848 46.5 c 4
 213.848 34.5 257.348 30 269.848 29.5 c 5
 274.348 23.5 274.348 2 269.848 -3.5 c 5
 229.848 -0.5 191.848 2.5 151.348 2.5 c 4
 110.848 2.5 69.8476 -0.5 29.8477 -3.5 c 5
 25.3477 2 25.3477 23.5 29.8477 29.5 c 5
 42.3476 30 89.3476 34.5 93.3476 46.5 c 4
 99.8478 64.5 99.8478 94 99.8478 130.5 c 6
 99.8478 279 l 6
 99.8478 290.5 99.3478 332.5 92.8476 346 c 4
 85.3476 362 35.8476 365 28.8477 365 c 5
 26.3477 367 24.8477 391 29.3477 393.5 c 5
 92.8478 400 159.348 421 198.348 441 c 5
 204.348 440 212.348 428.5 212.348 424.5 c 5
 210.348 417 204.348 377 203.848 365 c 5
 203.348 354 203.348 320 203.348 317 c 5
81.8476 604.5 m 4
 81.8476 638.5 108.848 665.5 142.848 665.5 c 4
 176.848 665.5 204.348 638.5 204.348 604.5 c 4
 204.348 570.5 176.848 543.5 142.848 543.5 c 4
 108.848 543.5 81.8476 570.5 81.8476 604.5 c 4
EndSplineSet
EndChar

StartChar: j
Encoding: 106 106 74
Width: 257
Flags: HW
LayerCount: 2
Fore
SplineSet
87.375 54.5 m 2
 87.375 279 l 2
 87.375 290.5 86.875 332.5 80.375 346 c 0
 72.875 362 23.375 365 16.375 365 c 1
 13.875 367 12.375 391 16.875 393.5 c 1
 80.375 400 146.875 421 185.875 441 c 1
 191.875 440 199.875 428.5 199.875 424.5 c 1
 197.875 417 191.875 378.5 191.375 365 c 1
 190.875 354 190.875 319.5 190.875 316.5 c 1
 190.875 94 l 1
 190.875 -44 132.875 -125.5 80.375 -166.5 c 1
 54.375 -199 7.375 -219.5 -10.625 -217 c 1
 -14.625 -214 -18.125 -208.5 -17.625 -205 c 1
 10.875 -183.5 -18.125 -202.5 -17.125 -201.5 c 1
 13.375 -180 87.375 -131.5 87.375 54.5 c 2
65.875 604.5 m 0
 65.875 639 93.375 666.5 127.875 666.5 c 0
 162.375 666.5 189.875 639 189.875 604.5 c 0
 189.875 570 162.375 542.5 127.875 542.5 c 0
 93.375 542.5 65.875 570 65.875 604.5 c 0
EndSplineSet
EndChar

StartChar: k
Encoding: 107 107 75
Width: 549
Flags: HW
LayerCount: 2
Fore
SplineSet
189.386 130.5 m 6
 189.386 94 189.386 64.5 195.886 46.5 c 4
 199.886 34.5 246.886 30 259.386 29.5 c 5
 263.886 23.5 263.886 2 259.386 -3.5 c 5
 219.386 -0.5 177.886 2.5 137.386 2.5 c 4
 96.8858 2.5 55.8857 -0.5 15.8857 -3.5 c 5
 11.3857 2 11.3857 23.5 15.8857 29.5 c 5
 28.3857 30 75.3857 34.5 79.3857 46.5 c 4
 85.8857 64.5 85.8857 94 85.8857 130.5 c 6
 85.8857 558 l 6
 85.8857 573.5 85.8857 593.5 79.8857 608 c 4
 74.3857 621 39.3857 626 19.3857 626 c 5
 16.8857 626 15.3857 652.5 19.8857 655 c 5
 100.886 662.5 164.886 685 187.386 694.5 c 5
 192.886 694 199.886 684 200.386 678 c 5
 200.386 678 189.386 631 189.386 583.5 c 5
 188.886 235.5 l 5
 205.886 241.5 232.886 262 267.386 291.5 c 4
 328.386 343.5 357.386 368.5 357.386 381 c 4
 357.386 394.5 314.886 399.5 301.386 400.5 c 5
 297.386 408.5 298.386 430 303.386 432 c 5
 317.886 430.5 379.886 427.5 416.886 427.5 c 4
 451.886 427.5 482.886 430 516.386 432.5 c 5
 521.386 424.5 519.386 404 514.886 400.5 c 5
 492.386 399 450.386 390 426.886 373.5 c 4
 410.886 362 339.886 304.5 279.886 252.5 c 5
 352.886 170.5 400.886 117 440.886 75.5 c 4
 481.386 34.5 517.386 30.5 546.386 31 c 5
 550.386 24 548.886 7.5 546.886 4 c 5
 535.386 -0.5 496.386 -5 463.886 -5 c 4
 405.386 -5 356.386 21 333.886 46.5 c 6
 333.886 46.5 256.386 130 203.386 191.5 c 4
 199.386 197 189.386 202.5 189.386 202.5 c 5
 189.386 130.5 l 6
EndSplineSet
EndChar

StartChar: l
Encoding: 108 108 76
Width: 275
Flags: W
HStem: -3.5 33<13.3545 79.167 196.105 261.917> 626 29<17.4244 77.0655> 674.5 20G<176.136 190.136>
VStem: 85.8857 103.5<36.9863 618.305>
LayerCount: 2
Fore
SplineSet
85.8857 558 m 2
 85.8857 573.5 85.8857 593.5 79.8857 608 c 0
 74.3857 621 39.3857 626 19.3857 626 c 1
 16.8857 626 15.3857 652.5 19.8857 655 c 1
 100.886 662.5 164.886 685 187.386 694.5 c 1
 192.886 694 199.886 684 200.386 678 c 1
 200.386 678 189.386 631 189.386 583.5 c 1
 189.386 499.5 189.386 130.5 189.386 130.5 c 2
 189.386 94 189.386 64.5 195.886 46.5 c 0
 199.886 34.5 246.886 30 259.386 29.5 c 1
 263.886 23.5 263.886 2 259.386 -3.5 c 1
 219.386 -0.5 177.886 2.5 137.386 2.5 c 0
 96.8858 2.5 55.8857 -0.5 15.8857 -3.5 c 1
 11.3857 2 11.3857 23.5 15.8857 29.5 c 1
 28.3857 30 75.3857 34.5 79.3857 46.5 c 0
 85.8857 64.5 85.8857 94 85.8857 130.5 c 2
 85.8857 558 l 2
EndSplineSet
EndChar

StartChar: m
Encoding: 109 109 77
Width: 831
Flags: HW
LayerCount: 2
Fore
SplineSet
346.848 442 m 0
 408.348 442 445.348 419.5 465.348 357.5 c 1
 509.155 399 573.848 442 620.848 442 c 0
 731.848 442 753.348 369.5 753.348 218 c 2
 753.348 130.5 l 2
 753.348 94 753.348 64.5 759.848 46.5 c 0
 763.848 34.5 810.848 30 823.348 29.5 c 1
 827.848 23.5 827.848 2 823.348 -3.5 c 1
 783.348 -0.5 741.848 2.5 701.348 2.5 c 0
 660.848 2.5 625.848 -0.5 585.848 -3.5 c 1
 581.348 2 581.348 23.5 585.848 29.5 c 1
 598.348 30 639.348 34.5 643.348 46.5 c 0
 649.848 64.5 649.848 94 649.848 130.5 c 2
 649.848 223.5 l 2
 649.848 309 636.348 372.5 569.348 372.5 c 0
 524.848 372.5 473.348 330 473.348 316.5 c 0
 473.348 315 473.848 309 473.848 307 c 0
 476.348 283.5 477.848 251 477.848 224.5 c 2
 477.848 130.5 l 2
 477.848 94 477.848 64.5 484.348 46.5 c 0
 488.348 34.5 534.348 30 546.848 29.5 c 1
 551.348 23.5 551.348 2 546.848 -3.5 c 1
 506.848 -0.5 466.348 2.5 425.848 2.5 c 0
 385.348 2.5 349.348 -0.5 309.348 -3.5 c 1
 304.848 2 304.848 23.5 309.348 29.5 c 1
 321.848 30 363.848 34.5 367.848 46.5 c 0
 374.348 64.5 374.348 94 374.348 130.5 c 2
 374.348 221 l 2
 374.348 318 356.348 372.5 293.848 372.5 c 0
 251.348 372.5 203.348 333.5 203.348 317 c 2
 203.348 130.5 l 2
 203.348 97 203.348 64.5 209.848 46.5 c 0
 213.848 34.5 257.348 30 269.848 29.5 c 1
 274.348 23.5 274.348 2 269.848 -3.5 c 1
 229.848 -0.5 191.848 2.5 151.348 2.5 c 0
 110.848 2.5 69.8476 -0.5 29.8477 -3.5 c 1
 25.3477 2 25.3477 23.5 29.8477 29.5 c 1
 42.3476 30 89.3476 34.5 93.3476 46.5 c 0
 99.8478 64.5 99.8478 94 99.8478 130.5 c 2
 99.8478 279 l 2
 99.8478 290.5 99.3478 332.5 92.8476 346 c 0
 85.3476 362 35.8476 365 28.8477 365 c 1
 26.3477 367 24.8477 391 29.3477 393.5 c 1
 92.8478 400 159.348 421 198.348 441 c 1
 204.348 440 212.348 428.5 212.348 424.5 c 1
 210.348 417 203.848 376.5 204.348 372 c 0
 204.348 370 204.348 367.5 205.848 367 c 1
 207.348 367 209.348 369 210.848 370.5 c 0
 237.348 397 296.848 442 346.848 442 c 0
EndSplineSet
EndChar

StartChar: n
Encoding: 110 110 78
Width: 559
Flags: HW
LayerCount: 2
Fore
SplineSet
348.348 442 m 0
 459.348 442 480.848 369.5 480.848 218 c 2
 480.848 130.5 l 2
 480.848 94 480.848 64.5 487.348 46.5 c 0
 491.348 34.5 538.348 30 550.848 29.5 c 1
 555.348 23.5 555.348 2 550.848 -3.5 c 1
 510.848 -0.5 469.348 2.5 428.848 2.5 c 0
 388.348 2.5 353.348 -0.5 313.348 -3.5 c 1
 308.848 2 308.848 23.5 313.348 29.5 c 1
 325.848 30 366.848 34.5 370.848 46.5 c 0
 377.348 64.5 377.348 94 377.348 130.5 c 2
 377.348 220 l 2
 377.348 318 360.348 372.5 294.848 372.5 c 0
 256.348 372.5 203.348 331.5 203.348 317 c 2
 203.348 130.5 l 2
 203.348 97 203.348 64.5 209.848 46.5 c 0
 213.848 34.5 257.348 30 269.848 29.5 c 1
 274.348 23.5 274.348 2 269.848 -3.5 c 1
 229.848 -0.5 191.848 2.5 151.348 2.5 c 0
 110.848 2.5 69.8476 -0.5 29.8477 -3.5 c 1
 25.3477 2 25.3477 23.5 29.8477 29.5 c 1
 42.3476 30 89.3476 34.5 93.3476 46.5 c 0
 99.8478 64.5 99.8478 94 99.8478 130.5 c 2
 99.8478 279 l 2
 99.8478 290.5 99.3478 332.5 92.8476 346 c 0
 85.3476 362 35.8476 365 28.8477 365 c 1
 26.3477 367 24.8477 391 29.3477 393.5 c 1
 92.8478 400 159.348 421 198.348 441 c 1
 203.848 441 212.348 429.5 212.348 424.5 c 1
 210.848 417 204.348 374 204.348 369.5 c 0
 204.348 367.5 204.348 365 205.848 364.5 c 1
 207.348 364.5 209.348 366.5 210.848 368 c 0
 234.848 395 301.348 442 348.348 442 c 0
EndSplineSet
EndChar

StartChar: o
Encoding: 111 111 79
Width: 517
Flags: W
HStem: -7 37.5<216.916 320.15> 406 37<194.463 294.506>
VStem: 33.5 114<117.442 314.007> 367 114<122.712 319.367>
LayerCount: 2
Fore
SplineSet
245.5 406 m 1
 166.5 406 147.5 314.5 147.5 235 c 1
 147.5 142.5 187 30.5 268.5 30.5 c 1
 347.5 30.5 367 121.5 367 200 c 1
 367 293 326.5 406 245.5 406 c 1
256.5 443 m 0
 391.5 443 481 349 481 223 c 0
 481 95.5 385 -7 258.5 -7 c 0
 123 -7 33.5 89.5 33.5 215 c 0
 33.5 342.5 130.5 443 256.5 443 c 0
EndSplineSet
EndChar

StartChar: p
Encoding: 112 112 80
Width: 527
Flags: HW
LayerCount: 2
Fore
SplineSet
304.848 443 m 0
 427.348 443 493.348 331.5 493.348 233 c 0
 493.348 92 365.348 -8 253.848 -8 c 0
 226.848 -8 199.848 -0.5 189.848 2 c 1
 188.348 2 186.348 -2.5 186.348 -12.5 c 2
 186.348 -88 l 2
 186.348 -124.5 186.348 -154 192.848 -172 c 0
 196.848 -184 243.848 -188.5 256.348 -189 c 1
 260.848 -195 260.848 -216.5 256.348 -222 c 1
 216.348 -219 174.848 -216 134.348 -216 c 0
 93.8478 -216 52.8476 -219 12.8477 -222 c 1
 8.34767 -216.5 8.34767 -195 12.8477 -189 c 1
 25.3477 -188.5 72.3476 -184 76.3476 -172 c 0
 82.8476 -154 82.8476 -124.5 82.8476 -88 c 2
 82.8476 279 l 2
 82.8476 290.5 82.3476 332.5 75.8476 346 c 0
 68.3476 362 18.8477 365 11.8477 365 c 1
 9.34767 367 7.84766 391 12.3477 393.5 c 1
 75.8476 400 142.348 421 181.348 441 c 1
 187.348 440 195.348 428.5 195.348 424.5 c 1
 193.848 418 187.348 401 187.348 389 c 0
 187.348 385.5 188.348 383 190.348 384 c 0
 205.848 400 269.348 443 304.848 443 c 0
255.848 377 m 0
 216.848 377 186.348 353 186.348 343.5 c 2
 186.348 98 l 2
 186.348 52 231.848 31.5 266.848 31.5 c 0
 324.848 31.5 379.348 98.5 379.348 197 c 0
 379.348 308 334.348 377 255.848 377 c 0
EndSplineSet
EndChar

StartChar: q
Encoding: 113 113 81
Width: 511
Flags: HW
LayerCount: 2
Fore
SplineSet
256 398 m 0
 174 398 145.5 305 145.5 239 c 0
 145.5 138.5 189.5 54.5 269.5 54.5 c 0
 307.5 54.5 339.5 77 339.5 86.5 c 2
 339.5 338 l 2
 339.5 364.5 304 398 256 398 c 0
290 442 m 0
 324 442 377 418 408.5 418 c 0
 422 418 430.5 421 436.5 423 c 1
 442.5 422 455 405.5 455 399.5 c 1
 448 383.5 443 350 443 305.5 c 2
 443 -88.5 l 2
 443 -125 443 -154.5 449.5 -172.5 c 0
 453.5 -184.5 500.5 -189 513 -189.5 c 1
 517.5 -195.5 517.5 -217 513 -222.5 c 1
 473 -219.5 431.5 -216.5 391 -216.5 c 0
 350.5 -216.5 309.5 -219.5 269.5 -222.5 c 1
 265 -217 265 -195.5 269.5 -189.5 c 1
 282 -189 329 -184.5 333 -172.5 c 0
 339.5 -154.5 339.5 -125 339.5 -88.5 c 2
 339.5 28.5 l 2
 339.5 34 338.5 44.5 333 40 c 0
 318 28 258.5 -7.5 213.5 -7.5 c 0
 105.5 -7.5 32.5 97 32.5 195.5 c 0
 32.5 342.5 173 442 290 442 c 0
EndSplineSet
EndChar

StartChar: r
Encoding: 114 114 82
Width: 410
Flags: HW
LayerCount: 2
Fore
SplineSet
330.348 442 m 1
 356.155 442 381.348 433 392.348 419 c 1
 395.348 413 399.848 397 399.848 381 c 0
 399.848 345.5 375.348 315.5 353.348 315.5 c 1
 337.348 315.5 324.848 329 313.348 337.5 c 0
 303.348 345.5 294.348 354 276.848 354 c 1
 234.655 354 203.348 290.5 203.348 268.5 c 2
 203.348 130.5 l 2
 203.348 97 203.348 64.5 209.848 46.5 c 0
 213.848 34.5 277.155 30 289.655 29.5 c 1
 294.155 23.5 294.155 2 289.655 -3.5 c 1
 249.655 -0.5 194.848 2.5 154.348 2.5 c 0
 113.848 2.5 69.8476 -0.5 29.8477 -3.5 c 1
 25.3477 2 25.3477 23.5 29.8477 29.5 c 1
 42.3476 30 89.3476 34.5 93.3476 46.5 c 0
 99.8478 64.5 99.8478 94 99.8478 130.5 c 2
 99.8478 279 l 2
 99.8478 290.5 99.3478 332.5 92.8476 346 c 0
 85.3476 362 35.8476 365 28.8477 365 c 1
 26.3477 367 24.8477 391 29.3477 393.5 c 1
 92.8478 400 159.348 421 198.348 441 c 1
 204.348 440 212.348 428.5 212.348 424.5 c 1
 210.348 417 203.848 353.5 203.848 341 c 0
 203.848 336.5 208.053 336.857 208.848 338.5 c 0
 230.693 381.5 276.348 442 330.348 442 c 1
EndSplineSet
EndChar

StartChar: s
Encoding: 115 115 83
Width: 382
Flags: HW
LayerCount: 2
Fore
SplineSet
206 442.5 m 0
 249 442.5 274.5 432.5 313 426.5 c 1
 320.5 394 329 336.5 329.5 310 c 0
 329.5 306 321.5 304 315.5 304 c 0
 309 304 303 306.5 297.5 310.5 c 1
 287.5 351.5 259 407 202.5 407 c 0
 162 407 138.5 384.5 138.5 348.5 c 0
 138.5 296.5 188.5 281.5 233 257 c 0
 281.5 230.5 344.5 202.5 344.5 128.5 c 0
 344.5 38 261.5 -9.5 169 -9.5 c 0
 124 -9.5 86.5 3.5 52 10.5 c 1
 46 32.5 39.5 109 39.5 127.5 c 1
 41.5 132 51 134 56 134 c 0
 61 134 68.5 132 71.5 128 c 1
 84.5 63.5 133 26.5 179.5 26.5 c 0
 217.5 26.5 244 52.5 244 89.5 c 0
 244 145 184 161.5 131.5 191.5 c 0
 82.5 219 40.5 252 40.5 312.5 c 0
 40.5 399.5 129.5 442.5 206 442.5 c 0
EndSplineSet
EndChar

StartChar: t
Encoding: 116 116 84
Width: 322
Flags: W
HStem: -7 59<168.004 262.272> 386 44<18.1292 79.5 183 307.393>
VStem: 79.5 103.5<64.7735 386 430 509.011>
LayerCount: 2
Fore
SplineSet
183 430 m 1
 186.5 430 288 430 304.5 430 c 1
 309 430 310 423.5 310 418 c 0
 310 409 301 394 291.5 386 c 1
 276.5 386 199.5 386 183 386 c 1
 183 131 l 2
 183 78 202.5 52 243 52 c 0
 270 52 297 71.5 302 75.5 c 1
 304 74 307 69 307 65 c 0
 307 59.5 302.5 49.5 301 48 c 0
 289.5 35 247 -7 196.5 -7 c 0
 140 -7 79.5 21 79.5 120 c 2
 79.5 386 l 1
 66 386 28 386 15 386 c 1
 11 387 10 393.5 10 397 c 1
 15 406 32.5 424.5 39 430 c 1
 53.5 430 69 430 79.5 430 c 1
 79.5 435.5 79.5 474 79.5 488 c 1
 108 515 146 557.5 162.5 574.5 c 1
 170.5 580.5 182.5 580 183 575 c 1
 183 548 183 456.5 183 430 c 1
EndSplineSet
EndChar

StartChar: u
Encoding: 117 117 85
Width: 535
Flags: HW
LayerCount: 2
Fore
SplineSet
350.07 288 m 6
 350.07 299.5 349.57 341 341.57 356 c 4
 332.57 372.5 292.07 376 282.07 376 c 5
 279.07 378.5 278.07 402 282.57 404.5 c 5
 346.07 408.5 411.57 426 448.57 441 c 5
 454.57 440 462.57 426.5 462.57 422.5 c 5
 459.07 414.5 454.57 383 454.07 361.5 c 5
 453.57 350.5 453.57 310 453.57 307 c 5
 453.57 124.5 l 6
 453.57 111.5 454.07 86.5 461.57 67.5 c 4
 468.57 53 507.57 54 513.57 53.5 c 5
 515.57 52 516.57 46.5 516.57 41.5 c 4
 516.57 37.5 514.07 27 509.57 24 c 5
 454.07 19.5 365.57 -7.5 358.57 -7.5 c 4
 354.07 -7.5 350.07 1.5 350.07 12.5 c 6
 350.07 43.5 l 6
 350.07 47 349.07 49.5 347.57 48.5 c 5
 325.57 28 266.57 -6 206.07 -6 c 5
 104.569 -6 79.5694 94 79.5694 183 c 6
 79.5694 288 l 6
 79.5694 299.5 79.0694 341 71.0694 356 c 4
 62.0694 372.5 21.5694 376 11.5693 376 c 5
 8.56935 378.5 7.56933 402 12.0693 404.5 c 5
 75.5694 408.5 141.07 426 178.07 441 c 5
 184.07 440 192.07 426.5 192.07 422.5 c 5
 188.57 414.5 184.07 383 183.57 361.5 c 5
 183.07 350.5 183.07 311.5 183.07 308.5 c 5
 183.07 211.5 l 6
 183.07 105.5 206.07 52.5 272.07 52.5 c 4
 308.07 52.5 350.07 79 350.07 98.5 c 6
 350.07 288 l 6
EndSplineSet
EndChar

StartChar: v
Encoding: 118 118 86
Width: 496
Flags: HW
LayerCount: 2
Fore
SplineSet
115.548 430.5 m 0
 155.548 430.5 196.048 434 228.548 436.5 c 1
 232.048 431 231.548 406.5 226.548 403.5 c 1
 217.048 403.5 172.548 397.5 172.548 381.5 c 0
 172.548 379.5 172.548 375.5 174.048 372 c 0
 192.048 337 280.548 138.5 280.548 138.5 c 1
 280.548 138.5 329.048 255.5 364.548 339.5 c 0
 369.548 350.5 373.048 365 373.048 374 c 0
 373.048 396.5 329.548 403.5 308.548 403.5 c 1
 303.548 406 303.548 430.5 308.048 436.5 c 1
 338.548 433.5 361.048 430.5 401.048 430.5 c 0
 441.048 430.5 472.048 434.5 499.548 436.5 c 1
 503.548 431 502.548 407 498.048 403.5 c 1
 488.048 403.5 439.048 398.5 426.048 370 c 1
 396.548 299.5 303.048 96.5 274.048 25.5 c 1
 262.548 2 247.548 -11 238.548 -11 c 0
 235.048 -11 230.048 -7.5 228.048 -5 c 1
 166.548 132 118.049 249 57.0484 374.5 c 1
 45.5484 400 8.04836 403.5 -1.95166 403.5 c 1
 -5.95166 410 -5.95166 428.5 -1.95166 436.5 c 1
 31.5484 434 75.5484 430.5 115.548 430.5 c 0
EndSplineSet
EndChar

StartChar: w
Encoding: 119 119 87
Width: 748
Flags: HW
LayerCount: 2
Fore
SplineSet
111.519 430.5 m 0
 151.518 430.5 195.518 434 228.018 436.5 c 1
 231.518 431 231.518 407.5 227.018 403.5 c 1
 217.018 403.5 172.518 397.5 172.518 378.5 c 0
 172.518 376.265 173.335 370.265 175.953 363.5 c 0
 200.04 312.461 247.975 210.461 276.018 144.5 c 1
 301.518 209 349.518 319 349.518 331 c 0
 349.518 340 341.018 362.5 333.018 375 c 0
 320.018 397.5 289.518 403.5 279.518 403.5 c 1
 273.518 409 274.518 431 279.018 436.5 c 1
 319.518 433 352.018 431 392.018 430.5 c 1
 432.018 430.5 474.518 434 507.018 436.5 c 1
 510.518 431 511.018 408.5 506.518 403.5 c 1
 485.018 403.5 452.018 394.5 452.018 374 c 0
 452.018 371 452.4 366.132 454.185 361 c 0
 474.159 311.688 514.466 220.969 542.018 150 c 1
 561.63 198.636 596.393 285.5 619.702 343 c 0
 623.68 353.685 628.018 365.844 628.018 373.5 c 0
 628.018 400.5 578.018 402.5 562.518 403.5 c 1
 558.018 407.5 557.518 430.5 562.018 436.5 c 1
 597.518 433.5 618.018 430.5 658.018 430.5 c 0
 698.018 430.5 724.018 434.5 751.518 436.5 c 1
 754.018 432.5 755.518 409.5 750.018 403.5 c 1
 740.018 403.5 694.518 400 682.018 370 c 0
 626.518 235.5 594.518 158.5 536.018 25 c 0
 525.518 1.5 508.018 -11 500.518 -11 c 0
 496.018 -11 490.518 -7.5 488.518 -5 c 1
 488.518 -5 394.018 240 377.518 279 c 1
 362.018 240 274.018 26 274.018 26 c 2
 265.018 5 246.518 -11 236.518 -11 c 0
 233.018 -11 228.018 -7.5 226.018 -5 c 1
 160.018 147 123.519 230.5 56.5186 373.5 c 1
 45.0186 399 8.01855 403.5 -1.98144 403.5 c 1
 -6.48144 410.5 -5.48145 430.5 -1.98144 436.5 c 1
 31.5186 434 71.5186 430.5 111.519 430.5 c 0
EndSplineSet
EndChar

StartChar: x
Encoding: 120 120 88
Width: 511
Flags: W
HStem: -3.5 33<5.44726 69.6111 156.81 219.303 268.191 314.912 453.158 507.823> 403.5 33<15.595 73.7631 205.24 251.392 285.495 349.324 423.622 492.182>
LayerCount: 2
Fore
SplineSet
136.213 430.5 m 1
 177.713 430.5 226.193 434 249.713 436.5 c 1
 252.713 432 253.693 409.5 248.713 403.5 c 1
 234.713 403.5 204.713 400 204.713 384 c 0
 204.713 381 208.713 376 212.213 371 c 2
 277.213 277.5 l 1
 305.214 314 351.214 366 351.214 380.5 c 0
 351.214 403 294.693 403 287.714 403.5 c 1
 284.214 406.5 283.714 431 287.214 436.5 c 1
 322.714 433.5 350.214 430.5 390.214 430.5 c 0
 429.214 430.5 476.193 434.5 490.714 436.5 c 1
 493.214 431.5 493.714 407 490.214 403.5 c 1
 471.693 403 430.714 399.5 410.214 376.5 c 0
 374.214 332.5 331.714 276.5 302.714 243 c 1
 335.214 200.5 406.714 98.5 433.714 64 c 1
 453.714 36.5 487.214 29.5 505.714 29.5 c 1
 510.214 25.5 509.214 1.5 505.714 -3.5 c 1
 467.214 0 427.214 2 389.214 2.5 c 1
 346.714 2.5 304.214 -1 270.214 -3.5 c 1
 266.214 2.5 266.714 26.5 270.714 29.5 c 1
 283.714 30 315.714 35 315.714 49.5 c 0
 315.714 52 312.214 56 309.714 59.5 c 2
 309.714 59.5 248.213 145.5 234.713 165.5 c 1
 214.076 139.095 183.064 103.79 161.077 71 c 0
 156.165 63.742 154.213 58.1235 154.213 54 c 0
 154.213 32 201.713 30.5 217.213 29.5 c 1
 220.713 27 221.213 2.5 217.213 -3.5 c 1
 182.713 -0.5 156.213 2.5 117.213 2.5 c 0
 77.2128 2.5 33.2129 -1.5 6.71289 -3.5 c 1
 3.71289 3 3.71289 23.5 7.71287 29.5 c 1
 32.7129 32 73.7128 39 97.2128 66 c 1
 121.713 89.5 182.213 173.5 209.213 202.5 c 1
 179.713 242.5 112.713 342 85.7128 376.5 c 1
 70.0691 397.917 31.7129 403.5 17.7129 403.5 c 1
 13.2129 407.5 14.1929 430.5 17.7129 436.5 c 1
 54.1928 432.5 97.213 431 136.213 430.5 c 1
EndSplineSet
EndChar

StartChar: y
Encoding: 121 121 89
Width: 496
Flags: HW
LayerCount: 2
Fore
SplineSet
116.394 430.5 m 0
 156.393 430.5 208.393 434 229.393 436.5 c 1
 232.893 431 232.393 406.5 227.393 403.5 c 1
 217.893 403.5 173.393 397.5 173.393 381.5 c 0
 173.393 379.5 173.393 375.5 174.893 372 c 0
 192.893 337 279.393 138.5 279.393 138.5 c 1
 279.393 138.5 327.893 255.5 363.393 339.5 c 0
 368.393 350.5 371.893 365 371.893 374 c 0
 371.893 396.5 328.393 403.5 307.393 403.5 c 1
 302.393 406 302.393 430.5 306.893 436.5 c 1
 329.393 433.5 364.393 430.5 404.393 430.5 c 0
 444.393 430.5 480.893 434.5 498.393 436.5 c 1
 502.393 431 501.393 407 496.893 403.5 c 1
 486.893 403.5 437.893 398.5 424.893 370 c 1
 395.393 299.5 328 152.5 267.558 15.5 c 0
 239.66 -47.3225 219 -101 182.5 -151.858 c 0
 148.518 -196.969 107.57 -223 77.8936 -223 c 0
 47.3935 -223 21.3936 -206.5 21.3936 -175 c 1
 21.3936 -157.5 29.8935 -144.5 38.8936 -137 c 1
 101.894 -137 141.893 -122 177.893 -69.5 c 0
 195.393 -44.5 211.393 -4 219.393 16.5 c 1
 170.893 129.5 87.3936 310.5 57.8936 374.5 c 1
 46.3936 400 8.89355 403.5 -1.10645 403.5 c 1
 -5.10644 407.5 -4.10645 432.5 -1.10645 436.5 c 1
 21.3936 434 76.3936 430.5 116.394 430.5 c 0
EndSplineSet
EndChar

StartChar: z
Encoding: 122 122 90
Width: 448
Flags: HW
LayerCount: 2
Fore
SplineSet
146 429.5 m 2
 279 429.5 l 2
 333 429.5 363.5 432.5 404.5 437.5 c 1
 409.5 429.5 407.5 418.5 407.5 413.5 c 1
 407.5 413.5 153.5 42 153.5 40.5 c 1
 156 40.5 280.5 40.5 280.5 40.5 c 2
 341.5 40.5 378 95.5 388 136 c 0
 389 141 394 142.5 398 142.5 c 0
 407.5 142.5 420.5 135 423.5 131.5 c 1
 417 112 388.5 23 381 0 c 1
 352 0 106.5 0 41 0 c 1
 37.5 1 28.5 10 28.5 18.5 c 0
 28.5 21.5 29.5 28 31 30.5 c 2
 271.5 388.5 l 1
 271.5 388.5 165.5 389.5 149.5 389.5 c 1
 95.5 389.5 80.5 334 71 307.5 c 0
 69.5 303.5 58.5 299.5 48.5 299.5 c 0
 42.5 299.5 37 301 37 303 c 1
 40.5 318.5 51 383.5 54 436.5 c 1
 54 436.5 110 429.5 146 429.5 c 2
EndSplineSet
EndChar

StartChar: braceleft
Encoding: 123 123 91
Width: 256
Flags: HW
LayerCount: 2
Fore
SplineSet
102.625 403.5 m 0
 102.625 431.806 91.9464 455.474 82.5977 481 c 0
 73.9088 503.102 66.125 525.866 66.125 553.5 c 0
 66.125 654 166.125 729.5 212.125 740 c 1
 217.625 740 226.625 726 223.625 717.5 c 1
 196.125 703.5 145.125 657 145.125 599 c 0
 145.125 560.358 155.68 539.799 165.424 516 c 0
 174.638 495.09 183.125 471.398 183.125 432 c 0
 183.125 356 115.625 303 84.625 298 c 1
 115.625 293 183.125 240 183.125 164 c 0
 183.125 124.603 174.638 100.91 165.424 80 c 0
 155.68 56.2007 145.125 35.6424 145.125 -3 c 0
 145.125 -61 196.125 -107.5 223.625 -121.5 c 1
 226.625 -130 217.625 -144 212.125 -144 c 1
 166.125 -133.5 66.125 -58 66.125 42.5 c 0
 66.125 73.2907 75.252 97.82 84.746 122 c 0
 93.4929 144.889 102.625 166.977 102.625 192.5 c 0
 102.625 245.5 61.125 275.5 20.625 287 c 1
 18.875 289.25 18 294.375 18 298 c 0
 18 302.125 18.875 306.75 20.625 309 c 1
 61.125 320.5 102.625 350.5 102.625 403.5 c 0
EndSplineSet
EndChar

StartChar: bar
Encoding: 124 124 92
Width: 202
Flags: HW
LayerCount: 2
Fore
SplineSet
124.765 -107 m 2
 124.765 -115 79.7646 -123 77.7646 -123 c 0
 70.7646 -123 72.7646 -119 72.7646 -115 c 2
 72.7646 757 l 1
 72.7646 757 71.7646 763 77.7646 765 c 0
 94.7646 770 112.765 771 115.765 771 c 0
 124.765 771 123.765 765 123.765 765 c 1
 124.765 -107 l 2
EndSplineSet
EndChar

StartChar: braceright
Encoding: 125 125 93
Width: 256
Flags: HW
LayerCount: 2
Fore
SplineSet
42.4409 740 m 1
 88.4409 729.5 188.441 654 188.441 553.5 c 0
 188.441 524.523 180.124 500.969 171.063 478 c 0
 161.924 453.647 151.941 430.622 151.941 403.5 c 0
 151.941 350.5 193.441 320.5 233.941 309 c 1
 235.632 306.848 236.441 302 236.441 298 c 0
 236.441 294.213 235.75 289.348 233.941 287 c 1
 193.441 275.5 151.941 245.5 151.941 192.5 c 0
 151.941 166.575 161.277 144.245 170.133 121 c 0
 179.527 97.13 188.441 72.8353 188.441 42.5 c 0
 188.441 -58 88.4409 -133.5 42.4409 -144 c 1
 36.9409 -144 27.9409 -130 30.9409 -121.5 c 1
 58.4409 -107.5 109.441 -61 109.441 -3 c 0
 109.441 34.9706 99.1591 55.6358 89.5266 79 c 0
 80.17 100.153 71.4409 123.829 71.4409 164 c 0
 71.4409 240 138.941 293 169.941 298 c 1
 138.941 303 71.4409 356 71.4409 432 c 0
 71.4409 476.092 81.5475 499.213 91.4759 522 c 0
 100.396 543.646 109.441 564.438 109.441 599 c 0
 109.441 657 58.4409 703.5 30.9409 717.5 c 1
 27.9409 726 36.9409 740 42.4409 740 c 1
EndSplineSet
EndChar

StartChar: asciitilde
Encoding: 126 126 94
Width: 555
Flags: HW
LayerCount: 2
Fore
SplineSet
262 275 m 0
 227 288.5 189.5 304.5 144.5 304.5 c 0
 105.5 304.5 74 278 56 259 c 1
 51.5 261 48.5 265.5 48 271.5 c 1
 48 310 118.5 360 174.5 360 c 0
 221.5 360 260.5 343.5 296 329.5 c 0
 330.5 316 368.5 300 414.5 300 c 0
 453.5 300 482 326 502.5 345.5 c 1
 507 343.5 510 339 510.5 333 c 1
 510.5 296.5 445.5 244.5 385 244.5 c 0
 337 244.5 298 261 262 275 c 0
EndSplineSet
EndChar

StartChar: exclamdown
Encoding: 161 161 96
Width: 228
Flags: HW
LayerCount: 2
Fore
SplineSet
48 371.5 m 0
 48 406.5 76.5 436.5 112 436.5 c 1
 148 436.5 178 406.5 178 370 c 0
 178 335 148 306.5 112.5 306.5 c 1
 76.5 306.5 48 336.5 48 371.5 c 0
108.5 -216.5 m 0
 77.5 -216.5 55.5 -188 55.5 -153.5 c 0
 55.5 -125.5 76.5 60 93.5 229 c 1
 97.5 239.5 101 246 111.5 248.5 c 1
 116.5 247.5 125.5 242.5 130 234.5 c 1
 142.5 120.5 166.5 -103 166.5 -154 c 0
 166.5 -189 142.5 -216.5 108.5 -216.5 c 0
EndSplineSet
EndChar

StartChar: cent
Encoding: 162 162 97
Width: 460
Flags: HW
LayerCount: 2
Fore
SplineSet
273.5 476.5 m 17
 281.5 476.5 305 476.5 305 469.5 c 1
 222 -41.5 l 1
 213 -41.5 192 -40 190.5 -33.5 c 9
 273.5 476.5 l 17
403.5 385 m 0
 403.5 350.5 382 329 355.5 329 c 1
 331 329 313 355.5 296.5 370 c 0
 277.5 386.5 259.5 395 234 395 c 0
 185.5 395 143 325.5 143 242.5 c 0
 143 114 219 66.5 296 66.5 c 0
 352.5 66.5 388 98 405 117 c 1
 409 116 415 108 415 101 c 1
 415 95 413 86.5 410.5 82.5 c 0
 392.5 54 333.5 -8.5 247 -8.5 c 0
 130 -8.5 41 79.5 41 197 c 0
 41 331 172 443 293 443 c 0
 338 443 371 433.5 388.5 422 c 1
 395 415 403.5 400.5 403.5 385 c 0
EndSplineSet
EndChar

StartChar: sterling
Encoding: 163 163 98
Width: 475
Flags: HW
LayerCount: 2
Fore
SplineSet
312.127 636 m 0
 347.127 636 362.127 627 383.627 613 c 1
 387.627 609 393.127 593 393.127 583 c 0
 393.127 547 371.627 529.5 349.627 529.5 c 1
 324.627 529.5 310.627 547 297.627 561 c 0
 284.127 575.5 274.127 585 258.627 585 c 0
 212.627 585 200.127 528 200.127 459 c 0
 200.127 385 230.627 333.5 230.627 277.5 c 0
 230.627 202.5 175.627 132.5 150.627 109.5 c 1
 166.627 118 183.627 121 200.627 121 c 0
 247.127 121 270.627 76 341.127 76 c 0
 387.627 76 413.127 123.5 421.627 140 c 1
 424.127 141 434.127 135 436.127 128.5 c 0
 438.627 123.5 438.127 117.5 437.127 111.5 c 1
 426.127 79.5 374.627 -8 296.627 -8 c 0
 220.127 -8 187.627 50 124.627 50 c 0
 96.127 50 75.127 10 58.1269 -6 c 1
 50.1269 -6 42.1269 7 42.1269 16 c 0
 42.1269 45 77.627 78.5 92.127 94 c 0
 118.627 122 136.127 182.5 136.127 231.5 c 0
 136.127 267 109.627 361.5 109.127 391.5 c 0
 107.127 527.5 218.127 636 312.127 636 c 0
69.627 345.5 m 1
 85.627 345.5 368.127 345.5 379.127 345.5 c 1
 393.127 334.5 375.627 310.5 369.627 306.5 c 1
 48.1269 306.5 l 17
 42.1269 312.5 60.6269 345.5 69.627 345.5 c 1
EndSplineSet
EndChar

StartChar: currency
Encoding: 164 164 99
Width: 567
Flags: HW
LayerCount: 2
Fore
SplineSet
288 156 m 0
 343.5 156 379 219 379 294 c 0
 379 386 330 459.5 272.5 459.5 c 0
 217 459.5 179.5 394 179.5 319 c 0
 179.5 227 230.5 156 288 156 c 0
392.5 455 m 1
 451.5 510 l 2
 459.5 518 485.5 490 492.5 466 c 1
 432.5 410 l 1
 450.5 380 461.5 344 461.5 307 c 0
 461.5 267 449.5 230 428.5 199 c 1
 482.5 141 l 2
 490.5 133 462.5 107 438.5 100 c 1
 386.5 155 l 1
 356.5 133 320.5 120 280.5 120 c 0
 237.5 120 197.5 135 166.5 160 c 1
 113.5 110 l 2
 105.5 102 79.5 130 72.5 154 c 1
 126.5 205 l 1
 107.5 235 96.5 270 96.5 307 c 0
 96.5 351 110.5 391 134.5 423 c 1
 82.5 479 l 2
 74.5 487 102.5 513 126.5 520 c 1
 178.5 465 l 1
 207.5 485 242.5 496 280.5 496 c 0
 323.5 496 361.5 481 392.5 455 c 1
EndSplineSet
EndChar

StartChar: yen
Encoding: 165 165 100
Width: 683
Flags: HW
LayerCount: 2
Fore
SplineSet
201.693 183 m 1
 217.693 183 479.693 183 490.693 183 c 1
 504.693 172 486.693 147.5 480.693 143.5 c 1
 181.693 143.5 l 17
 175.693 149.5 192.693 183 201.693 183 c 1
201.693 263 m 1
 217.693 263 479.693 263 490.693 263 c 1
 504.693 252 486.693 227.5 480.693 223.5 c 1
 181.693 223.5 l 17
 175.693 229.5 192.693 263 201.693 263 c 1
280.193 130.5 m 2
 280.193 254.5 l 1
 280.193 258.723 278.585 268.956 274.987 276.5 c 0
 235.682 352.863 169.693 469 140.193 522 c 1
 122.193 554.5 111.693 566 91.6928 584 c 0
 75.6928 601.5 42.1928 608 29.6929 608.5 c 1
 24.6929 612 25.1929 636 29.6929 641.5 c 1
 73.6928 638.5 118.193 635.5 163.693 635.5 c 0
 209.193 635.5 258.693 638.5 298.193 641.5 c 1
 301.193 635.5 302.193 612 297.193 608.5 c 1
 283.693 608 236.693 604.5 236.693 579 c 0
 236.693 573 240.318 566 246.193 556 c 2
 374.818 327.5 l 1
 401.818 369 476.193 509 503.693 564.5 c 0
 506.193 570 507.693 577 507.693 583.5 c 0
 507.693 595.5 468.693 607.5 434.193 608 c 1
 430.193 611.5 430.193 636.5 433.193 641 c 1
 475.193 638 499.693 635 541.193 635 c 0
 589.193 635 611.693 639 652.193 641 c 1
 655.318 635 655.193 611.5 651.193 608 c 1
 640.693 607.5 589.193 607 570.193 575.5 c 0
 541.318 527.187 434.814 347.281 399.615 278.5 c 0
 395.055 269.723 394.693 258.971 394.693 253.5 c 1
 394.693 223.5 393.693 130.5 393.693 130.5 c 2
 393.5 94 393.693 64.5 400.193 46.5 c 0
 404.193 34.5 454.193 30 466.693 29.5 c 1
 471.193 23.5 471.193 2 466.693 -3.5 c 1
 426.693 -0.5 377.193 2.5 336.693 2.5 c 0
 296.193 2.5 247.193 -0.5 207.193 -3.5 c 1
 202.693 2 202.693 23.5 207.193 29.5 c 1
 219.693 30 269.693 34.5 273.693 46.5 c 0
 280.193 64.5 280 94 280.193 130.5 c 2
EndSplineSet
EndChar

StartChar: brokenbar
Encoding: 166 166 101
Width: 201
Flags: HW
LayerCount: 2
Fore
SplineSet
127.265 400 m 2
 127 392 82.2646 385 80.2646 385 c 0
 73.2646 385 75.2646 389 75.2646 393 c 2
 75.2646 757 l 1
 75.2646 757 74.2646 763 80.2646 765 c 0
 97.2646 770 116.265 770 119.265 770 c 0
 128.265 770 127.265 764 127.265 764 c 1
 127.265 400 l 2
75.2646 -115 m 2
 75.2646 249 l 1
 75.2646 249 74.2646 255 80.2646 257 c 0
 97.2646 262 116.265 262 119.265 262 c 0
 128.265 262 127.265 256 127.265 256 c 1
 127.265 -108 l 2
 127 -116 82.2646 -123 80.2646 -123 c 0
 73.2646 -123 75.2646 -119 75.2646 -115 c 2
EndSplineSet
EndChar

StartChar: section
Encoding: 167 167 102
Width: 452
Flags: HW
LayerCount: 2
Fore
SplineSet
310.5 653 m 0
 324.5 653 342 648.5 356 642.5 c 1
 361 632.5 362.5 620.5 362.5 614.5 c 0
 362.5 596.5 347.5 576.5 325 576.5 c 0
 307 576.5 296 586 286.5 592.5 c 0
 278 598.5 266 603 251 603 c 0
 220 603 172.5 587 172.5 549 c 0
 172.5 503 250.5 426.5 297.5 383.5 c 0
 355.5 330 415.5 270.5 415.5 181.5 c 0
 415.5 105 316.5 -8.5 278.5 -34.5 c 9
 280 -22.5 277 -14 282.5 -3 c 24
 291 14.5 313.5 35 313.5 35 c 0
 336.5 68.5 353 88.5 353 132.5 c 0
 353 215.5 294.5 277.5 240.5 327.5 c 0
 192.5 371.5 120.5 426.5 120.5 496.5 c 0
 120.5 576.5 198.5 653 310.5 653 c 0
140 -85 m 0
 126 -85 107.5 -80 94.5 -74 c 1
 90 -65.5 88 -54 88 -48 c 0
 88 -30 103.5 -8.5 126 -8.5 c 0
 144 -8.5 156 -18.5 165.5 -25.5 c 0
 173.5 -31.5 184.5 -35 199.5 -35 c 0
 230.5 -35 278 -19 278 19 c 0
 278 65 200 141.5 153 184.5 c 0
 95 238 35 297.5 35 386.5 c 0
 35 463 134 576.5 172 602.5 c 9
 170.5 590.5 173.5 582 168 571 c 24
 159.5 553.5 137 532.5 137 532.5 c 0
 113 498 97.5 479.5 97.5 435.5 c 0
 97.5 352.5 156 290.5 210 240.5 c 0
 258 196.5 330 141.5 330 71.5 c 0
 330 -8.5 252 -85 140 -85 c 0
EndSplineSet
EndChar

StartChar: dieresis
Encoding: 168 168 103
Width: 372
Flags: HW
LayerCount: 2
Fore
SplineSet
285 573.5 m 1
 317.5 573.5 343.5 547.5 343.5 515 c 1
 343.5 482.5 317 457 284.5 457 c 1
 252 457 225.5 483 225.5 515.5 c 1
 225.5 548 252.5 573.5 285 573.5 c 1
88 573.5 m 1
 120.5 573.5 146.5 547.5 146.5 515 c 1
 146.5 482.5 120 457 87.5 457 c 1
 55 457 29 483 29 515.5 c 1
 29 548 55.5 573.5 88 573.5 c 1
EndSplineSet
EndChar

StartChar: copyright
Encoding: 169 169 104
Width: 653
Flags: HW
LayerCount: 2
Fore
SplineSet
445.5 264 m 1
 445.5 260 433.5 204 427 201.5 c 0
 398 190.5 366.5 179 326.5 179 c 0
 243.5 179 182.5 237 182.5 320.5 c 0
 182.5 405 247 469 327.5 469 c 0
 356 469 398 460.5 427 451.5 c 1
 427.5 449 442 394.5 442 390 c 0
 442 386.5 432.5 382.5 426.5 382.5 c 1
 424 382.5 422 382.5 420 384 c 1
 416.5 398.5 399.5 439 335 439 c 0
 279 439 247 384 247 327.5 c 0
 247 255 290 207.5 342 207.5 c 0
 369.5 207.5 392 214.5 404 225.5 c 0
 418.5 239 424.5 266 426 267.5 c 1
 430.5 267.5 443.5 266.5 445.5 264 c 1
90.5 326 m 0
 90.5 196.5 195.5 91 325 91 c 0
 454.5 91 560 196.5 560 326 c 0
 560 455.5 454.5 561 325 561 c 0
 195.5 561 90.5 455.5 90.5 326 c 0
51.5 326.5 m 0
 51.5 477.5 173.5 599.5 324.5 599.5 c 0
 475.5 599.5 598.5 477.5 598.5 326.5 c 0
 598.5 175.5 475.5 53.5 324.5 53.5 c 0
 173.5 53.5 51.5 175.5 51.5 326.5 c 0
EndSplineSet
EndChar

StartChar: ordfeminine
Encoding: 170 170 105
Width: 361
Flags: HW
LayerCount: 2
Fore
SplineSet
165 291 m 0
 184.5 291 209.5 310 209.5 315.5 c 2
 209.5 402 l 1
 193 396.5 166.5 389 153 382 c 0
 130.5 371 119 356.5 119 336 c 0
 119.5 308.5 142.5 291 165 291 c 0
191 556.5 m 0
 240.5 556.5 283.5 514 283.5 457 c 2
 283.5 323 l 2
 283.5 304.5 290.5 294 303 294 c 0
 314 294 323.5 302 326 303 c 1
 328.5 302.5 331 296.5 331 293.5 c 1
 331 289 329 284 327 281 c 1
 318 272.5 285 249.5 262 249.5 c 0
 240 249.5 218.5 269 213 287.5 c 1
 205.5 281 155 248.5 130 248.5 c 0
 79.5 248.5 41.5 287 41.5 329.5 c 0
 41.5 356.5 61.5 378.5 78 385 c 0
 111 397 177 420.5 205.5 431.5 c 1
 209 435.5 209.5 436.5 209.5 445 c 2
 209.5 463.5 l 2
 209.5 496 190.5 526.5 159 526.5 c 0
 133 526.5 124.5 508.5 118.5 480 c 0
 114.5 460.5 103 449 82 449 c 0
 64.5 449 51 463 51 479.5 c 0
 51 485.5 54 496.5 58.5 502.5 c 1
 73.5 517 133.5 556.5 191 556.5 c 0
EndSplineSet
EndChar

StartChar: guillemotleft
Encoding: 171 171 106
Width: 492
Flags: HW
LayerCount: 2
Fore
SplineSet
210 247 m 0
 210 254.5 212 257 216 263.5 c 1
 347 342.5 422.5 420.5 425.5 423 c 1
 436.5 420 447 414 450 407.5 c 1
 445 394 350.5 286 309 247.5 c 1
 350.5 209 445 101 450 87.5 c 1
 447 81 436.5 75 425.5 72 c 1
 422.5 74.5 347 152.5 216 231.5 c 1
 213 235 210 241.5 210 247 c 0
26.5 247 m 0
 26.5 254.5 28.5 257 32.5 263.5 c 1
 163.5 342.5 239 420.5 242 423 c 1
 253 420 263.5 414 266.5 407.5 c 1
 261.5 394 167 286 125.5 247.5 c 1
 167 209 261.5 101 266.5 87.5 c 1
 263.5 81 253 75 242 72 c 1
 239 74.5 163.5 152.5 32.5 231.5 c 1
 29.5 235 26.5 241.5 26.5 247 c 0
EndSplineSet
EndChar

StartChar: logicalnot
Encoding: 172 172 107
Width: 584
Flags: HW
LayerCount: 2
Fore
SplineSet
514 420 m 17
 514 365 514 169 514 169 c 1
 513 168 482 157 461 157 c 0
 456 157 449.5 161 448 164 c 1
 448 175 448 305.5 448 363 c 1
 47.5 363 l 1
 47.5 363 41.5 363 41.5 373 c 1
 41.5 373 46.5 420 56.5 420 c 2
 514 420 l 17
EndSplineSet
EndChar

StartChar: registered
Encoding: 174 174 108
Width: 653
Flags: HW
LayerCount: 2
Fore
SplineSet
320.876 526.802 m 0
 365.12 526.802 412.171 501.325 412.171 453.217 c 0
 412.171 421.491 378.091 393.786 354 386 c 1
 379.708 347.89 407 316 420.958 299.127 c 0
 441.901 274.838 460.223 269.784 473.354 268.939 c 1
 475.411 266.382 473.354 254.229 473.143 253.306 c 1
 452.974 252.806 428.958 253.364 416.727 254.844 c 0
 398.268 255.902 384.057 264.093 369.982 282.148 c 0
 366.81 286.378 318.18 352.544 304.857 373.268 c 0
 303.589 375.172 299.474 378.806 295.013 378.806 c 0
 293.513 378.806 286.208 378.806 284.305 378.806 c 1
 284.305 363.368 284.305 309.971 284.305 309.971 c 1
 284.305 295.127 284.305 283.206 286.862 275.823 c 0
 288.497 270.997 309.417 268.439 314.454 268.439 c 1
 316.3 265.882 316.512 255.364 314.454 253.306 c 1
 297.784 254.729 275.459 255.864 258.711 255.864 c 0
 241.965 255.864 217.928 254.729 201.258 253.306 c 1
 199.2 255.364 199.412 265.882 201.258 268.439 c 1
 206.296 268.439 227.215 270.997 228.849 275.823 c 0
 231.406 283.206 231.5 295 231.406 309.971 c 2
 231.406 471.271 l 2
 231.5 486 231.406 498.037 228.849 505.421 c 0
 227.215 510.246 206.296 511.803 201.258 511.803 c 1
 199.412 514.362 199.2 525.379 201.258 527.437 c 1
 218.928 526.514 243.099 525.879 259.846 525.879 c 0
 276.594 525.879 296.398 526.802 320.876 526.802 c 0
357.215 446.641 m 0
 357.215 481.463 343.909 508.901 306.936 508.901 c 0
 299.898 508.901 288.208 508.69 286.362 504.786 c 0
 284.305 499.749 284.5 489 284.305 476.426 c 2
 284.305 397.362 l 1
 284.305 397.362 298 397.5 301.724 397.362 c 0
 332.7 397.362 357.215 414.859 357.215 446.641 c 0
90.5 384 m 0
 90.5 254.5 195.5 149 325 149 c 0
 454.5 149 560 254.5 560 384 c 0
 560 513.5 454.5 618.5 325 618.5 c 0
 195.5 618.5 90.5 513.5 90.5 384 c 0
51.5 384.5 m 0
 51.5 535.5 173.5 657.5 324.5 657.5 c 0
 475.5 657.5 598.5 535.5 598.5 384.5 c 0
 598.5 233.5 475.5 111 324.5 111 c 0
 173.5 111 51.5 233.5 51.5 384.5 c 0
EndSplineSet
EndChar

StartChar: macron
Encoding: 175 175 109
Width: 476
Flags: HW
LayerCount: 2
Fore
SplineSet
559 557.5 m 0
 559 559.5 560 596.5 571 596.5 c 2
 782.5 596.5 l 2
 784.5 596.5 787.5 595.5 787.5 589.5 c 0
 787.5 584.5 786.5 573.5 781.5 555.5 c 0
 779.5 549.5 774.5 548.5 774.5 548.5 c 1
 565 548.5 l 1
 565 548.5 559 547.5 559 557.5 c 0
EndSplineSet
EndChar

StartChar: degree
Encoding: 176 176 110
Width: 277
Flags: HW
LayerCount: 2
Fore
SplineSet
74.5 536.5 m 0
 74.5 501.5 102.5 472.5 137.5 472.5 c 0
 172.5 472.5 200.5 501.5 200.5 536.5 c 0
 200.5 571.5 172.5 599.5 137.5 599.5 c 0
 102.5 599.5 74.5 571.5 74.5 536.5 c 0
32.5 536.5 m 0
 32.5 594 80 640.5 137.5 640.5 c 0
 195 640.5 242 594 242 536.5 c 0
 242 479 195 431 137.5 431 c 0
 80 431 32.5 479 32.5 536.5 c 0
EndSplineSet
EndChar

StartChar: plusminus
Encoding: 177 177 111
Width: 562
Flags: HW
LayerCount: 2
Fore
SplineSet
52 64.5 m 1
 92.084 64.5 487 64.5 510.5 64.5 c 1
 515.5 64.5 519.5 58.5 519.5 51.5 c 0
 519.5 32.8604 512 16.5 504 7.5 c 1
 466.5 7.5 45 7.5 45 7.5 c 1
 42.5 7.5 39 10.5 39 20.5 c 0
 39 24.5 43 54.5 52 64.5 c 1
52 362.5 m 1
 92.084 362.5 249.5 362.5 249.5 362.5 c 1
 249.5 362.5 249.5 552.5 249.5 562 c 1
 263 569.5 286.5 573 292 573 c 0
 302 573 306.5 569 306.5 565.5 c 1
 306.5 362.5 l 1
 346.5 362.5 470.5 362.5 510.5 362.5 c 1
 515.5 362.5 519.5 356.5 519.5 349.5 c 0
 519.5 330.861 512 314.5 504 305.5 c 1
 466.5 305.5 306.5 305.5 306.5 305.5 c 1
 306.5 305.5 306.5 144 306.5 105.5 c 1
 294.5 97 271.5 94.5 261.5 94.5 c 0
 255 94.5 249.5 99 249.5 103 c 2
 249.5 305.5 l 1
 45 305.5 l 1
 42.5 305.5 39 308.5 39 318.5 c 0
 39 322.5 43 352.5 52 362.5 c 1
EndSplineSet
EndChar

StartChar: uni00B2
Encoding: 178 178 112
Width: 350
Flags: HW
LayerCount: 2
Fore
SplineSet
311.656 371 m 1
 302.656 342 283.156 276 274.156 254 c 1
 44.6567 254 l 1
 40.1567 255.5 34.6567 263.5 35.1567 267 c 1
 79.3717 315.499 120.278 355.094 164.8 413.5 c 0
 196.294 454.689 212.156 490.255 212.156 527.5 c 0
 212.156 568.5 185.156 595.5 147.156 595.5 c 0
 102.657 595.5 79.6568 560 68.1568 546.5 c 1
 64.6568 544.5 51.1567 553.5 51.6567 562 c 1
 68.6568 593.5 116.657 644.5 174.656 644.5 c 0
 244.656 644.5 292.156 605 292.156 539 c 0
 292.156 495.5 262.656 456.5 228.656 421 c 0
 200.156 391.5 161.156 355 118.657 317 c 1
 127.657 317 234.656 317 234.656 317 c 2
 270.156 317 281.656 355.5 289.656 371.5 c 0
 290.656 374 294.156 375 297.656 375.5 c 0
 301.156 375.5 308.656 374 311.656 371 c 1
EndSplineSet
EndChar

StartChar: uni00B3
Encoding: 179 179 113
Width: 324
Flags: HW
LayerCount: 2
Fore
SplineSet
167.5 644 m 0
 206.5 644 259 619.5 259 563.5 c 0
 259 511 215.5 488.5 193.5 481.5 c 1
 216.5 481 289.5 452 289.5 381.5 c 0
 289.5 293 202.5 247 120 247 c 0
 89 247 56 255.5 45 265 c 1
 43 268 34.5 279.5 34.5 290.5 c 0
 34.5 308 47.5 324.5 66 324.5 c 0
 83 324.5 92.5 309 104 294.5 c 0
 114 281.5 130.5 274.5 146 274.5 c 0
 186 274.5 212.5 303 212.5 361 c 0
 212.5 408.5 179.5 448.5 140.5 448.5 c 0
 129.5 448.5 112 445 104.5 443 c 1
 102.429 445.57 99.502 451.288 99.0248 456 c 0
 98.6105 458.921 99.0353 464.839 100 467 c 1
 140 474 191 497.5 191 547 c 0
 191 576.5 167 601.5 135.5 601.5 c 0
 100.5 601.5 73.5 572 68.5 566.5 c 1
 64 568 55.5 577.5 57 583 c 1
 75.5 608.5 117 644 167.5 644 c 0
EndSplineSet
EndChar

StartChar: acute
Encoding: 180 180 114
Width: 362
Flags: HW
LayerCount: 2
Fore
SplineSet
401.5 687 m 0
 436.5 687 445 667 445 660.5 c 0
 445 621.5 299 524.5 289 524.5 c 0
 282 524.5 274.5 534 274.5 540 c 0
 274.5 545.5 331 636 367.5 678 c 0
 372.5 683 387.5 687 401.5 687 c 0
EndSplineSet
EndChar

StartChar: uni00B5
Encoding: 181 181 115
Width: 519
Flags: HW
LayerCount: 2
Fore
SplineSet
148 221.5 m 1
 151 161.5 169 89 212.5 89 c 0
 275.5 89 328 160 340.5 222 c 1
 339 246 337 290.5 337 313.5 c 0
 337 326.5 337 381.5 336 419.5 c 1
 341 427.5 351 441.5 363 441.5 c 0
 373 441.5 430.5 416 430.5 403 c 0
 430.5 378 418.5 330.5 406 264 c 0
 401 243.5 393.5 212 389 195 c 1
 388.5 118.5 418 85 450 85 c 0
 482 85 501.5 113.5 510 126.5 c 1
 514.5 126.5 521 114 523.5 108 c 0
 525 104 524.5 95.5 524 92.5 c 0
 510.5 49.5 477 -4 437 -4 c 0
 389 -3 367 86.5 361.5 132 c 1
 336.5 62 289 -8.5 226 -8.5 c 0
 180 -8.5 147 73.5 140.5 119 c 1
 142.5 94 141.5 -87 163.5 -205 c 1
 158.5 -213 145.5 -227 130.5 -227 c 0
 116 -227 73.5 -195.5 73.5 -182.5 c 0
 73.5 -164.5 84.5 106 96.5 210 c 1
 96.5 234 86.5 316 86.5 339 c 0
 86.5 352 87.5 397.5 88 420.5 c 1
 92.5 430 100.5 441.5 112.5 441.5 c 0
 122.5 441.5 178.5 416 178.5 403 c 0
 178.5 375 172.5 335.5 160 277 c 0
 155.5 254.5 151 235.5 148 221.5 c 1
EndSplineSet
EndChar

StartChar: paragraph
Encoding: 182 182 116
Width: 506
Flags: HW
LayerCount: 2
Fore
SplineSet
338 335.5 m 1
 338 371.5 338 589 338 602 c 1
 334 606 319 607 309 607 c 0
 299 607 287 607 281 601 c 1
 281 601 281 432.5 281 330.5 c 1
 287 330.5 334 332.5 338 335.5 c 1
337 292 m 1
 323 291 297 289 281 288 c 1
 281 226 281 179 281 117 c 0
 281 84 281 62 285 47 c 0
 286.013 41.9589 301.542 41.5774 309 41.4914 c 0
 317.667 41.41 331.771 42.0411 333 46.5 c 0
 338 62 337.5 88.5 337.5 114 c 2
 337.5 114 337 257.5 337 292 c 1
382 299 m 1
 382 228 382 183 382 116.5 c 0
 382 83.5 382 66 387 51 c 0
 392 36 446 28.5 456 28.5 c 1
 460 23.5 459 0 457 -4 c 1
 407.5 -2 374 2.5 312 2.5 c 0
 258.5 2.5 205 -2 164.5 -4 c 1
 161 3.5 162 26 165.5 28 c 1
 175.5 28 225.5 36 231 50.5 c 0
 237 66 236.5 90.5 236.5 116 c 2
 236.5 116 236.5 253.5 236.5 287 c 1
 108.5 287 33 374 33 469 c 0
 33 593 133.5 652 215.5 652 c 0
 274.5 652 259 648 318 648 c 0
 385 648 438.5 653 438.5 653 c 1
 443.5 648 442.5 623 437.5 620 c 1
 422.5 620 391 612 386 600 c 0
 384 593 383 587 383 536 c 0
 383 475 383 360.5 383 341.5 c 1
 388 340.5 432 354.5 432 354.5 c 1
 437 354.5 439 350.5 439 346.5 c 0
 438 336.5 420 312 413 309 c 0
 402 304 390 300 382 299 c 1
EndSplineSet
EndChar

StartChar: periodcentered
Encoding: 183 183 117
Width: 229
Flags: HW
LayerCount: 2
Fore
SplineSet
47 264.5 m 0
 47 300.5 76.5 330 113 330 c 1
 149 330 178.5 300.5 178.5 264.5 c 0
 178.5 228.5 150 197 114 197 c 1
 77 197 47 228.5 47 264.5 c 0
EndSplineSet
EndChar

StartChar: cedilla
Encoding: 184 184 118
Width: 473
Flags: HW
LayerCount: 2
Fore
SplineSet
466 -26 m 1
 470 -25.5 485 -25 489.5 -25 c 1
 516 -25 536.5 -48 536.5 -74 c 0
 536.5 -121 498.5 -154 447 -154 c 0
 427.5 -154 407 -144.5 401.5 -139 c 1
 399 -135.5 395.5 -125 395.5 -120 c 0
 395.5 -116 396.5 -114 398.5 -113.5 c 1
 404 -116.5 426.5 -128 447.5 -128 c 0
 478.5 -128 491 -112 491 -96.5 c 0
 491 -77.5 479.5 -63 462.5 -63 c 0
 454 -63 446.5 -66 436.5 -70 c 1
 434 -70 424 -61 425 -56 c 1
 434 -41 448 -17.5 455 -3 c 1
 481.5 -3 l 1
 481.5 -3 468.5 -21.5 466 -26 c 1
EndSplineSet
EndChar

StartChar: uni00B9
Encoding: 185 185 119
Width: 287
Flags: HW
LayerCount: 2
Fore
SplineSet
115 514.5 m 2
 115 551 107.5 563.5 96 563.5 c 0
 85.5 563.5 61 553.5 45.5 547.5 c 1
 40 549.5 35.5 559 35.5 566 c 0
 35.5 568 36 572.5 37.5 573.5 c 1
 126 610.5 188 646.5 190.5 646.5 c 2
 192 646.5 l 2
 197 646.5 205 628 206 625 c 1
 204.5 619.5 195.5 581 195.5 542 c 2
 195.5 343 l 2
 195.5 324 197.5 303.5 204.5 292 c 0
 210 284 247.5 278.5 254 278.5 c 1
 256.5 278.5 256 255 254 252.5 c 1
 222.5 253.5 187.5 256 156 256 c 0
 124.5 256 86.5 253.5 55 252.5 c 1
 51 255.5 51 278 55 278 c 1
 65 278 102 284.5 107 292 c 0
 112 301.5 115 332 115 342.5 c 2
 115 514.5 l 2
EndSplineSet
EndChar

StartChar: ordmasculine
Encoding: 186 186 120
Width: 393
Flags: HW
LayerCount: 2
Fore
SplineSet
187.5 526.5 m 1
 132 526.5 119 464 119 412 c 1
 119 350 145 276.5 204.5 276.5 c 1
 258.5 276.5 272 339.5 272 390.5 c 1
 272 452 246.5 526.5 187.5 526.5 c 1
196 553.5 m 0
 289 553.5 357.5 487.5 357.5 404 c 0
 357.5 320.5 287.5 249 196.5 249 c 0
 103.5 249 33.5 316 33.5 399.5 c 0
 33.5 484 104.5 553.5 196 553.5 c 0
EndSplineSet
EndChar

StartChar: guillemotright
Encoding: 187 187 121
Width: 494
Flags: HW
LayerCount: 2
Fore
SplineSet
282 247 m 0
 282 241.5 279 235 276 231.5 c 1
 145 152.5 69.5 74.5 66.5 72 c 1
 55.5 75 45 81 42 87.5 c 1
 47 101 141.5 209 183 247.5 c 1
 141.5 286 47 394 42 407.5 c 1
 45 414 55.5 420 66.5 423 c 1
 69.5 420.5 145 342.5 276 263.5 c 1
 280 257 282 254.5 282 247 c 0
465.5 247 m 0
 465.5 241.5 462.5 235 459.5 231.5 c 1
 328.5 152.5 253 74.5 250 72 c 1
 239 75 228.5 81 225.5 87.5 c 1
 230.5 101 325 209 366.5 247.5 c 1
 325 286 230.5 394 225.5 407.5 c 1
 228.5 414 239 420 250 423 c 1
 253 420.5 328.5 342.5 459.5 263.5 c 1
 463.5 257 465.5 254.5 465.5 247 c 0
EndSplineSet
EndChar

StartChar: onequarter
Encoding: 188 188 122
Width: 719
Flags: HW
LayerCount: 2
Fore
SplineSet
626 396.5 m 0
 631 396.5 640.5 388.5 640.5 381 c 9
 640.5 332.5 640.5 188 640.5 142 c 1
 644 142 665.5 142 670.5 142 c 1
 681.5 132 685.5 115 678.5 99 c 1
 666 99 645 99 642 99 c 9
 642 1 l 1
 641.221 0.22078 624.235 -3.05844 603.5 -3.06664 c 0
 585.808 -3.07421 569.902 -0.922085 567.5 3.5 c 1
 567.5 99 l 1
 565.5 99 408.5 99 408.5 99 c 1
 403.5 100.5 398 106 397.5 115.5 c 1
 435 160.5 577 346.5 609.5 386.5 c 1
 613.5 391.5 619.5 396.5 626 396.5 c 0
567.5 144.5 m 1
 567.5 166.5 567.5 279 567.5 283.5 c 1
 535.5 244 488 180.5 459.5 144.5 c 1
 460.5 144.5 547.5 144.5 567.5 144.5 c 1
185 535 m 2
 185 341 l 2
 185 322 187.5 300 193.5 289 c 0
 198.5 281 235.5 275.5 242 275.5 c 1
 245.5 273 243.5 253 242.5 251.5 c 1
 211 252.5 181 255 149.5 255 c 0
 118 255 84 252.5 52.5 251.5 c 1
 48.5 254.5 49 273.5 52.5 275.5 c 1
 62.5 275.5 96.5 282.5 101.5 290 c 0
 106.5 299.5 110.5 330 110.5 340.5 c 2
 110.5 515.5 l 2
 110.5 538.5 103.5 556.5 92.5 556.5 c 0
 82.5 556.5 61.5 547 46 541 c 1
 40.5 543 35 560 34.5 563.5 c 1
 79.5 584.5 137 614.5 180.5 639.5 c 1
 184 638.5 194.5 626.5 195 621.5 c 1
 193.5 616 185 574 185 535 c 2
203.625 -23.3311 m 0
 190.794 -23.7607 189.347 -14.4585 189.347 -14.4585 c 1
 536.66 649.699 l 1
 540.281 655.452 553.175 663.677 570.205 663.964 c 0
 577.548 664.393 582.438 659.461 583.029 655.566 c 1
 238.023 -4.46533 l 2
 234.837 -10.8398 220.299 -22.9712 203.625 -23.3311 c 0
EndSplineSet
EndChar

StartChar: onehalf
Encoding: 189 189 123
Width: 750
Flags: HW
LayerCount: 2
Fore
SplineSet
578 389 m 0
 648 389 695.5 349.5 695.5 283.5 c 0
 695.5 240 666 201 632 165.5 c 0
 603.5 136 564.5 99.5 522 61.5 c 1
 531 61.5 638 61.5 638 61.5 c 2
 673.5 61.5 685 100 693 116 c 0
 694 118.5 697.5 119.5 701 120 c 0
 704.5 120 712 118.5 715 115.5 c 1
 706 86.5 686.5 20.5 677.5 -1.5 c 1
 448 -1.5 l 1
 443.5 0 438 8 438.5 11.5 c 1
 481.36 58.524 519.72 96.048 563.901 152.5 c 0
 597.603 195.432 615.5 232.962 615.5 272 c 0
 615.5 313 588.5 340 550.5 340 c 0
 506 340 483 304.5 471.5 291 c 1
 468 289 454.5 298 455 306.5 c 1
 472 338 520 389 578 389 c 0
186 535 m 2
 186 341 l 2
 186 322 188.5 300 194.5 289 c 0
 199.5 281 236.5 275.5 243 275.5 c 1
 246.5 273 244.5 253 243.5 251.5 c 1
 212 252.5 182 255 150.5 255 c 0
 119 255 85 252.5 53.5 251.5 c 1
 49.5 254.5 50 273.5 53.5 275.5 c 1
 63.5 275.5 97.5 282.5 102.5 290 c 0
 107.5 299.5 111.5 330 111.5 340.5 c 2
 111.5 515.5 l 2
 111.5 538.5 104.5 556.5 93.5 556.5 c 0
 83.5 556.5 62.5 547 47 541 c 1
 41.5 543 35.5 557 35.5 563.5 c 1
 80.5 584.5 138 614.5 181.5 639.5 c 1
 188 635.5 195.5 626.5 196 621.5 c 1
 194.5 616 186 574 186 535 c 2
572.029 655.566 m 1
 227.023 -4.46533 l 2
 223.837 -10.8398 209.299 -22.9712 192.625 -23.3311 c 0
 179.794 -23.7607 178.347 -14.4585 178.347 -14.4585 c 1
 525.66 649.699 l 1
 529.281 655.452 542.175 663.677 559.205 663.964 c 0
 566.548 664.393 571.438 659.461 572.029 655.566 c 1
EndSplineSet
EndChar

StartChar: threequarters
Encoding: 190 190 124
Width: 718
Flags: HW
LayerCount: 2
Fore
SplineSet
626 396.5 m 0
 631 396.5 640.5 388.5 640.5 381 c 9
 640.5 332.5 640.5 188 640.5 142 c 1
 644 142 665.5 142 670.5 142 c 1
 681.5 132 685.5 115 678.5 99 c 1
 666 99 645 99 642 99 c 9
 642 1 l 1
 641.221 0.22078 624.235 -3.05844 603.5 -3.06664 c 0
 585.808 -3.07421 569.902 -0.922085 567.5 3.5 c 1
 567.5 99 l 1
 565.5 99 408.5 99 408.5 99 c 1
 403.5 100.5 398 106 397.5 115.5 c 1
 435 160.5 577 346.5 609.5 386.5 c 1
 613.5 391.5 619.5 396.5 626 396.5 c 0
567.5 144.5 m 1
 567.5 166.5 567.5 279 567.5 283.5 c 1
 535.5 244 488 180.5 459.5 144.5 c 1
 460.5 144.5 547.5 144.5 567.5 144.5 c 1
166.5 644 m 0
 205.5 644 258 619.5 258 563.5 c 0
 258 511 214.5 488.5 192.5 481.5 c 1
 215.5 481 288.5 452 288.5 381.5 c 0
 288.5 293 201.5 247 119 247 c 0
 88 247 55 255.5 44 265 c 1
 42 268 33.5 279.5 33.5 290.5 c 0
 33.5 308 46.5 324.5 65 324.5 c 0
 82 324.5 91.5 309 103 294.5 c 0
 113 281.5 129.5 274.5 145 274.5 c 0
 185 274.5 211.5 303 211.5 361 c 0
 211.5 408.5 178.5 448.5 139.5 448.5 c 0
 128.5 448.5 111 445 103.5 443 c 1
 101.349 445.651 98.363 451.628 97.9246 456.5 c 0
 97.6015 459.248 98.0757 464.939 99 467 c 1
 139 474 190 497.5 190 547 c 0
 190 576.5 166 601.5 134.5 601.5 c 0
 99.5 601.5 72.5 572 67.5 566.5 c 1
 63 568 54.5 577.5 56 583 c 1
 74.5 608.5 116 644 166.5 644 c 0
590.529 655.566 m 1
 245.523 -4.46533 l 2
 242.337 -10.8398 227.799 -22.9712 211.125 -23.3311 c 0
 198.294 -23.7607 196.847 -14.4585 196.847 -14.4585 c 1
 544.16 649.699 l 1
 547.781 655.452 560.675 663.677 577.705 663.964 c 0
 585.048 664.393 589.938 659.461 590.529 655.566 c 1
EndSplineSet
EndChar

StartChar: questiondown
Encoding: 191 191 125
Width: 366
Flags: HW
LayerCount: 2
Fore
SplineSet
307.5 370.5 m 0
 307.5 334.5 277.5 307 243.5 307 c 0
 207.5 307 179 335 179 370.5 c 0
 179 406 206.5 437 241.5 437 c 0
 275 437 307.5 408 307.5 370.5 c 0
267.5 237 m 1
 273.5 218.5 281.5 175 281.5 141.5 c 0
 281.5 75.5 235.5 46.5 199 22.5 c 0
 149.5 -9.5 102.5 -42.5 102.5 -83.5 c 0
 102.5 -120 129.5 -148.5 166.5 -148.5 c 0
 211 -148.5 230.5 -107 264.5 -107 c 0
 290.5 -107 317.5 -132 317.5 -165 c 0
 317.5 -181 311.5 -200 305.5 -206.5 c 1
 293.5 -213 271.5 -218.5 236.5 -218.5 c 0
 181 -218.5 35 -166 35 -38 c 0
 35 40 84.5 78 148.5 116 c 0
 175.5 132.5 217 159 228.5 177 c 0
 236.5 190 234 216.5 234 233 c 1
 237 240 242.5 248 249.5 248.5 c 1
 256 247.5 264 242 267.5 237 c 1
EndSplineSet
EndChar

StartChar: AE
Encoding: 198 198 132
Width: 893
Flags: HWO
LayerCount: 2
Fore
SplineSet
416.443 286 m 1
 416.443 541 l 1
 405.943 524.5 260.068 290 260.068 290 c 1
 260.068 290 259.068 286 261.068 286 c 0
 284.068 284.5 314.568 284 337.568 284 c 0
 367.568 284 393.443 284.5 416.443 286 c 1
473.568 656.5 m 0
 541.068 656.5 713.068 663.5 797.068 664 c 1
 804.068 614 817.068 567 826.068 522 c 1
 823.068 519 812.568 517 805.568 517 c 0
 798.568 517 792.068 519.5 790.568 524.5 c 0
 769.068 592 735.568 620.5 678.568 620.5 c 2
 594.068 620.5 l 1
 576.568 620.5 538.568 619.5 534.568 609 c 0
 529.568 595 529.568 571 529.568 543 c 2
 529.568 361.5 l 2
 529.568 356 550.568 353 572.568 353 c 2
 625.568 353 l 2
 703.068 353 708.068 362 724.568 424 c 0
 725.568 429 731.068 431.5 738.068 431.5 c 0
 745.068 431.5 753.068 429.5 756.068 426.5 c 1
 756.068 236 l 1
 754.068 234 746.068 232 739.068 232 c 0
 732.068 232 725.568 235 724.068 240 c 0
 710.568 292.5 701.568 298.5 692.568 303.5 c 0
 681.068 309.5 639.568 311 601.568 311 c 0
 573.568 311 529.568 310 529.568 299.5 c 2
 529.568 128.5 l 2
 529.568 118 529.568 67 536.568 54.5 c 0
 546.068 42.5 570.568 39.5 604.568 39.5 c 2
 661.568 39.5 l 2
 699.568 39.5 745.068 49 771.068 68 c 0
 791.068 83.5 813.068 117 829.568 166 c 0
 830.568 170 836.568 172 843.568 172 c 0
 853.568 172 868.068 169 871.068 166 c 1
 852.068 112 824.068 41 817.068 -3 c 1
 741.568 -3 468.068 0 403.068 -0.5 c 1
 367.568 2.5 341.568 12 344.068 15.5 c 1
 348.443 18.5 372.568 32 376.068 38.5 c 1
 386.068 48.5 410.568 69.5 413.068 97 c 1
 416.068 108.5 416.443 171.5 416.568 180 c 1
 401.068 180.5 387.568 239.5 377.068 239.5 c 1
 347.443 240 313.568 240.5 283.568 240 c 0
 261.568 240 253.068 237.5 229.568 235 c 1
 228.568 235 207.568 204 199.568 190 c 1
 192.068 177.5 161.068 125.5 145.068 97.5 c 0
 132.568 69 153.068 49 157.068 42.5 c 1
 159.568 27 187.568 13 189.568 11 c 1
 174.068 11.5 158.068 3.5 135.068 0.5 c 1
 92.0679 1.5 72.0679 1 32.0679 -1 c 1
 7.56785 1 0.56785 10 -19.4321 14.5 c 1
 -14.9321 16 11.5679 33.5 19.5679 45 c 1
 37.0678 59 57.0678 71 72.568 89.5 c 1
 85.068 97.5 247.068 354 257.068 370.5 c 1
 257.068 371 395.568 595 395.068 595.5 c 1
 393.068 605 373.068 609.5 366.568 613.5 c 1
 364.068 626 348.068 641.5 344.068 644.5 c 1
 363.943 646 419.068 656.5 473.568 656.5 c 0
EndSplineSet
EndChar

StartChar: Eth
Encoding: 208 208 142
Width: 732
Flags: HW
LayerCount: 2
Fore
SplineSet
371.625 309.5 m 1
 342.625 309.5 52.625 309.5 38.625 309.5 c 1
 34.625 309.5 33.625 339 39.625 348 c 1
 68.625 348 357.625 348 371.625 348 c 1
 375.625 348 375.625 318.5 371.625 309.5 c 1
EndSplineSet
Refer: 36 68 N 1 0 0 1 -0.375389 0 2
EndChar

StartChar: multiply
Encoding: 215 215 149
Width: 462
Flags: HW
LayerCount: 2
Fore
SplineSet
195 247.5 m 1
 193 249.5 52 390.5 52 390.5 c 1
 52 404.5 69 430 78 430 c 0
 81 430 82.9832 429.983 85 428 c 2
 85 428 231 287 233 285 c 9
 377 428 l 2
 378.002 428.998 380 430 383 430 c 0
 392 430 407 398 407 388 c 1
 407 388 271 253 268 250 c 1
 269 249 407 106 407 106 c 1
 407 91 394 64.5 383 64.5 c 0
 381 64.5 377.75 64.75 376 66.5 c 2
 376 66.5 231 211.5 230 212.5 c 1
 228 210.5 82 65 82 65 c 2
 80.2483 63.2534 78 63 76 63 c 0
 67 63 52 96 52 106 c 1
 52 106 191 243.5 195 247.5 c 1
EndSplineSet
EndChar

StartChar: Oslash
Encoding: 216 216 150
Width: 750
Flags: HW
LayerCount: 2
Fore
SplineSet
553.5 671.5 m 17
 562 669 590 656.5 587 650 c 9
 189.5 -15.5 l 17
 181 -12.5 153 0.5 156 7 c 9
 553.5 671.5 l 17
EndSplineSet
Refer: 47 79 N 1 0 0 1 0.5 0 2
EndChar

StartChar: Thorn
Encoding: 222 222 156
Width: 553
Flags: HW
LayerCount: 2
Fore
SplineSet
169.386 656 m 0
 209.886 656 258.386 659 298.386 662 c 1
 302.886 656.5 302.886 635 298.386 629 c 1
 285.886 628.5 235.886 624 231.886 612 c 0
 226.14 596.29 225.528 570.956 225.413 541 c 1
 225.386 537.529 225.386 512.862 225.386 509 c 1
 248.386 514 283.386 514.5 306.886 514.5 c 0
 425.386 514.5 528.386 442.5 528.386 334.5 c 0
 528.386 222 440.386 135 324.386 135 c 0
 294.886 135 274.886 145.5 267.386 151.5 c 0
 263.889 154.497 255.114 168.425 255.182 175 c 0
 255.216 179.047 257.216 182 259.386 182.5 c 1
 269.886 179.5 283.386 178.5 298.386 178.5 c 0
 362.886 178.5 411.386 232.5 411.386 315.5 c 0
 411.386 401 364.386 477 277.386 477 c 0
 259.886 477 234.886 473.5 230.386 463.5 c 0
 225.386 451.5 225.386 410.5 225.386 395.5 c 1
 225.386 130.5 l 2
 225.386 94 225.386 64.5 231.886 46.5 c 0
 235.886 34.5 285.886 30 298.386 29.5 c 1
 302.886 23.5 302.886 2 298.386 -3.5 c 1
 258.386 -0.5 208.886 2.5 168.386 2.5 c 0
 127.886 2.5 78.8857 -0.5 38.8857 -3.5 c 1
 34.3857 2 34.3857 23.5 38.8857 29.5 c 1
 51.3857 30 101.386 34.5 105.386 46.5 c 0
 111.886 64.5 111.886 94 111.886 130.5 c 2
 111.886 528 l 2
 111.886 564.5 111.886 594 105.386 612 c 0
 101.386 624 51.3857 628.5 38.8857 629 c 1
 34.3857 635 34.3857 656.5 38.8857 662 c 1
 78.8857 659 128.886 656 169.386 656 c 0
EndSplineSet
EndChar

StartChar: germandbls
Encoding: 223 223 157
Width: 558
Flags: HW
LayerCount: 2
Fore
SplineSet
294.886 695.5 m 0
 384.886 695.5 470.386 649 470.386 562 c 0
 470.386 512.679 442.279 482.628 415.323 458.5 c 0
 385.095 431.382 346.386 406.792 346.386 380.5 c 0
 346.386 341.5 405.386 302.5 443.886 275.5 c 0
 485.386 245.5 533.886 210 533.886 145 c 0
 533.886 55 458.886 -10 382.886 -10 c 0
 335.386 -10 291.386 8 278.386 25 c 1
 275.886 32.2481 273.951 40.9219 274.097 50 c 0
 275.025 79.1741 288.725 106.5 315.386 106.5 c 0
 342.194 106.5 353.069 78.3619 364.193 59.6522 c 0
 373.811 43.1497 386.271 27.5 406.886 27.5 c 0
 436.386 27.5 453.886 52.5 453.886 92 c 0
 453.886 139.142 411.791 169.8 369.799 201.5 c 0
 322.727 236.138 265.886 270.566 265.886 336.5 c 0
 265.886 372.225 299.795 396.565 328.272 428.5 c 0
 353.889 457.072 373.386 486.288 373.386 537 c 0
 373.386 598 344.886 655.5 283.886 655.5 c 0
 219.386 655.5 195.886 571.5 195.886 480.5 c 0
 195.886 364 195.886 130.5 195.886 130.5 c 2
 195.886 94 195.886 64.5 202.386 46.5 c 0
 206.386 34.5 244.886 30 257.386 29.5 c 1
 261.886 23.5 261.886 2 257.386 -3.5 c 1
 217.386 -0.5 184.386 2.5 143.886 2.5 c 0
 103.386 2.5 62.3857 -0.5 22.3857 -3.5 c 1
 17.8857 2 17.8857 23.5 22.3857 29.5 c 1
 34.8857 30 81.8857 34.5 85.8857 46.5 c 0
 92.3857 64.5 92.3857 94 92.3857 130.5 c 2
 92.3857 130.5 92.3857 341.5 92.3857 386 c 1
 78.8857 386 46.8857 386 33.8857 386 c 1
 29.8857 387 28.8857 393.5 28.8857 397 c 1
 33.8857 406 51.3857 424.5 57.8857 430 c 1
 72.3857 430 81.8857 430 92.3857 430 c 1
 92.3857 430.5 92.3857 438.5 92.3857 440.5 c 1
 92.3857 570 202.386 695.5 294.886 695.5 c 0
EndSplineSet
EndChar

StartChar: ae
Encoding: 230 230 164
Width: 670
Flags: HW
LayerCount: 2
Fore
SplineSet
188 192.5 m 0
 156 177 139 150 139.5 120 c 0
 140 80 171.5 54 203.5 54 c 0
 234 54 284 79.5 284 103 c 1
 276.451 122.834 268.944 161.818 267.376 193.5 c 0
 266.813 204.942 266.5 210.702 267 221.5 c 1
 244.5 213.5 206.5 202 188 192.5 c 0
458 404 m 1
 386.5 404 364.5 300.5 365.5 283.5 c 1
 374.5 283 494.5 286 511.5 287.5 c 0
 523.5 288 529 295 529.5 307 c 1
 530 342 511 404 458 404 c 1
471.5 442.5 m 0
 597 442.5 634 348 634 299 c 0
 634 273.5 625.5 255.5 608.5 254.5 c 0
 559 250.5 405.5 246 362.5 245 c 1
 361 111 447.5 65.5 514 65.5 c 0
 570.5 65.5 608 98 625 117 c 1
 629 116 635 108 635 101 c 1
 635 95 633 86.5 630.5 82.5 c 0
 612.5 54 553.5 -8.5 467 -8.5 c 0
 403 -8.5 339 18 304.5 70.5 c 1
 267 37.5 189 -8 154.5 -8 c 0
 83.5 -8 30.5 48.5 30.5 110.5 c 0
 30.5 150.5 55 180 79.5 190 c 0
 122.5 208 223.5 244 263.5 259.5 c 1
 270.5 263 273.5 270 274.5 277.5 c 0
 275.5 288.5 275.5 298.5 274.5 310 c 0
 269.5 361 237 404.5 195 404.5 c 0
 158.5 404.5 147 373 138.5 331 c 0
 133 302.5 117 285.5 87 285.5 c 0
 63 285.5 44 306.5 44 330.5 c 0
 44 341 49 354 54.5 363 c 1
 73 381 159.5 442.5 240 442.5 c 0
 285 442.5 322.5 417.5 345 384 c 1
 374.5 413 420 442.5 471.5 442.5 c 0
EndSplineSet
EndChar

StartChar: eth
Encoding: 240 240 174
Width: 525
Flags: HW
LayerCount: 2
Fore
SplineSet
353.5 703.5 m 17
 360 698 379 676.5 373 671 c 9
 128.5 505.5 l 17
 122 511.5 104 533.5 110 539 c 9
 353.5 703.5 l 17
246 406 m 0
 170.5 406 145.5 311 145.5 219.5 c 0
 145.5 112.5 199 31 259 31 c 0
 332 31 359.5 119.5 359.5 213.5 c 0
 359.5 266.5 351 320.5 335 352 c 1
 315 387 287 406 246 406 c 0
243.5 443.5 m 0
 270.5 443.5 298 440 318.5 431.5 c 1
 294 499 242 597.5 86 663.5 c 1
 85 672.5 88.5 686.5 96.5 689.5 c 1
 174.189 674.536 284.641 617.467 363.114 528 c 0
 426.564 455.793 472.5 363.603 472.5 253 c 3
 472.5 96 375 -6.5 256.5 -6.5 c 0
 135.5 -6.5 33.5 75 33.5 214.5 c 0
 33.5 346 125.5 443.5 243.5 443.5 c 0
EndSplineSet
EndChar

StartChar: divide
Encoding: 247 247 181
Width: 583
Flags: HW
LayerCount: 2
Fore
SplineSet
233 435 m 0
 233 466 258 491 289 491 c 0
 320 491 345 466 345 435 c 0
 345 404 320 379 289 379 c 0
 258 379 233 404 233 435 c 0
233 59.5 m 0
 233 90.5 258 115.5 289 115.5 c 0
 320 115.5 345 90.5 345 59.5 c 0
 345 28.5 320 3.5 289 3.5 c 0
 258 3.5 233 28.5 233 59.5 c 0
55 221 m 1
 52.5 221 49 224 49 234 c 0
 49 238 53 268 63 278 c 1
 151.5 278 431.5 278 520 278 c 1
 525 278 529 272 529 265 c 0
 529 246.5 522 230 514 221 c 1
 476.5 221 55 221 55 221 c 1
EndSplineSet
EndChar

StartChar: oslash
Encoding: 248 248 182
Width: 554
Flags: HW
LayerCount: 2
Fore
SplineSet
251.5 223.5 m 17
 251.5 224 253.5 225 254 224.5 c 9
 262.5 210.5 l 17
 262 210.5 260.5 210 260 210.5 c 9
 251.5 223.5 l 17
EndSplineSet
Refer: 79 111 N 1 0 0 1 1 0 2
EndChar

StartChar: thorn
Encoding: 254 254 188
Width: 509
Flags: HW
LayerCount: 2
Fore
SplineSet
288.193 443 m 0
 410.693 443 476.693 331.5 476.693 233 c 0
 476.693 92 348.693 -8 237.193 -8 c 0
 210.193 -8 183.193 -0.5 173.193 2 c 1
 171.693 2 169.693 -2.5 169.693 -12.5 c 2
 169.693 -88 l 2
 169.693 -124.5 169.693 -154 176.193 -172 c 0
 180.193 -184 227.193 -188.5 239.693 -189 c 1
 244.193 -195 244.193 -216.5 239.693 -222 c 1
 199.693 -219 158.193 -216 117.693 -216 c 0
 77.1928 -216 36.1928 -219 -3.80713 -222 c 1
 -8.30715 -216.5 -8.30715 -195 -3.80713 -189 c 1
 8.69287 -188.5 55.6928 -184 59.6928 -172 c 0
 66.1928 -154 66.1928 -124.5 66.1928 -88 c 2
 66.1928 558 l 2
 66.1928 573.5 66.1928 593.5 60.1928 608 c 0
 54.6928 621 19.6929 626 -0.30713 626 c 1
 -2.80713 626 -4.30713 652.5 0.19287 655 c 1
 81.193 662.5 145.193 685 167.693 694.5 c 1
 173.193 694 180.193 684 180.693 678 c 1
 180.693 678 169.693 631 169.693 583.5 c 1
 169.693 499.5 169.693 401 169.693 389 c 0
 169.693 387.686 169.767 385.019 170.894 384.5 c 0
 171.736 383.105 172.964 383.271 174.193 384.5 c 0
 201.693 411 252.693 443 288.193 443 c 0
239.193 377 m 0
 200.193 377 169.693 353 169.693 343.5 c 2
 169.693 98 l 2
 169.693 52 215.193 31.5 250.193 31.5 c 0
 308.193 31.5 362.693 98.5 362.693 197 c 0
 362.693 308 317.693 377 239.193 377 c 0
EndSplineSet
EndChar

StartChar: gravecomb
Encoding: 768 768 190
Width: 251
Flags: HW
LayerCount: 2
Fore
SplineSet
46 659 m 0
 46 665.5 54.5 685.5 89.5 685.5 c 0
 103.5 685.5 118.5 681.5 123.5 676.5 c 0
 160.5 633.5 216.5 543.5 216.5 538.5 c 0
 216.5 532.5 209 523 202 523 c 0
 192 523 46 620 46 659 c 0
EndSplineSet
EndChar

StartChar: acutecomb
Encoding: 769 769 191
Width: 237
Flags: HW
LayerCount: 2
Fore
SplineSet
164.5 685.5 m 0
 199.5 685.5 208 665.5 208 659 c 0
 208 620 62 523 52 523 c 0
 45 523 37.5 532.5 37.5 538.5 c 0
 37.5 544 94 634.5 130.5 676.5 c 0
 135.5 681.5 150.5 685.5 164.5 685.5 c 0
EndSplineSet
EndChar

StartChar: uni2010
Encoding: 8208 8208 197
Width: 317
Flags: HW
LayerCount: 2
Fore
SplineSet
31 207 m 0
 31 255 40 264 43 264 c 2
 44 264 l 1
 285 276 l 1
 286 276 l 2
 288 276 292 275 292 267 c 0
 292 218 279 207 279 207 c 1
 38 196 l 1
 38 196 31 195 31 207 c 0
EndSplineSet
EndChar

StartChar: uni2011
Encoding: 8209 8209 198
Width: 317
Flags: HW
LayerCount: 2
Fore
SplineSet
31 207 m 0
 31 255 40 264 43 264 c 2
 44 264 l 1
 285 276 l 1
 286 276 l 2
 288 276 292 275 292 267 c 0
 292 218 279 207 279 207 c 1
 38 196 l 1
 38 196 31 195 31 207 c 0
EndSplineSet
EndChar

StartChar: figuredash
Encoding: 8210 8210 199
Width: 490
Flags: HW
LayerCount: 2
Fore
SplineSet
29 206 m 0
 29 208 32 265 43 265 c 2
 452.5 265 l 2
 454.5 265 458 264 458 257 c 0
 458 245.5 452.5 215 449.5 204 c 0
 447.5 198 442.5 197 442.5 197 c 1
 35 197 l 1
 35 197 29 196 29 206 c 0
EndSplineSet
EndChar

StartChar: endash
Encoding: 8211 8211 200
Width: 559
Flags: HW
LayerCount: 2
Fore
SplineSet
56 206 m 0
 56 208 59 265 70 265 c 2
 495 265 l 2
 497 265 501 264 501 256 c 0
 501 238 493 208 492 204 c 0
 490 198 485 197 485 197 c 1
 62 197 l 1
 62 197 56 196 56 206 c 0
EndSplineSet
EndChar

StartChar: emdash
Encoding: 8212 8212 201
Width: 896
Flags: HW
LayerCount: 2
Fore
SplineSet
55 211 m 0
 55 213 58 270 69 270 c 2
 832 270 l 2
 834 270 838 269 838 261 c 0
 838 243 830.5 213 829.5 209 c 0
 827.5 203 822 202 822 202 c 1
 61 202 l 1
 61 202 55 201 55 211 c 0
EndSplineSet
EndChar

StartChar: afii00208
Encoding: 8213 8213 202
Width: 1076
Flags: HW
LayerCount: 2
Fore
SplineSet
26 211 m 0
 26 213 29 270 40 270 c 2
 1043.5 270 l 1
 1044.5 270 1050.5 269.5 1050.5 261 c 0
 1050.5 243 1042.5 213 1041.5 209 c 0
 1039.5 203 1034.5 202 1034.5 202 c 1
 32 202 l 1
 32 202 26 201 26 211 c 0
EndSplineSet
EndChar

StartChar: quoteleft
Encoding: 8216 8216 203
Width: 181
Flags: HW
LayerCount: 2
Fore
SplineSet
39 555 m 0
 39 649 140 706 149 706 c 0
 157 706 165 699 169 688 c 1
 109 652 104 614.5 104 605.5 c 0
 104 585 116 571 126.5 558.5 c 0
 136.5 547 145.5 537.5 145.5 524.5 c 0
 145.5 500.5 114.5 478 82.5 478 c 0
 75.5 478 62 480.5 54 485 c 1
 45 498 39 527.5 39 555 c 0
EndSplineSet
EndChar

StartChar: quoteright
Encoding: 8217 8217 204
Width: 189
Flags: HW
LayerCount: 2
Fore
SplineSet
163 630 m 0
 163 536 62.5 479 53.5 479 c 0
 45.5 479 37 486 33 497 c 1
 93 533 98.5 570.5 98.5 579.5 c 0
 98.5 599.5 87 613.5 76.5 626 c 0
 66.5 637.5 57 647.5 57 660.5 c 0
 57 684.5 88 707 120 707 c 0
 127 707 140.5 704.5 148.5 700 c 1
 157.5 687 163 657.5 163 630 c 0
EndSplineSet
EndChar

StartChar: quotesinglbase
Encoding: 8218 8218 205
Width: 195
Flags: HW
LayerCount: 2
Fore
SplineSet
146.5 48.5 m 0
 146.5 -45.5 46 -102 37 -102 c 0
 29 -102 20.5 -95.5 16.5 -84.5 c 1
 76.5 -48.5 82 -11 82 -2 c 0
 82 18 70 32 59.5 44.5 c 0
 49.5 56 40.5 66 40.5 79 c 0
 40.5 103 71.5 125.5 103.5 125.5 c 0
 110.5 125.5 124 123 132 118.5 c 1
 141 105.5 146.5 76 146.5 48.5 c 0
EndSplineSet
EndChar

StartChar: quotedblleft
Encoding: 8220 8220 206
Width: 327
Flags: HW
LayerCount: 2
Fore
SplineSet
185 555 m 0
 185 649 285.5 706 294.5 706 c 0
 302.5 706 311 699 315 688 c 1
 255 652 249.5 614.5 249.5 605.5 c 0
 249.5 586.5 258.5 573 268.5 562 c 0
 279.5 549.5 291 539 291 524.5 c 0
 291 500.5 260.5 478 228.5 478 c 0
 221.5 478 207.5 480.5 199.5 485 c 1
 190.5 498 185 527.5 185 555 c 0
39 555 m 0
 39 649 140 706 149 706 c 0
 157 706 165 699 169 688 c 1
 109 652 104 614.5 104 605.5 c 0
 104 585.5 114.5 572 125 560 c 0
 135.5 548 145.5 538 145.5 524.5 c 0
 145.5 500.5 114.5 478 82.5 478 c 0
 75.5 478 62 480.5 54 485 c 1
 45 498 39 527.5 39 555 c 0
EndSplineSet
EndChar

StartChar: quotedblright
Encoding: 8221 8221 207
Width: 335
Flags: HW
LayerCount: 2
Fore
SplineSet
235 630 m 0
 235 536 134 479 125 479 c 0
 117 479 109 486 105 497 c 1
 165 533 170 570.5 170 579.5 c 0
 170 599.5 158.5 613.5 148 626 c 0
 138 637.5 128.5 647.5 128.5 660.5 c 0
 128.5 684.5 159.5 707 191.5 707 c 0
 198.5 707 212 704.5 220 700 c 1
 229 687 235 657.5 235 630 c 0
237 630 m 0
 237 536 136.5 479 127.5 479 c 0
 119.5 479 111 486 107 497 c 1
 167 533 172.5 570.5 172.5 579.5 c 0
 172.5 598.5 163.5 612 153.5 623 c 0
 142.5 635.5 131 646 131 660.5 c 0
 131 684.5 162 707 194 707 c 0
 201 707 214.5 704.5 222.5 700 c 1
 231.5 687 237 657.5 237 630 c 0
EndSplineSet
EndChar

StartChar: quotedblbase
Encoding: 8222 8222 208
Width: 342
Flags: HW
LayerCount: 2
Fore
SplineSet
219 47 m 0
 219 -47 118 -103.5 109 -103.5 c 0
 101 -103.5 93 -97 89 -86 c 1
 149 -50 154 -12.5 154 -3.5 c 0
 154 16.5 142 30.5 131.5 43 c 0
 121.5 54.5 112.5 64.5 112.5 77.5 c 0
 112.5 101.5 143.5 124 175.5 124 c 0
 182.5 124 196 121.5 204 117 c 1
 213 104 219 74.5 219 47 c 0
221 48 m 0
 221 -46 120.5 -102.5 111.5 -102.5 c 0
 103.5 -102.5 95 -96 91 -85 c 1
 151 -49 156.5 -11.5 156.5 -2.5 c 0
 156.5 18.5 143.5 33 132.5 46 c 0
 123 57 115 66 115 78.5 c 0
 115 102.5 146 125 178 125 c 0
 185 125 198.5 122.5 206.5 118 c 1
 215.5 105 221 75.5 221 48 c 0
EndSplineSet
EndChar

StartChar: dagger
Encoding: 8224 8224 209
Width: 398
Flags: HW
LayerCount: 2
Fore
SplineSet
152.5 487 m 8
 166 487 172.5 492 182.5 505 c 1
 182.5 538 173 606 154 625 c 1
 154 646 175.5 662 198.5 662 c 0
 219.5 662 241 646 241 625 c 1
 222 606 212.5 538 212.5 505 c 1
 222.5 492 230.5 487 243.5 487 c 0
 276.5 487 305.5 501.5 324.5 520.5 c 1
 345.5 520.5 362.5 497 362.5 476 c 0
 362.5 455 345.5 434.5 324.5 434.5 c 1
 305.5 453.5 277 463.5 243.5 464 c 24
 228 464 214.5 448 214.5 436 c 1
 221.5 419 234 394 246 365 c 1
 224 227 222 178 205.5 -3 c 1
 203 -9.5 202 -15 198 -16 c 1
 194 -15 192.5 -7.5 190 -3 c 1
 173.5 178 171 227 149 365 c 1
 160 390 173.5 419 180.5 436 c 1
 180.5 448 168 464 152.5 464 c 24
 119 463.5 90.5 453.5 71.5 434.5 c 1
 50.5 434.5 33.5 455 33.5 476 c 0
 33.5 497 50.5 520.5 71.5 520.5 c 1
 90.5 501.5 119.5 487 152.5 487 c 8
EndSplineSet
EndChar

StartChar: daggerdbl
Encoding: 8225 8225 210
Width: 417
Flags: HW
LayerCount: 2
Fore
SplineSet
255 327 m 1
 243 327 230.5 326 223.5 326 c 1
 223.5 326 237 326 252.5 326 c 24
 286 325.5 314.5 324.5 333.5 324.5 c 1
 354.5 324.5 371.5 327 371.5 327 c 0
 371.5 327 354.5 329.5 333.5 329.5 c 1
 314.5 329.5 285.5 328 252.5 328 c 0
 239.5 328 231.5 327 221.5 327 c 1
 221.5 327 231 327 250 327 c 1
 250 327 228.5 327 207.5 327 c 0
 184.5 327 163 327 163 327 c 1
 182 327 191.5 327 191.5 327 c 1
 181.5 327 175 328 161.5 328 c 16
 128.5 328 99.5 329.5 80.5 329.5 c 1
 59.5 329.5 42.5 327 42.5 327 c 0
 42.5 327 59.5 324.5 80.5 324.5 c 1
 99.5 324.5 128 325.5 161.5 326 c 24
 177 326 189.5 326 189.5 326 c 1
 182.5 326 169 327 158 327 c 1
 168 332 180.5 320 187 323.5 c 1
 180.5 327 174 313 158 319 c 1
 169 319 182.5 320 189.5 320 c 1
 189.5 320 177 320 161.5 320 c 24
 128 320.5 99.5 321.5 80.5 321.5 c 1
 59.5 321.5 42.5 319 42.5 319 c 0
 42.5 319 59.5 316.5 80.5 316.5 c 1
 99.5 316.5 128.5 318 161.5 318 c 8
 175 318 181.5 319 191.5 319 c 1
 191.5 319 182 319 163 319 c 1
 163 319 184.5 319 207.5 319 c 0
 228.5 319 250 319 250 319 c 1
 231 319 221.5 319 221.5 319 c 1
 231.5 319 239.5 318 252.5 318 c 0
 285.5 318 314.5 316.5 333.5 316.5 c 1
 354.5 316.5 371.5 319 371.5 319 c 0
 371.5 319 354.5 321.5 333.5 321.5 c 1
 314.5 321.5 286 320.5 252.5 320 c 24
 237 320 223.5 320 223.5 320 c 1
 230.5 320 243 319 255 319 c 1
 239.5 314 232 327 226 323.5 c 1
 231 321 243.5 333.5 255 327 c 1
EndSplineSet
EndChar

StartChar: bullet
Encoding: 8226 8226 211
Width: 324
Flags: HW
LayerCount: 2
Fore
SplineSet
37.5 263 m 0
 37.5 331 93.5 387.5 161.5 387.5 c 0
 229.5 387.5 284.5 331 284.5 263 c 0
 284.5 195 229.5 139 161.5 139 c 0
 93.5 139 37.5 195 37.5 263 c 0
EndSplineSet
EndChar

StartChar: onedotenleader
Encoding: 8228 8228 212
Width: 742
Flags: HW
LayerCount: 2
Fore
SplineSet
372 54 m 0
 372 50 367.5 45.5 363 45.5 c 1
 358 45.5 354 50 354 55.5 c 0
 354 59.5 358 62.5 362.5 62.5 c 1
 367.5 62.5 372 58 372 54 c 0
EndSplineSet
EndChar

StartChar: ellipsis
Encoding: 8230 8230 213
Width: 811
Flags: HW
LayerCount: 2
Fore
SplineSet
708 54 m 0
 708 50 705 45.5 700.5 45.5 c 1
 695.5 45.5 691 50 691 55.5 c 0
 691 59.5 695.5 62.5 700 62.5 c 1
 705 62.5 708 58 708 54 c 0
412.5 54 m 0
 412.5 50 409.5 45.5 405 45.5 c 1
 400 45.5 395.5 50 395.5 55.5 c 0
 395.5 59.5 400 62.5 404.5 62.5 c 1
 409.5 62.5 412.5 58 412.5 54 c 0
117 54 m 0
 117 50 114 45.5 109.5 45.5 c 1
 104.5 45.5 100 50 100 55.5 c 0
 100 59.5 104.5 62.5 109 62.5 c 1
 114 62.5 117 58 117 54 c 0
EndSplineSet
EndChar

StartChar: perthousand
Encoding: 8240 8240 214
Width: 1011
Flags: HW
LayerCount: 2
Fore
SplineSet
819.5 281.5 m 1
 765.5 281.5 751.5 217 751.5 163.5 c 0
 751.5 100 783 24.5 832.5 24.5 c 1
 886 24.5 897 89.5 897 142 c 0
 897 205 870.5 281.5 819.5 281.5 c 1
825.5 308.5 m 0
 915 308.5 977.5 239.5 977.5 153.5 c 0
 977.5 71.5 916 -3.5 826 -3.5 c 0
 738 -3.5 672.5 65 672.5 151 c 0
 672.5 237.5 737 308.5 825.5 308.5 c 0
408 628 m 1
 378.5 628 108.5 275 108.5 245.5 c 1
 106.5 208 118 165 134.5 165 c 0
 156 165 164.5 205 164.5 234 c 1
 164.5 267.5 422.5 525 422.5 554 c 1
 426.5 591 434 531.5 442.5 560.5 c 0
 447 594 434.5 630.5 408 628 c 1
340.5 459.5 m 1
 359.5 459.5 387.5 391 387.5 323.5 c 0
 387.5 254.5 370 178 348.5 178 c 1
 331.5 178 300.5 244.5 300.5 312 c 0
 300.5 386 320.5 459.5 340.5 459.5 c 1
487 296.5 m 0
 503.5 296.5 524 231.5 524 159.5 c 0
 524 83 511.5 9 492.5 9 c 0
 475 9 451 76 451 147 c 0
 451 222.5 469.5 296.5 487 296.5 c 0
336.5 462 m 1
 355.5 462 383.5 393.5 383.5 326 c 0
 383.5 257 365.5 180.5 344 180.5 c 1
 327 180.5 296 247 296 314.5 c 0
 296 388.5 316.5 462 336.5 462 c 1
400 632.5 m 1
 446 632.5 237 288.5 237 246 c 1
 235 201.5 192.5 162.5 142.5 162.5 c 0
 89 162.5 55.5 200 55 243 c 1
 55 285 351.5 637 400 632.5 c 1
EndSplineSet
EndChar

StartChar: minute
Encoding: 8242 8242 215
Width: 156
Flags: HW
LayerCount: 2
Fore
SplineSet
95 699 m 0
 110 699 130 691 130 671 c 0
 130 624 86.5 543.5 59 498 c 0
 55.5 492.5 50.5 489 46.5 489 c 0
 40.5 489 34.5 494 34.5 501 c 0
 34.5 504 40 612 48 666 c 0
 50 678 76 699 95 699 c 0
EndSplineSet
EndChar

StartChar: second
Encoding: 8243 8243 216
Width: 285
Flags: HW
LayerCount: 2
Fore
SplineSet
219 699 m 0
 234 699 253 691 253 671 c 0
 253 624 210.5 543.5 183 498 c 0
 179.5 492.5 174.5 489 170.5 489 c 0
 164.5 489 158 494 158 501 c 0
 158 504 164 612 172 666 c 0
 174 678 200 699 219 699 c 0
95 699 m 0
 110 699 129.5 691 129.5 671 c 0
 129.5 624 86.5 543.5 59 498 c 0
 55.5 492.5 50.5 489 46.5 489 c 0
 40.5 489 34.5 494 34.5 501 c 0
 34.5 504 40 612 48 666 c 0
 50 678 76 699 95 699 c 0
EndSplineSet
EndChar

StartChar: uni2038
Encoding: 8248 8248 217
Width: 413
Flags: HW
LayerCount: 2
Fore
SplineSet
260 44.5 m 0
 251 44.5 218.5 67 199 83.5 c 1
 147.5 14 82 -38 74 -40 c 1
 70 -42.5 73.5 -41 78 -42.5 c 1
 84.5 -36 165.5 20.5 200 69.5 c 1
 218 59 269 23.5 274.5 22 c 1
 288.5 23.5 287.5 23 312 -1.5 c 1
 319 -9.5 307 1.5 272.5 51 c 1
 271 50.5 265.5 44.5 260 44.5 c 0
EndSplineSet
EndChar

StartChar: guilsinglleft
Encoding: 8249 8249 218
Width: 310
Flags: HW
LayerCount: 2
Fore
SplineSet
133.5 335.5 m 1
 145 330 146.5 322.5 148.5 318.5 c 1
 214 275 249 234.5 223 205.5 c 1
 214.5 195 200 174 192.5 169.5 c 1
 190.5 172.5 187.5 184.5 169 202.5 c 1
 214 194 264.5 250 266.5 247.5 c 1
 264.5 246.5 247.5 249 241.5 248 c 1
 238.5 247 172.5 237 33.5 245 c 1
 29 244 133 337.5 133.5 335.5 c 1
EndSplineSet
EndChar

StartChar: guilsinglright
Encoding: 8250 8250 219
Width: 310
Flags: HW
LayerCount: 2
Fore
SplineSet
175.5 160.5 m 1
 164 161 162.5 162 160.5 162 c 1
 95 128 63 92 85.5 115 c 1
 82.5 115.5 117.5 164.5 115.5 169.5 c 1
 108 182 131.5 264 138.5 293 c 1
 90.5 339.5 43.5 397 41.5 404 c 1
 43.5 415 60.5 421 66.5 423 c 1
 70 420 143.5 344.5 274 265.5 c 1
 279.5 259.5 181.5 169.5 175.5 160.5 c 1
EndSplineSet
EndChar

StartChar: uni203E
Encoding: 8254 8254 220
Width: 561
Flags: HW
LayerCount: 2
Fore
SplineSet
-15.5 746.5 m 0
 -15.5 748.5 -12.5 804 -1.5 804 c 2
 580.5 804 l 2
 582.5 804 586.5 803 586.5 795 c 0
 586.5 777 579.5 747.5 578.5 743.5 c 0
 576.5 737.5 570.5 736.5 570.5 736.5 c 1
 -9.5 736.5 l 1
 -9.5 736.5 -15.5 736.5 -15.5 746.5 c 0
EndSplineSet
EndChar

StartChar: Euro
Encoding: 8364 8364 221
Width: 710
Flags: HW
LayerCount: 2
Fore
SplineSet
235.782 467 m 1
 275.282 467 482.782 464.5 523.782 457 c 1
 530.782 451.5 532.782 372 529.782 365 c 1
 529.782 360 333.282 358 328.282 358 c 1
 322.282 361 136.782 467 235.782 467 c 1
53.7817 343.5 m 1
 76.2818 343.5 423.782 343.5 436.282 343.5 c 1
 445.282 338 435.282 319.5 431.282 314.5 c 1
 430.282 311 236.782 304 231.782 298.5 c 1
 214.282 301.5 44.2817 338 53.7817 343.5 c 1
358.782 291.5 m 1
 373.282 286 535.282 221 534.782 218 c 0
 505.782 207 473.782 190.5 427.282 187.5 c 0
 333.782 184 256.282 248 251.282 330 c 1
 236.782 420 137.782 496 224.282 496 c 0
 254.782 496 296.782 497.5 326.782 494.5 c 1
 328.782 492.5 342.282 424.5 343.282 421.5 c 0
 344.282 422 335.282 411.5 330.282 414.5 c 1
 328.782 418 324.782 411.5 323.782 416.5 c 1
 319.782 439 297.282 480 228.782 483 c 0
 160.282 486.5 128.782 416.5 129.782 352 c 0
 130.782 280.5 162.782 197 238.282 200 c 0
 268.782 203.5 284.782 206 299.282 221 c 0
 320.782 243 331.782 273.5 333.782 280.5 c 1
 342.282 284 349.782 289.5 358.782 291.5 c 1
EndSplineSet
EndChar

StartChar: arrowleft
Encoding: 8592 8592 222
Width: 768
Flags: HW
LayerCount: 2
Fore
SplineSet
270 400.5 m 0
 270 391 260 384.5 200.5 326 c 1
 156 281.5 l 1
 728.5 281.5 l 1
 728.5 281.5 735.5 281.5 735.5 271.5 c 0
 735.5 253.5 728.5 224 727.5 220 c 0
 725.5 214 720.5 213 720.5 213 c 1
 155 213 l 1
 201.5 166.5 l 1
 258 111 269 104 269 94 c 0
 269 81.5 245.5 74.5 240 72.5 c 1
 239 74.5 181 131.5 34 226.5 c 1
 29 228.5 27 234.5 27 240.5 c 0
 27 250.5 28 259.5 35 267.5 c 1
 166 346.5 238 420 241 422.5 c 1
 251 420 270 411 270 400.5 c 0
EndSplineSet
EndChar

StartChar: arrowup
Encoding: 8593 8593 223
Width: 396
Flags: HW
LayerCount: 2
Fore
SplineSet
294 506.5 m 1
 286 506.5 292.5 222.5 231 280.5 c 1
 231 280.5 231 -11 226 -11 c 1
 217 -11 200 -11 193 -10.5 c 0
 181 -9.5 168 -3.5 166 -3 c 1
 163 -2 162.5 282 162.5 282 c 1
 146 548 l 1
 120 521 80.5 482.5 76.5 482.5 c 1
 41 453 38 467 31.5 470 c 1
 26 470.5 53.5 508.5 99.5 584.5 c 1
 101.5 587.5 133 617 183.5 690.5 c 1
 189.5 693 196.5 693.5 203.5 690 c 1
 248 624.5 289 589 295 583 c 1
 334 514.5 365 463.5 359.5 463 c 1
 353.5 456 346 473.5 320.5 500 c 1
 318.5 493 298.5 506.5 294 506.5 c 1
EndSplineSet
EndChar

StartChar: arrowright
Encoding: 8594 8594 224
Width: 767
Flags: HW
LayerCount: 2
Fore
SplineSet
550.5 187.5 m 1
 550.5 194.5 534 206.5 591.5 267.5 c 1
 564.5 293.5 266 303 266 307 c 1
 266 313 277 318.5 280 324 c 1
 282.5 331 321 307 387 269.5 c 1
 391.5 268.5 394.5 265 394.5 260 c 1
 394.5 257 678.5 254 676 253 c 1
 602.5 205.5 544.5 206.5 544 205.5 c 1
 513 234 496.5 238.5 496.5 250.5 c 0
 496.5 261 515.5 272 545 299.5 c 1
 545.5 298.5 592 286.5 665.5 239 c 1
 668 238 388 235.5 388 232.5 c 1
 388 227.5 385 223 380.5 222 c 1
 314.5 184.5 274 165 273.5 173.5 c 1
 266.5 180.5 277.5 179 277 178.5 c 1
 270 180.5 550.5 183 550.5 187.5 c 1
EndSplineSet
EndChar

StartChar: arrowdown
Encoding: 8595 8595 225
Width: 398
Flags: HW
LayerCount: 2
Fore
SplineSet
102 173 m 1
 109 173 104 456.5 165 399 c 1
 165 399 165 690.5 170 690.5 c 1
 179 690.5 195.5 690.5 202.5 690 c 0
 214.5 689 228 683.5 230 683 c 1
 233 682 233.5 397.5 233.5 397.5 c 1
 250 131.5 l 1
 276 158.5 315.5 197 319.5 197 c 1
 355.5 227 357 212.5 364.5 209.5 c 1
 370 209 342.5 171 296.5 95 c 1
 294.5 92 262.5 62.5 212 -11 c 1
 206 -13.5 199.5 -14 192.5 -10.5 c 1
 148 55 106.5 91 100.5 97 c 1
 61.5 165.5 31 216 36.5 216.5 c 1
 42.5 223.5 50 206 75.5 179.5 c 1
 77.5 186.5 97.5 173 102 173 c 1
EndSplineSet
EndChar

StartChar: partialdiff
Encoding: 8706 8706 227
Width: 489
Flags: HW
LayerCount: 2
Fore
SplineSet
328.5 218 m 1
 328.5 290.5 279 323.5 222.5 323.5 c 0
 170.5 323.5 143.5 263.5 143.5 204 c 0
 143.5 106.5 180.5 43.5 244.5 43.5 c 0
 301.5 43.5 328.5 124 328.5 218 c 1
210.5 0 m 0
 112.5 0 44 71.5 44 184 c 0
 44 285 124.5 368.5 237.5 368.5 c 0
 270.5 368.5 305 356.5 323.5 350 c 0
 328.5 348 333 355 333 361.5 c 1
 335 405.5 318 516 268 555.5 c 0
 238.5 580.5 209.5 588 181.5 588 c 1
 142 588 103 565 74 543 c 1
 70.5 546.5 62.5 562 68.5 572 c 0
 83.5 595 139.5 638 224.5 638 c 1
 379.5 638 434.5 438.5 434.5 288.5 c 1
 434.5 115.5 351 0 210.5 0 c 0
EndSplineSet
EndChar

StartChar: uni2206
Encoding: 8710 8710 228
Width: 676
Flags: HW
LayerCount: 2
Fore
SplineSet
514 75.5 m 2
 320.5 464 l 1
 316.5 467 312 468 308.5 462 c 2
 112.5 79.5 l 1
 110.5 72.5 115.5 68.5 120.5 68.5 c 2
 511 68.5 l 2
 515 68.5 515.5 71.5 514 75.5 c 2
350 613 m 1
 652 14 l 1
 652 14 646 8 644 0 c 1
 33 0 l 1
 29 6 28 9 24 16 c 1
 333 613 l 1
 350 613 l 1
EndSplineSet
EndChar

StartChar: gradient
Encoding: 8711 8711 229
Width: 676
Flags: HW
LayerCount: 2
Fore
SplineSet
161 566.5 m 2
 355 177.5 l 1
 359 174.5 363.5 174 367 180 c 2
 562.5 562.5 l 1
 564.5 569.5 560 573 555 573 c 2
 164.5 573 l 2
 160.5 573 159.5 570.5 161 566.5 c 2
325.5 28.5 m 1
 23.5 628 l 1
 23.5 628 29.5 634 31.5 642 c 1
 642.5 642 l 1
 646.5 636 647.5 632.5 651.5 625.5 c 1
 342.5 28.5 l 1
 325.5 28.5 l 1
EndSplineSet
EndChar

StartChar: element
Encoding: 8712 8712 230
Width: 455
Flags: HW
LayerCount: 2
Fore
SplineSet
386 218 m 0
 386 191 378 190.5 377 190 c 1
 101 190 l 2
 100 190 95 189 96 186 c 0
 108 123 155 64 222 64 c 2
 410 64 l 1
 410 64 425 59 425 24 c 0
 425 15 418 10.5 418 10.5 c 1
 224 10.5 l 2
 112 10.5 29 106.5 29 218.5 c 0
 29 327.5 105 425.5 214 425.5 c 2
 418 425.5 l 1
 418 425.5 425 421 425 409 c 0
 425 378 410 372 410 372 c 1
 214 372 l 2
 151 372 107 311 96 249 c 0
 96 246 98 244 101 244 c 2
 378 244 l 1
 378 243 386 235 386 218 c 0
EndSplineSet
EndChar

StartChar: notelement
Encoding: 8713 8713 231
Width: 452
Flags: HW
LayerCount: 2
Fore
SplineSet
385.5 218 m 0
 385.5 191 377.5 190.5 376.5 190 c 1
 244 190 l 1
 179.5 72.5 l 1
 192 67.5 206 64 221.5 64 c 2
 409.5 64 l 1
 409.5 64 424.5 59 424.5 24 c 0
 424.5 15 417.5 10.5 417.5 10.5 c 1
 223.5 10.5 l 2
 197.5 10.5 173.5 16 152 25 c 1
 130 -15.5 l 1
 128.5 -16.5 127 -17.5 123 -17.5 c 0
 120 -17.5 103 -13.5 90 2.5 c 0
 86 6.5 87 9.5 87 9.5 c 1
 109 50 l 1
 59.5 88 28.5 150 28.5 218.5 c 0
 28.5 327.5 104.5 425.5 213.5 425.5 c 2
 318 425.5 l 1
 346 475.5 l 1
 346 475.5 348.5 478.5 352.5 478.5 c 0
 364.5 478.5 375.5 470 383.5 461 c 0
 388.5 456 389 450.5 389 450.5 c 1
 375 425.5 l 1
 417.5 425.5 l 1
 417.5 425.5 424.5 421 424.5 409 c 0
 424.5 378 409.5 372 409.5 372 c 1
 345.5 372 l 1
 274.5 244 l 1
 377.5 244 l 1
 377.5 243 385.5 235 385.5 218 c 0
176.5 169.5 m 1
 238 280.5 l 1
 155 280.5 l 2
 123 280.5 101 253.5 95.5 221.5 c 0
 95.5 217 96.5 220 98 219 c 1
 98 216 156 188.5 176.5 169.5 c 1
179.5 176.5 m 1
 237 281.5 l 1
 159 281.5 l 2
 127 281.5 100.5 246.5 95.5 214 c 0
 98 199.5 172 186 179.5 176.5 c 1
EndSplineSet
EndChar

StartChar: summation
Encoding: 8721 8721 232
Width: 624
Flags: HW
LayerCount: 2
Fore
SplineSet
382.5 23.5 m 1
 345 23.5 270 25 241 25 c 0
 226.5 25 248.5 24 263 31.5 c 1
 271.5 37.5 282 58 290 88.5 c 0
 290.5 94.5 294.5 99.5 299 99.5 c 0
 309.5 99.5 332 109 338 113.5 c 1
 328.5 86.5 406 173 402.5 151 c 1
 350 153.5 261 160 214 162 c 0
 174 172 101.5 243.5 63 294.5 c 1
 55.5 304 41 317 35 321 c 0
 34 325 34 332.5 35 336 c 0
 40.5 339.5 52 353.5 57.5 360.5 c 1
 57.5 360.5 184 486.5 217.5 486.5 c 1
 265 488 344.5 492.5 397.5 494.5 c 1
 394.5 479.5 351 523 317 551.5 c 1
 309 558.5 289 566.5 279.5 566.5 c 0
 275 566.5 271.5 571 270.5 577 c 0
 258 605.5 234.5 632 202.5 633 c 1
 191.5 633 213 632 232.5 632 c 0
 261.5 632 325 633.5 378.5 629.5 c 1
 382 605 470.5 466.5 475 444 c 1
 474.5 439.5 472 435 468.5 432 c 0
 465 429.5 461 428.5 459 429.5 c 0
 409 407 335 343 330 339 c 0
 321.5 339.5 303.5 338 320 338 c 1
 337 338 315.5 338 329 338 c 1
 345 338 360.5 341 361 348.5 c 0
 353 353.5 352.5 370 360 388.5 c 1
 360.5 390.5 458 267 461.5 267 c 1
 467.5 264 477 259 478.5 254.5 c 1
 469 225 352 45.5 382.5 23.5 c 1
EndSplineSet
EndChar

StartChar: minus
Encoding: 8722 8722 233
Width: 609
Flags: HW
LayerCount: 2
Fore
SplineSet
292.773 218.5 m 1
 212.273 218.5 154.773 250.5 73.7735 250.5 c 1
 67.7735 250.5 303.273 276 310.273 278.5 c 1
 311.773 278.5 538.273 278.5 538.273 275 c 1
 545.273 271 536.273 253 533.773 244.5 c 1
 539.773 241.5 530.273 241.5 530.273 241.5 c 1
 537.273 241.5 302.273 241.5 302.273 241.5 c 1
 309.273 241.5 299.773 217 292.773 218.5 c 1
EndSplineSet
EndChar

StartChar: uni2213
Encoding: 8723 8723 234
Width: 534
Flags: HW
LayerCount: 2
Fore
SplineSet
396 394.5 m 1
 396 394.5 401 302.5 400 296.5 c 1
 396.5 272.5 386 270.5 362 266 c 1
 360.5 266 136 266 135 266 c 1
 132 266 128 267.5 129 276.5 c 1
 131.5 294.5 133 393.5 136 393.5 c 2
 136 394.5 132.5 396 133 396 c 2
 133 396 34.5 396 37.5 396 c 1
 37.5 396 31.5 396 34.5 401 c 1
 34.5 403 32 417.5 38.5 429.5 c 1
 39.5 432.5 39 432 42 432 c 1
 42 432 130.5 432 133.5 432 c 2
 135 432 133 434 136 435 c 2
 136 435 133 526 136 526 c 1
 136 526 132.5 528.5 138.5 529.5 c 1
 150.5 533 162 533.5 167 533.5 c 1
 172 533.5 169 530.5 172 530.5 c 1
 172 530.5 169 434.5 172 434.5 c 2
 172 433 169.5 432 174 432 c 2
 174 432 267 432 270 432 c 2
 272 432 271 432 274 428.5 c 1
 274 424 269 410 269 399 c 1
 268 396 262.5 396 265.5 396 c 1
 265.5 396 171 396 174 396 c 2
 172.5 396 396 395.5 396 394.5 c 1
392 404 m 1
 392 404 397 308.5 396 302.5 c 1
 392.5 278.5 389.5 268.5 365.5 264 c 1
 364 264 139.5 263.5 138.5 263.5 c 1
 135 263.5 132 265 133 274 c 1
 134 281 134 390.5 137 400.5 c 1
 138 404.5 140 405.5 137.5 405.5 c 1
 137.5 405.5 392 405 392 404 c 1
EndSplineSet
EndChar

StartChar: radical
Encoding: 8730 8730 235
Width: 515
Flags: HW
LayerCount: 2
Fore
SplineSet
8.5 159 m 1
 -5 165.5 -15 178 -15 185.5 c 0
 -15 195.5 -2.5 202.5 8 209 c 0
 42.5 230.5 133 295.5 147 307.5 c 0
 155 314.5 171 315 174 307 c 1
 183 274.5 191.5 253 198 237.5 c 2
 301 8 l 1
 309 51 446 791 446 791 c 1
 493.5 787.5 l 1
 493.5 787.5 343 -25 318 -153 c 1
 303 -171 283 -176.5 277 -176.5 c 0
 273 -176.5 268.5 -175.5 267 -171.5 c 2
 95 208 l 1
 8.5 159 l 1
EndSplineSet
EndChar

StartChar: proportional
Encoding: 8733 8733 236
Width: 670
Flags: HW
LayerCount: 2
Fore
SplineSet
366 170.5 m 1
 370.5 135.5 396 99 431 93.5 c 1
 464 83 483 110.5 500 130 c 1
 435 130.5 399.5 190.5 393.5 191 c 1
 377 210.5 344 262 309 262 c 1
 248.5 230.5 287 199.5 203 199.5 c 0
 121.5 199.5 155 245 120 292.5 c 0
 86 347 200 394 219.5 394 c 0
 234 394 338.5 355.5 324 331.5 c 0
 290.5 330.5 361.5 330 327 331 c 0
 314 357.5 415.5 394.5 419.5 394.5 c 0
 389 394.5 463.5 379 428.5 367.5 c 0
 394.5 364 462.5 357 425 357 c 0
 389 357 455 357 416.5 357 c 0
 349 357 380 301.5 345.5 301 c 0
 322.5 286 328 204.5 366 170.5 c 1
366 136 m 1
 300.5 101 292.5 145 313.5 145 c 1
 346.5 145 372.5 183.5 384.5 199 c 1
 358.5 168.5 291 196.5 203.5 196.5 c 0
 129 196.5 370.5 171.5 366 136 c 1
EndSplineSet
EndChar

StartChar: infinity
Encoding: 8734 8734 237
Width: 889
Flags: HW
LayerCount: 2
Fore
SplineSet
641 362 m 0
 580 362 518.5 277 493 246 c 0
 492 245 491.5 244.5 492.5 243.5 c 0
 526.5 199.5 587 106.5 656 106.5 c 0
 715 106.5 756.5 166 756.5 233 c 0
 756.5 304 704.5 362 641 362 c 0
128.5 229 m 0
 128.5 159 179.5 103.5 241 103.5 c 0
 307 103.5 359.5 179.5 393 218 c 0
 394 219 394 219 393 220 c 0
 368.5 251.5 304 357 234 357 c 0
 173 357 128.5 297 128.5 229 c 0
246 424 m 0
 343 424 414 341.5 455 293.5 c 0
 456 291.5 460 290.5 461 292.5 c 0
 503 345.5 571 424 668 424 c 0
 763 424 836.5 337 836.5 242 c 0
 836.5 132 746 41 636 41 c 0
 505 41 437 171 426 171 c 2
 425 171 l 1
 372 108 311 39 213 39 c 0
 118 39 49.5 128 49.5 223 c 0
 49.5 332 137 424 246 424 c 0
EndSplineSet
EndChar

StartChar: notequal
Encoding: 8800 8800 238
Width: 572
Flags: HW
LayerCount: 2
Fore
SplineSet
370 319 m 1
 512.5 319 l 2
 515.5 319 518.5 319.5 518.5 314 c 0
 518.5 305 514.5 283 508.5 261 c 0
 506.5 255 502.5 255 502.5 255 c 1
 333.5 255 l 1
 290 177 l 1
 510.5 177 l 2
 514.5 177 518.5 179 518.5 172 c 0
 518.5 163 514.5 141 508.5 119 c 0
 506.5 113 502.5 113 502.5 113 c 1
 254.5 113 l 1
 200 14.5 l 1
 198.5 13.5 197 12.5 193 12.5 c 0
 190 12.5 172.5 16.5 159.5 32.5 c 0
 155.5 36.5 156.5 39.5 156.5 39.5 c 1
 197.5 113 l 1
 57.5 113 l 1
 57.5 113 50.5 113 50.5 123 c 0
 50.5 127 52.5 148 59.5 172 c 0
 61.5 178 66.5 177 66.5 177 c 1
 233 177 l 1
 276.5 255 l 1
 57.5 255 l 1
 57.5 255 50.5 255 50.5 265 c 1
 50.5 267 53 294.5 60 314 c 0
 61.5 318.5 65 319 66 319 c 1
 312 319 l 1
 364.5 413 l 1
 364.5 413 367 416 371 416 c 0
 380 416 392 410.5 402.5 398.5 c 0
 407.5 393.5 408 388 408 388 c 1
 370 319 l 1
EndSplineSet
EndChar

StartChar: lessequal
Encoding: 8804 8804 239
Width: 516
Flags: HW
LayerCount: 2
Fore
SplineSet
431.5 62 m 1
 431.5 62 440.5 63 438.5 51 c 0
 431.5 3 426.5 9 423.5 6 c 1
 41.5 6 l 1
 41.5 6 32.5 5 34.5 19 c 0
 36.5 33 37.5 37 43.5 57 c 0
 45.5 63 50.5 62 50.5 62 c 1
 431.5 62 l 1
446.5 136 m 0
 446.5 129 436.5 86 430.5 86 c 0
 429.5 86 427.5 87 425.5 88 c 2
 50.5 279 l 2
 35.5 287 32.5 301 32.5 318 c 0
 32.5 329 40.5 337 50.5 342 c 2
 419.5 529 l 2
 421.5 530 423.5 531 424.5 531 c 0
 427.5 531 434.5 521 441.5 484 c 0
 442.5 478 438.5 475 438.5 475 c 1
 112.5 310 l 1
 443.5 142 l 1
 443.5 142 446.5 141 446.5 136 c 0
EndSplineSet
EndChar

StartChar: greaterequal
Encoding: 8805 8805 240
Width: 515
Flags: HW
LayerCount: 2
Fore
SplineSet
71.5 483 m 0
 71.5 501 83.5 531 87.5 531 c 0
 88.5 531 90.5 530 92.5 529 c 2
 462.5 342 l 2
 472.5 337 479.5 329 479.5 318 c 0
 479.5 301 477.5 287 462.5 279 c 2
 87.5 88 l 2
 82.5 86 81.5 82 76.5 95 c 0
 70.5 110 65.5 132 65.5 136 c 0
 65.5 140 68.5 142 68.5 142 c 1
 399.5 310 l 1
 74.5 475 l 1
 74.5 475 71.5 476 71.5 483 c 0
69.5 15 m 0
 69.5 16 73.5 62 84.5 62 c 2
 467.5 62 l 2
 469.5 62 473.5 61 473.5 54 c 0
 473.5 46 470.5 29 465.5 13 c 0
 463.5 7 458.5 6 458.5 6 c 1
 76.5 6 l 1
 76.5 6 69.5 5 69.5 15 c 0
EndSplineSet
EndChar

StartChar: propersubset
Encoding: 8834 8834 241
Width: 458
Flags: HW
LayerCount: 2
Fore
SplineSet
318.5 213 m 1
 287 213 263 183 263 134 c 1
 263 85 291 47 322 39 c 1
 321 36 412.5 35.5 412.5 35.5 c 1
 412.5 35.5 327 32 327 14.5 c 1
 271 10 225 52.5 225 108.5 c 1
 225 163 167 211.5 221.5 211.5 c 1
 205.5 211.5 224.5 260 224.5 316 c 1
 224.5 370.5 267.5 420.5 322 416 c 1
 322 412 422.5 403.5 420 395.5 c 1
 419 392.5 420 387.5 420 381.5 c 1
 420 366 314.5 362 314.5 362 c 1
 277 362 318.5 213 318.5 213 c 1
EndSplineSet
EndChar

StartChar: dotlessi
Encoding: 305 305 242
Width: 284
Flags: W
HStem: -3.5 33<25.1616 90.9742 207.909 270.224> 365 28.5<24.7947 86.6723> 421 20G<176.693 199.193>
VStem: 97.6928 103.5<36.9863 356.638>
LayerCount: 2
Fore
SplineSet
201.193 317 m 1
 201.193 130.5 l 2
 201.193 97 201.193 64.5 207.693 46.5 c 0
 211.693 34.5 255.193 30 267.693 29.5 c 1
 272.193 23.5 272.193 2 267.693 -3.5 c 1
 227.693 -0.5 189.693 2.5 149.193 2.5 c 0
 108.693 2.5 67.6928 -0.5 27.6929 -3.5 c 1
 23.1929 2 23.1929 23.5 27.6929 29.5 c 1
 40.1928 30 87.1928 34.5 91.1928 46.5 c 0
 97.6928 64.5 97.6928 94 97.6928 130.5 c 2
 97.6928 279 l 2
 97.6928 290.5 97.1928 332.5 90.6928 346 c 0
 83.1928 362 33.6928 365 26.6929 365 c 1
 24.1929 367 22.6929 391 27.1929 393.5 c 1
 90.693 400 157.193 421 196.193 441 c 1
 202.193 440 210.193 428.5 210.193 424.5 c 1
 208.193 417 202.193 377 201.693 365 c 1
 201.193 354 201.193 320 201.193 317 c 1
EndSplineSet
EndChar

StartChar: uni0302
Encoding: 770 770 243
Width: 365
Flags: HW
LayerCount: 2
Fore
SplineSet
266 492.5 m 0
 255 492.5 192.5 538.5 165 562.5 c 1
 137.5 537.5 76.5 492.5 65.5 492.5 c 0
 59.5 492.5 56.5 508 56.5 515.5 c 1
 63.5 524 83.5 544 116.5 586 c 0
 134 608.5 145 625 154.5 641 c 0
 158.5 648 160 651 165 651 c 1
 170 651 172 647 176 641 c 0
 187 624.5 197 607.5 212.5 587.5 c 0
 246 544 270 520.5 274 515.5 c 1
 274 506 271.5 492.5 266 492.5 c 0
EndSplineSet
EndChar

StartChar: tildecomb
Encoding: 771 771 244
Width: 693
Flags: HW
LayerCount: 2
Fore
SplineSet
138 621 m 0
 165.5 621 185 607 205 594 c 0
 226 579.5 254 565.5 269.5 565.5 c 0
 309.5 565.5 323.5 607 331 611.5 c 1
 337.5 611.5 338 605.5 338 601 c 0
 338 585.5 329 566.5 322.5 555.5 c 0
 304 528 280.5 511.5 254 511.5 c 0
 226.5 511.5 207.5 525 187.5 538 c 0
 166.5 552.5 142.5 567.5 122.5 567.5 c 0
 82.5 567.5 72.5 525.5 65 521 c 1
 58.5 521 56 529.5 56 534 c 0
 56 549.5 63 567 69.5 578 c 0
 88 605.5 111.5 621 138 621 c 0
EndSplineSet
EndChar

StartChar: f_f
Encoding: 61696 61696 245
Width: 606
Flags: HW
LayerCount: 2
Fore
SplineSet
450.568 389 m 1
 428.068 389 414.068 438.5 414.068 433.5 c 1
 414.068 435 413.068 401 411.568 401 c 1
 384.568 401 l 2
 385.568 401 384.068 397 384.068 392.5 c 0
 384.068 343 381.568 274.5 377.068 270 c 1
 377.068 253 324.068 238 327.568 224.5 c 1
 329.068 219 355.068 74.5 359.068 74.5 c 1
 361.568 59.5 361.068 30 362.568 19 c 1
 343.568 14.5 341.068 15 327.568 15 c 1
 308.568 12.5 282.568 0 259.068 -3.5 c 1
 236.068 0 220.568 17.5 203.568 17.5 c 0
 190.068 17.5 202.068 23 183.068 27.5 c 1
 183.568 43 184.568 74 186.568 80 c 1
 192.568 80 216.568 152.5 218.068 202.5 c 0
 220.568 212 219.568 228 218.068 243 c 2
 191.568 380.5 l 1
 190.568 380.5 101.068 381.5 101.068 383.5 c 1
 101.068 390 106.068 273 108.568 273 c 2
 108.568 258 129.068 244 131.568 236 c 1
 134.568 230.5 161.568 229.5 167.568 231 c 1
 169.568 228.5 170.068 222.5 167.568 220 c 1
 147.068 289.5 194.568 342 230.068 342 c 0
 241.068 342 263.068 337 259.068 319.5 c 1
 273.568 339 311.068 358.5 335.068 361 c 1
 371.568 361 417.568 355 424.068 352 c 1
 431.068 342.5 433.568 325.5 404.568 340.5 c 1
 379.568 340.5 376.068 512.5 353.068 512.5 c 1
 329.568 512.5 282.568 471 283.568 433 c 2
 282.568 433 282.568 413.5 282.568 417 c 1
 282.568 418.5 292.068 430.5 299.568 430.5 c 2
 371.068 430.5 l 1
 373.568 430.5 373.568 433 373.568 430 c 1
 373.568 480.5 427.068 523.5 470.568 516.5 c 1
 501.068 516.5 471.568 506 478.568 498.5 c 1
 490.568 516 514.568 532 539.568 530.5 c 0
 548.568 485.5 557.568 419 560.568 416.5 c 1
 562.568 395.5 563.568 376 567.068 357.5 c 0
 568.568 338 584.568 323 581.068 323 c 0
 577.068 323 569.568 311.5 565.068 313 c 1
 541.568 317.5 519.568 312.5 496.568 317 c 0
 472.568 320.5 452.568 309.5 428.068 313 c 1
 422.568 319 429.068 327 428.068 331.5 c 0
 431.068 335 462.568 334 460.568 344 c 0
 460.568 360.5 456.068 385.5 450.568 389 c 1
387.068 535.5 m 0
 388.068 539.5 390.068 543.5 390.068 547 c 0
 390.068 551.5 387.068 562 385.068 566 c 0
 378.068 579 354.568 622 302.568 622 c 0
 219.568 622 195.068 543.5 196.068 461 c 2
 196.568 433 l 1
 196.568 432 286.568 431 287.568 431 c 1
 373.068 448 l 2
 374.568 458 375.568 449.5 375.568 451 c 2
 375.568 461 375.568 451.5 375.568 451.5 c 1
 375.568 471 383.068 518 387.068 535.5 c 0
EndSplineSet
EndChar

StartChar: f_i
Encoding: 61697 61697 246
Width: 576
Flags: HW
LayerCount: 2
Fore
SplineSet
347.068 276.5 m 1
 370.068 276.5 403.568 350 422.068 355.5 c 1
 422.568 360.5 423.068 385 415.568 393.5 c 0
 410.568 402.5 403.068 395 388.568 392.5 c 0
 386.568 376.5 334.568 373.5 334.568 356.5 c 2
 333.068 356.5 331.568 242.5 331.568 241 c 1
 331.568 181 331.568 103.5 334.068 95.5 c 1
 335.568 73 359.568 55.5 369.068 42 c 1
 372.568 34 399.068 17.5 400.568 15 c 1
 382.568 16 368.568 2 348.068 -1 c 1
 308.068 0 266.568 1.5 226.568 0.5 c 1
 203.068 3 177.068 9.5 158.068 11 c 1
 161.568 13.5 185.568 32 189.568 37.5 c 0
 198.068 45.5 223.068 66.5 224.568 87 c 1
 227.568 100 228.068 216 228.068 219.5 c 2
 228.068 229 226.068 309.5 221.068 362 c 0
 216.068 372 198.068 375 182.068 375 c 1
 102.568 375 l 1
 101.568 375 101.068 245 101.068 247 c 1
 101.068 238.5 106.068 244 111.068 236 c 1
 112.568 230.5 159.068 228 165.068 228 c 1
 168.568 225.5 170.068 217.5 167.568 216.5 c 1
 147.068 217.5 131.568 221 112.068 221 c 0
 92.5678 286 140.568 347.5 194.068 346.5 c 1
 222.068 349 235.068 357 245.068 358 c 1
 272.068 354.5 312.068 344 313.568 329 c 0
 316.068 316.5 299.568 314 279.068 329 c 1
 262.068 329 249.568 470 244.068 483 c 1
 238.568 495.5 200.068 506 180.068 506 c 1
 150.068 506 126.068 465.5 127.068 431 c 1
 127.068 433.5 135.568 426.5 142.068 426.5 c 2
 142.068 425.5 159.568 424 160.568 424 c 1
 265.068 431.5 l 2
 267.568 489 337.568 563.5 411.568 569 c 0
 435.068 569 461.568 557 472.068 546.5 c 0
 485.068 537.5 495.568 520 495.568 506 c 0
 493.568 479.5 481.568 452.5 468.568 435.5 c 1
 456.068 435.5 449.568 354.5 445.568 364.5 c 1
 442.068 355 440.568 348 441.068 339 c 0
 436.068 342.5 455.068 341.5 441.068 341.5 c 0
 414.568 341.5 391.568 279 390.568 231.5 c 1
 370.068 232.5 341.568 211.5 322.068 211.5 c 1
 301.068 211.5 274.568 208.5 253.568 207.5 c 1
 251.068 210 251.068 226 253.568 226 c 1
 259.568 226 284.568 233 286.068 238.5 c 1
 289.068 251.5 347.068 273 347.068 276.5 c 1
EndSplineSet
EndChar

StartChar: f_f_i
Encoding: 61698 61698 247
Width: 871
Flags: HW
LayerCount: 2
Fore
SplineSet
486.875 368 m 1
 444.375 368 432.875 430.5 433.875 392.5 c 2
 433.875 396.5 433.875 387.5 428.375 395.5 c 1
 423.875 401 399.375 401 393.875 401 c 2
 427.875 401 l 2
 427.375 401 l 2
 427.375 286 l 1
 427.375 279 430.875 287 435.375 281 c 0
 436.875 277 459.875 274.5 463.875 277 c 0
 466.375 281 463.375 280 460.875 279.5 c 1
 435.875 288.5 507.875 361 486.875 368 c 1
337.375 388 m 1
 304.375 388 287.875 419 287.875 419 c 1
 287.875 420.5 286.875 397 285.375 397 c 2
 285.375 396 202.375 394.5 203.375 394.5 c 2
 201.875 394.5 296.875 393 296.875 391.5 c 1
 298.375 346.5 299.375 285.5 299.375 287 c 2
 299.375 270 299.375 257 302.875 243.5 c 1
 304.375 253.5 332.375 266 340.375 279.5 c 0
 343.875 282 343.375 270 342.375 268.5 c 1
 321.875 271.5 291.875 279.5 271.875 281 c 0
 247.875 285.5 224.875 276.5 203.375 277 c 1
 197.875 284 201.375 294 203.375 295.5 c 0
 206.375 300 234.875 301 235.875 308 c 0
 235.875 325.5 239.875 341 239.375 346 c 1
 236.375 350.5 239.875 414.5 239.375 460.5 c 0
 236.375 466.5 238.875 462.5 236.875 464 c 1
 233.875 468.5 210.875 462.5 210.375 464 c 1
 206.375 468.5 209.375 463.5 208.875 467 c 0
 205.875 478 214.375 492.5 216.375 494 c 1
 213.375 498.5 237.375 492.5 236.875 494 c 1
 235.375 498.5 239.875 494 239.375 497 c 1
 236.375 501.5 239.875 499 239.375 500.5 c 0
 236.375 573.5 302.875 618.5 357.375 620 c 0
 384.875 624.5 423.375 615 439.375 600 c 1
 453.375 621.5 506.875 625.5 528.375 627 c 0
 556.375 631.5 572.875 624 580.375 624 c 0
 598.375 625 617.875 606 617.375 587 c 0
 614.375 571 601.375 548.5 580.375 550 c 0
 560.375 554.5 551.375 558.5 545.375 573 c 0
 536.875 590 530.875 594.5 510.375 596 c 0
 478.375 600.5 458.375 553 458.875 516.5 c 1
 455.875 521 459.875 494.5 459.375 496 c 1
 456.375 499.5 461.375 492 461.875 493.5 c 1
 458.875 498 566.875 492 566.375 493.5 c 1
 565.875 498 593.875 492.5 609.375 499.5 c 0
 606.875 504 615.375 499.5 615.375 501 c 0
 616.375 505.5 622.875 493.5 622.375 492.5 c 0
 617.375 481 617.875 458 617.375 442.5 c 1
 614.375 447 617.875 351 617.375 352.5 c 1
 614.375 340 618.375 319.5 621.375 307 c 0
 619.875 306 645.875 293 649.375 294.5 c 0
 648.875 299 651.875 279 650.375 277.5 c 1
 626.875 283 604.375 280 584.375 281.5 c 0
 560.375 286 540.875 277 519.375 277.5 c 1
 513.875 284.5 517.375 293 519.375 294.5 c 0
 522.375 299 547.375 300 548.375 307 c 0
 548.375 324.5 552.875 340 552.375 345 c 1
 549.375 349.5 552.875 416.5 552.375 418 c 1
 549.375 427.5 551.875 445.5 543.375 455.5 c 0
 532.375 469 528.375 463.5 513.875 465 c 0
 510.875 469.5 462.875 463.5 462.375 465 c 1
 457.875 469.5 459.875 462 459.375 461.5 c 0
 456.375 421 459.875 352 459.375 353.5 c 1
 456.375 341 459.875 320 462.875 308 c 0
 461.375 307 490.875 294 494.375 295.5 c 0
 493.875 300 496.875 278.5 495.375 277 c 1
 471.875 282.5 446.875 279.5 426.875 281 c 0
 402.875 285.5 379.875 276.5 358.375 277 c 1
 352.875 284 356.375 294 358.375 295.5 c 0
 361.375 300 389.875 301 390.875 308 c 0
 390.875 325.5 379.875 384.5 337.375 388 c 1
EndSplineSet
EndChar

StartChar: f_l
Encoding: 61699 61699 248
Width: 587
Flags: HW
LayerCount: 2
Fore
SplineSet
251.25 125 m 2
 251.25 125 251.75 395.5 251.75 440 c 1
 251.75 455.5 249.75 466.5 242.25 480 c 1
 236.75 492.5 200.75 503 180.75 503 c 1
 150.75 503 126.75 462.5 127.75 426.5 c 1
 127.75 433 133.25 426.5 135.75 426.5 c 2
 135.75 425.5 157.75 424 158.75 424 c 2
 160.25 424 216.75 425.5 216.75 427 c 2
 219.25 427 219.25 433 219.25 430 c 1
 219.25 498 269.25 540.5 312.75 533.5 c 1
 327.75 533.5 295.25 522 308.25 522 c 1
 322.75 522 338.75 531.5 340.25 530 c 1
 340.25 485 341.75 421.5 341.75 421.5 c 2
 344.75 404.5 347.25 384 351.25 368 c 1
 352.75 362.5 373.25 339.5 377.25 312 c 1
 379.75 312 379.25 68.5 378.25 65.5 c 1
 357.75 50 329.75 38.5 313.75 25 c 0
 294.25 19.5 292.25 12 275.25 11 c 1
 275.25 13.5 275.25 18 276.75 15 c 1
 262.75 16 273.25 24.5 255.75 30 c 0
 238.25 43 225.25 63 204.75 65.5 c 1
 202.25 68 202.25 151 204.75 195.5 c 0
 210.75 197 232.75 203.5 232.75 209 c 1
 235.75 221.5 209.75 237 209.75 244 c 2
 208.75 244 208.25 437.5 208.25 439.5 c 1
 208.25 451.5 211.25 497 210.25 504.5 c 1
 205.25 515 200.75 543 175.25 543 c 1
 146.25 543 131.75 498.5 131.75 455.5 c 2
 131.75 432 l 1
 131.75 496 194.25 557.5 269.25 557.5 c 1
 281.25 557.5 349.25 548.5 357.25 548.5 c 1
 380.25 548.5 411.75 556.5 413.25 553.5 c 1
 413.25 549 411.75 540.5 408.25 533.5 c 1
 411.25 533.5 362.75 527.5 363.25 525 c 1
 361.75 525 354.75 501 354.75 471.5 c 2
 354.75 142 l 1
 355.25 108.5 355.25 79 362.25 52 c 0
 365.25 41 415.75 29.5 423.75 29.5 c 0
 428.75 29.5 428.25 2.5 426.25 -3.5 c 1
 385.75 -1.5 342.75 3 304.25 3 c 0
 262.75 3 222.75 -1.5 181.25 -3.5 c 1
 176.25 1.5 176.25 29.5 181.25 29.5 c 0
 193.25 29.5 241.25 41 244.25 52 c 0
 250.25 77.5 251.25 114.5 251.25 125 c 2
EndSplineSet
EndChar

StartChar: f_f_l
Encoding: 61700 61700 249
Width: 879
Flags: HW
LayerCount: 2
Fore
SplineSet
598.875 132.5 m 2
 598.875 115.5 598.875 293 602.375 279.5 c 1
 603.875 279.5 627.875 298.5 628.375 306 c 0
 625.875 316.5 600.375 329 573.875 326 c 1
 522.875 327 478.875 284 459.375 239.5 c 1
 438.375 239.5 411.875 211 390.875 210 c 1
 388.375 211.5 389.875 226 393.375 226 c 1
 399.375 226 479.875 233 481.375 238.5 c 1
 486.875 251.5 487.375 272.5 487.375 273 c 1
 487.375 268.5 484.875 330 481.375 367.5 c 1
 481.375 369 428.875 371 427.375 371 c 2
 425.875 371 339.375 369.5 339.375 368 c 1
 337.375 323 337.875 251 337.875 249.5 c 1
 337.875 188 338.375 111 341.875 97.5 c 1
 343.375 75 365.875 55.5 373.375 42 c 0
 377.375 36.5 403.375 18 406.375 15 c 1
 388.875 16 374.875 2 353.875 -1 c 1
 312.875 0 272.875 1.5 232.875 0.5 c 1
 210.875 1.5 183.375 2 162.375 4 c 1
 159.875 9.5 160.875 29.5 164.375 29.5 c 0
 176.375 29.5 222.875 41 225.875 52 c 0
 232.875 80.5 233.875 113.5 233.875 134.5 c 2
 233.875 134.5 233.875 319.5 233.875 364 c 1
 233.875 367 231.875 371 228.875 371 c 2
 106.875 371 l 2
 103.875 371 101.875 370.5 101.875 371 c 0
 101.875 332.5 107.875 282.5 110.375 282.5 c 2
 110.375 266 131.375 251.5 134.875 238 c 1
 137.875 232.5 161.375 229.5 165.375 231 c 1
 167.875 231 167.875 223 166.875 220 c 1
 146.875 289.5 196.375 341.5 231.375 342 c 0
 241.375 342 264.875 337 260.875 319.5 c 1
 276.875 337.5 301.375 351 348.875 354 c 0
 360.875 357 374.375 352 383.375 352 c 0
 409.875 352 460.875 365 466.875 370.5 c 0
 473.875 386 477.375 391.5 477.875 406.5 c 1
 477.875 406.5 472.375 499 472.375 471 c 2
 472.375 472.5 471.375 259 469.875 259 c 2
 469.875 242 443.875 228 447.375 214 c 1
 447.875 208.5 469.875 202.5 473.875 204.5 c 0
 476.375 211 480.875 211 482.375 208 c 1
 461.875 209 456.375 212 436.875 212 c 1
 417.375 212 395.375 210.5 374.375 211 c 1
 371.875 213.5 371.875 234.5 374.375 234.5 c 1
 380.375 307 459.875 363 508.375 368.5 c 0
 548.375 381.5 570.875 377 575.875 372 c 1
 594.875 398 621.375 605 646.375 605 c 1
 661.375 619 679.375 616.5 686.375 630 c 0
 696.875 642.5 704.875 664 686.375 664 c 1
 657.375 664 635.375 622.5 636.375 584.5 c 2
 639.375 584.5 642.375 558.5 642.875 556 c 1
 642.875 555 638.875 537.5 639.875 510 c 2
 695.375 282 l 2
 697.875 265.5 698.375 250.5 701.875 234 c 0
 703.375 224 725.375 205 725.875 198 c 1
 728.375 198 676.875 186.5 675.875 183.5 c 1
 654.375 184.5 638.375 184.5 619.375 183 c 0
 598.875 138 598.875 125.5 598.875 132.5 c 2
356.375 589 m 0
 310.875 593 287.875 596.5 246.375 558.5 c 1
 213.375 558.5 197.375 499 197.375 454.5 c 2
 197.375 453.5 197.375 427 199.875 427 c 2
 199.875 426 286.375 424.5 287.375 424.5 c 2
 288.875 424.5 386.375 425.5 386.375 427 c 2
 387.875 427 388.375 430.5 388.875 433 c 1
 388.875 442.5 393.875 500 398.875 521 c 0
 399.875 525 400.375 530.5 400.375 534.5 c 0
 400.375 540.5 397.375 547.5 395.875 551.5 c 0
 390.875 561.5 377.875 587.5 356.375 589 c 0
EndSplineSet
EndChar

StartChar: f_b
Encoding: 61701 61701 250
Width: 847
Flags: HW
LayerCount: 2
Fore
SplineSet
93.875 134.5 m 2
 93.875 134.5 94.375 276 94.375 365 c 0
 94.375 368 92.375 372 89.375 372 c 2
 36.375 372 l 2
 34.375 372 33.375 374 33.375 378 c 0
 33.375 391 43.375 424.5 48.375 424.5 c 2
 89.375 424.5 l 2
 92.375 424.5 94.375 427.5 94.375 430.5 c 2
 94.375 439 l 1
 94.375 576.5 207.875 695.5 328.875 695.5 c 0
 355.875 695.5 387.375 675 408.375 675 c 0
 444.875 675 491.875 694.5 497.875 694.5 c 1
 500.875 694.5 505.375 688.5 505.875 686 c 1
 508.875 686 505.875 658 506.375 627.5 c 1
 506.375 627.5 500.875 535 500.875 507.5 c 2
 500.875 505 500.875 406 503.875 408.5 c 1
 511.375 412 526.875 419 554.875 421.5 c 0
 622.375 427.5 694.875 404 710.875 335 c 0
 780.875 266 760.375 166.5 695.375 109.5 c 0
 652.375 45 612.875 2 520.375 2 c 0
 479.375 2 445.375 -1 431.875 -1 c 1
 423.875 -1 414.375 -8.5 411.375 -8.5 c 1
 407.875 -6 394.875 -1 396.375 4.5 c 1
 397.375 21 389.375 35.5 389.375 66 c 1
 389.375 70 397.375 283.5 397.375 325 c 1
 397.375 339 396.375 531.5 390.375 545 c 1
 384.875 563 373.375 599 349.875 606.5 c 0
 315.875 617 267.375 603.5 242.875 565.5 c 1
 212.375 565.5 197.375 499 197.375 454.5 c 2
 197.375 453.5 198.875 426.5 199.875 426.5 c 2
 199.875 425.5 256.875 424 257.875 424 c 2
 260.375 424 315.875 423.5 315.875 420.5 c 1
 318.375 416 315.875 402 312.375 392 c 1
 312.375 387.5 258.375 379 254.875 372 c 1
 253.375 372 200.375 370.5 200.375 369 c 1
 198.875 324 197.375 259 197.375 257.5 c 1
 197.375 195.5 197.875 110 201.375 96.5 c 1
 202.875 74.5 229.375 53 236.875 39.5 c 0
 240.875 34 262.875 14 265.875 11 c 1
 247.875 12 219.375 3.5 198.875 0.5 c 1
 157.875 1.5 117.875 0 76.875 -1 c 1
 53.875 1.5 42.375 16 24.375 15 c 1
 29.375 16 53.375 26.5 54.875 35 c 0
 57.875 51 93.875 113.5 93.875 134.5 c 2
500.875 317 m 2
 500.875 100 l 2
 500.875 64.5 535.375 41.5 603.375 41.5 c 0
 671.875 41.5 696.875 119.5 696.875 201 c 0
 696.875 312.5 647.375 379 575.875 379 c 0
 532.875 379 500.875 356 500.875 317 c 2
EndSplineSet
EndChar

StartChar: f_f_b
Encoding: 61702 61702 251
Width: 1141
Flags: HW
LayerCount: 2
Fore
SplineSet
388.875 134.5 m 2
 388.875 134.5 388.875 319.5 388.875 364 c 1
 388.875 367 386.875 371 383.875 371 c 2
 203.375 371 l 2
 199.375 371 197.375 368 197.375 365 c 0
 197.375 275 198.375 142 198.375 142 c 2
 198.375 108.5 198.875 79 205.875 52 c 0
 208.875 41 257.375 29.5 265.375 29.5 c 0
 270.375 29.5 269.875 2.5 267.875 -3.5 c 1
 227.375 -1.5 185.375 3 145.875 3 c 0
 104.375 3 66.375 -1.5 24.875 -3.5 c 1
 21.375 0 20.375 19.5 22.875 22.5 c 0
 28.875 25.5 54.875 36.5 57.375 42 c 0
 66.375 55 88.375 81 89.875 90 c 1
 93.875 105.5 94.375 187 94.375 249 c 1
 94.375 250.5 93.375 367.5 91.875 367.5 c 2
 91.875 369 64.375 371 62.875 371 c 2
 61.875 371 34.875 372 34.875 374 c 1
 33.875 380.5 38.375 402 40.875 404 c 1
 40.875 410.5 66.375 424.5 68.875 424.5 c 2
 70.375 424.5 91.875 426 91.875 427.5 c 2
 93.375 427.5 94.375 432.5 94.375 434 c 1
 94.375 502.5 157.375 559.5 212.375 560 c 1
 242.875 632.5 335.875 678 399.375 661.5 c 1
 453.375 678.5 500.375 663 552.875 654.5 c 1
 583.875 680.5 622.875 686.5 655.875 686.5 c 0
 691.375 686.5 739.875 683.5 757.375 683.5 c 0
 776.375 683.5 796.875 688.5 798.875 686 c 1
 798.875 686 794.875 663.5 794.875 635.5 c 2
 797.875 635.5 800.375 553.5 800.875 551 c 1
 800.875 548.5 795.375 526 798.375 501 c 1
 805.875 507 821.375 427.5 846.375 427.5 c 1
 906.375 425 950.375 379.5 953.375 313 c 0
 960.875 250 938.375 215 889.375 215 c 0
 916.375 215 954.375 175.5 925.375 118.5 c 0
 916.375 54 855.375 -7.5 788.875 -7.5 c 1
 756.875 -7.5 733.875 -1 723.375 -1 c 1
 711.875 1.5 692.875 -1 691.375 4.5 c 1
 695.375 20.5 694.875 34.5 694.875 60 c 1
 691.875 60.5 683.875 254.5 683.875 259.5 c 0
 683.875 277.5 690.875 306.5 684.875 361.5 c 1
 679.375 374 669.875 567.5 649.875 567.5 c 1
 620.875 577.5 595.375 557.5 592.875 527 c 1
 587.875 537.5 563.375 545 537.875 545 c 1
 507.375 544 493.375 496.5 494.375 452 c 2
 549.875 426.5 l 2
 552.375 425.5 553.875 423.5 554.875 420.5 c 1
 554.875 416 607.875 401.5 604.375 394.5 c 1
 606.875 394.5 555.375 394 555.375 391 c 1
 553.875 386.5 549.875 376.5 546.375 368 c 1
 546.375 323 494.875 260.5 494.875 260.5 c 2
 493.375 243.5 491.875 227 495.375 212 c 0
 496.875 161.5 523.875 84 527.875 84 c 1
 530.375 67.5 530.375 37.5 532.875 21 c 1
 513.875 16.5 507.875 15 492.375 15 c 0
 473.875 15 447.375 0.5 425.375 -3.5 c 1
 402.875 0 389.375 17.5 371.875 17.5 c 0
 357.375 17.5 370.875 23 351.875 27.5 c 1
 353.875 41.5 388.875 113.5 388.875 134.5 c 2
616.875 433 m 1
 613.875 437.5 602.375 377.5 559.875 377.5 c 1
 526.875 362 519.375 305.5 553.875 261 c 1
 583.375 261 594.375 269.5 594.375 310.5 c 1
 594.375 359.5 579.875 398 555.375 398 c 1
 529.375 398 617.375 453.5 616.875 433 c 1
534.875 473 m 1
 492.375 472.5 480.875 319 481.875 281 c 2
 481.875 261 507.875 235 541.375 235 c 1
 580.375 234 594.375 277 596.875 317.5 c 1
 596.875 379 648.375 405.5 602.375 405.5 c 1
 586.875 405.5 650.875 406.5 604.875 408 c 1
 587.875 408 650.875 409 604.875 409 c 0
 587.875 418.5 653.875 441 608.875 448.5 c 0
 591.875 450 655.375 452 609.375 454.5 c 0
 592.375 458.5 652.375 469 604.875 471.5 c 0
 582.875 479.5 555.875 490 534.875 473 c 1
EndSplineSet
EndChar

StartChar: f_k
Encoding: 61703 61703 252
Width: 856
Flags: HW
LayerCount: 2
Fore
SplineSet
454.375 259 m 1
 449.875 239 408.375 195 384.375 153 c 1
 423.375 107 486.875 53.5 504.375 43.5 c 1
 516.875 35 542.375 13.5 545.375 10.5 c 1
 526.375 11.5 498.375 10 478.875 6.5 c 0
 457.875 4 431.375 -1 409.875 -3 c 1
 387.375 0.5 371.875 18 355.375 18 c 0
 340.875 18 354.875 23.5 335.875 28 c 1
 336.375 43.5 336.875 76 339.375 79.5 c 1
 344.875 79.5 357.375 153 357.375 201 c 0
 357.375 203 356.375 205.5 354.375 206 c 2
 254.875 285 l 1
 253.875 285 247.375 284.5 247.375 286.5 c 1
 247.375 293 252.375 282.5 254.875 282.5 c 1
 255.375 266 275.875 251.5 279.375 238 c 1
 282.375 232.5 307.875 229.5 311.875 231 c 1
 314.375 231 314.375 221.5 313.375 218.5 c 1
 293.375 284.5 339.875 349 394.875 349 c 0
 386.375 349 385.375 338.5 372.875 337.5 c 1
 390.875 340 420.375 360.5 427.375 360.5 c 0
 436.375 360.5 462.375 359 464.375 362 c 1
 467.375 374.5 462.375 367.5 462.375 346.5 c 2
 462.375 379.5 l 1
 466.375 386 473.375 413.5 473.875 425.5 c 0
 513.875 475 502.875 512 477.375 522 c 0
 446.875 532 411.375 482.5 408.375 440 c 1
 406.875 444.5 406.875 431.5 409.375 432.5 c 1
 409.375 431.5 446.875 429.5 468.875 429.5 c 1
 486.875 429.5 553.875 429.5 576.375 430.5 c 1
 582.875 428 580.875 411.5 579.375 408.5 c 0
 564.875 404 547.875 387.5 538.375 377 c 1
 527.875 371 445.875 351 418.375 322.5 c 1
 454.375 282 498.875 224 512.375 212.5 c 1
 522.375 159 540.875 84 544.875 84 c 1
 546.375 67.5 547.875 47 551.375 30 c 0
 552.875 22 574.875 12.5 578.375 11.5 c 1
 560.875 12.5 536.875 3 516.875 0 c 1
 476.375 1 437.375 0 396.875 -1 c 1
 373.875 1.5 362.375 16 344.375 15 c 1
 348.875 16 360.375 22.5 360.375 29 c 0
 360.375 32.5 361.375 37 361.875 37.5 c 1
 367.875 37.5 316.375 125.5 317.875 131 c 1
 321.875 146.5 316.875 156.5 316.875 174 c 1
 316.875 174 317.375 212.5 317.375 257 c 1
 317.375 241.5 316.375 228.5 318.375 215 c 1
 319.875 209.5 319.375 202.5 323.375 202.5 c 1
 324.875 202.5 323.875 188 322.875 187 c 1
 302.375 194.5 278.875 211.5 261.875 211.5 c 1
 240.875 211.5 234.875 208.5 213.875 207.5 c 1
 212.875 210 213.875 227.5 216.375 229 c 1
 222.375 229 247.375 242.5 248.875 248 c 1
 251.875 333.5 304.875 411 351.875 414.5 c 1
 366.875 414.5 385.875 593.5 398.875 593.5 c 1
 414.875 607 431.375 627.5 426.875 641 c 1
 421.375 653.5 413.375 664 393.375 664 c 1
 367.375 664 346.375 617 347.875 576.5 c 1
 347.875 576.5 342.875 540 342.875 512.5 c 2
 342.875 511.5 344.375 335 345.375 335 c 1
 349.375 336 409.375 336 413.375 339.5 c 1
 459.875 378 477.875 387.5 477.875 394.5 c 0
 477.875 400 454.875 381.5 449.375 378.5 c 1
 447.875 383 395.875 389 398.375 390 c 1
 396.875 390 434.875 388.5 434.875 387 c 1
 452.375 342 459.875 262.5 454.375 259 c 1
EndSplineSet
EndChar

StartChar: f_f_k
Encoding: 61704 61704 253
Width: 1150
Flags: HW
LayerCount: 2
Fore
SplineSet
691.875 315.5 m 2
 691.875 329 690.875 531 684.875 544.5 c 1
 679.375 562.5 667.875 599 644.375 606.5 c 0
 610.875 617 561.875 603.5 537.375 565.5 c 1
 506.875 565.5 491.875 499 491.875 454.5 c 2
 491.875 453.5 493.375 426.5 494.375 426.5 c 2
 494.375 425.5 551.375 424 552.375 424 c 2
 554.875 424 610.375 423.5 610.375 420.5 c 1
 612.875 416 610.375 401 606.875 391 c 1
 606.875 386.5 552.875 378 549.375 371 c 1
 547.875 371 494.875 369.5 494.875 368 c 1
 493.375 323 491.875 259 491.875 257.5 c 1
 491.875 195.5 492.875 110 496.375 96.5 c 1
 497.875 74.5 524.375 53 531.875 39.5 c 0
 535.875 34 557.875 14 560.875 11 c 1
 542.875 12 514.375 3.5 493.875 0.5 c 1
 452.875 1.5 412.875 0 371.875 -1 c 1
 348.875 1.5 337.375 16 319.375 15 c 1
 324.375 16 348.375 26.5 349.875 35 c 0
 352.875 51 354.375 76.5 355.375 80 c 1
 361.375 80 382.875 154.5 384.375 204.5 c 0
 388.375 221.5 387.375 235 386.375 252.5 c 1
 301.375 367.5 l 2
 299.375 369 297.875 369.5 296.375 368 c 1
 296.375 323 200.875 260.5 200.875 260.5 c 2
 198.875 243.5 197.375 227 200.875 212 c 0
 202.375 161.5 229.375 84 233.375 84 c 1
 235.875 67.5 235.875 37.5 238.375 21 c 1
 219.375 16.5 213.375 15 197.875 15 c 0
 179.375 15 152.875 0.5 130.875 -3.5 c 1
 108.375 0 94.875 17.5 77.375 17.5 c 0
 62.875 17.5 76.375 23 57.375 27.5 c 1
 59.375 41.5 58.875 66.5 58.875 72.5 c 1
 58.875 75.5 59.875 150 60.875 194.5 c 0
 66.875 196 87.375 202.5 87.375 208 c 1
 91.375 223.5 64.875 235 65.375 252.5 c 1
 64.375 252.5 63.875 368.5 63.875 370.5 c 1
 63.875 378.5 67.875 401 68.875 401 c 2
 62.875 401 l 2
 63.375 401 63.875 403.5 63.875 407 c 1
 63.875 413.5 68.875 431 71.375 431 c 1
 71.375 499.5 154.875 550 209.875 550.5 c 1
 241.875 550.5 277.875 548.5 294.375 533.5 c 1
 311.375 550.5 336.875 567 384.375 567 c 1
 396.375 639.5 466.875 679.5 521.875 679.5 c 0
 579.375 679.5 630.375 662.5 639.875 654 c 1
 661.875 680 691.375 689 716.875 686.5 c 1
 731.875 686.5 745.875 652.5 758.375 624.5 c 1
 774.375 624.5 791.875 476.5 793.375 476.5 c 1
 797.375 477.5 807.875 479.5 811.875 483 c 1
 859.375 521.5 876.375 525.5 876.875 533 c 1
 876.875 543 851.375 523.5 848.375 498 c 1
 846.875 502.5 846.875 340 849.375 341 c 1
 853.375 342 893.875 341.5 918.875 345 c 0
 980.875 383.5 1010.38 393.5 1032.88 404.5 c 1
 1036.88 412 1014.38 391 1010.88 395 c 1
 994.875 399.5 979.875 397.5 976.375 395 c 1
 965.875 389 974.875 369 947.375 340.5 c 1
 1002.38 300 1062.88 245 1098.88 236 c 1
 1112.88 225 1128.88 209 1130.38 209 c 0
 1123.38 209 1103.88 198 1098.38 191 c 0
 1093.88 185.5 1051.88 151.5 1023.88 122 c 1
 1041.38 82.5 1054.88 38 1049.38 28 c 1
 1038.88 19.5 1039.38 11 1022.88 10 c 1
 1021.88 12.5 1022.38 24 1024.88 20.5 c 0
 1030.38 18 1042.88 19 1042.38 21.5 c 1
 1022.38 23 1006.88 25 987.375 25.5 c 1
 966.875 25.5 882.875 107.5 862.375 106.5 c 1
 859.875 109 854.375 118.5 856.875 118.5 c 1
 862.375 118.5 874.875 89.5 874.875 93 c 1
 874.875 76.5 874.875 62 877.875 49 c 1
 879.375 43.5 832.375 115.5 836.375 115.5 c 1
 838.875 115.5 832.375 98.5 831.375 95.5 c 1
 810.875 96.5 782.375 69.5 762.875 69.5 c 1
 742.375 53 715.875 35.5 698.375 21 c 1
 697.375 18 721.875 29.5 728.375 29.5 c 0
 736.875 29.5 761.875 25 762.375 27.5 c 1
 745.375 41.5 731.375 64.5 712.375 68 c 1
 691.875 68 691.875 308.5 691.875 315.5 c 2
355.875 589 m 0
 310.875 593 287.875 596.5 246.375 558.5 c 1
 213.375 558.5 197.375 499 197.375 454.5 c 2
 197.375 453.5 197.375 427 199.875 427 c 2
 199.875 426 286.375 424.5 287.375 424.5 c 2
 288.875 424.5 386.375 425.5 386.375 427 c 2
 387.875 427 388.375 430.5 388.875 433 c 1
 388.875 442.5 393.875 500 398.375 521 c 0
 399.375 525 399.875 530.5 399.875 534.5 c 0
 399.875 540.5 396.875 547.5 395.375 551.5 c 0
 390.375 561.5 377.375 587.5 355.875 589 c 0
EndSplineSet
EndChar

StartChar: f_h
Encoding: 61705 61705 254
Width: 853
Flags: HW
LayerCount: 2
Fore
SplineSet
396.375 124 m 2
 396.375 506 l 2
 396.375 528.5 393.375 562.5 383.875 583.5 c 0
 373.375 606.5 338.875 645 293.375 645 c 0
 233.875 645 194.875 557.5 195.875 475 c 2
 196.375 429 l 2
 196.375 427 199.375 424 201.375 424 c 2
 312.375 424 l 2
 317.375 424 317.375 423 317.375 417 c 0
 317.375 408 312.375 386 305.375 372 c 1
 202.375 372 l 2
 199.375 372 196.375 369 196.375 366 c 0
 196.375 276 196.875 142 196.875 142 c 2
 196.875 108.5 197.375 79 204.375 52 c 0
 207.375 41 254.375 28.5 262.375 28.5 c 0
 267.375 28.5 266.875 2.5 264.875 -3.5 c 1
 224.375 -1.5 185.375 3 145.875 3 c 0
 104.375 3 66.375 -1.5 24.875 -3.5 c 1
 21.375 0 20.375 19.5 22.875 22.5 c 0
 28.875 25.5 54.875 35.5 57.375 41 c 0
 66.375 54 86.875 81 88.375 90 c 1
 92.375 105.5 92.875 188 92.875 250 c 1
 92.875 251.5 92.375 324 90.875 368.5 c 1
 90.875 370 63.375 372 61.875 372 c 2
 60.875 372 33.875 373 33.875 375 c 1
 32.875 381.5 37.375 402 39.875 404 c 1
 39.875 410.5 65.375 424.5 67.875 424.5 c 2
 69.375 424.5 90.875 426 90.875 427.5 c 2
 92.375 427.5 93.375 431 93.375 432.5 c 1
 93.375 497.5 154.375 567 228.375 567 c 1
 240.375 639.5 305.375 686.5 360.375 686.5 c 0
 395.875 686.5 444.375 683.5 461.875 683.5 c 0
 480.875 683.5 501.375 688.5 503.375 686 c 1
 503.375 686 499.375 663.5 499.375 635.5 c 2
 502.375 635.5 504.875 539.5 505.375 537 c 1
 505.375 535 500.875 517 502.375 489.5 c 1
 503.375 489.5 504.375 384.5 505.375 385.5 c 1
 513.875 393.5 539.875 410 565.875 409.5 c 1
 608.375 408.5 644.375 379 644.375 335 c 1
 654.375 344.5 679.875 293.5 707.375 293.5 c 1
 768.375 276.5 777.375 203 780.875 154.5 c 1
 782.375 149 808.375 83.5 812.375 83.5 c 1
 814.875 67 814.875 37.5 817.375 21 c 1
 798.375 16.5 794.375 15 778.875 15 c 0
 760.375 15 735.875 0.5 713.875 -3.5 c 1
 691.375 0 676.875 17.5 660.375 17.5 c 0
 645.875 17.5 655.375 23 636.375 27.5 c 1
 636.875 43 637.375 76.5 639.875 80 c 1
 645.875 80 668.875 129.5 670.375 135 c 1
 673.375 200.5 665.375 236.5 634.875 243.5 c 1
 617.375 243.5 603.375 285 598.375 277.5 c 1
 596.875 328.5 578.375 345.5 547.875 344 c 1
 526.875 344 505.375 240.5 502.875 238.5 c 1
 501.875 220.5 499.875 203.5 503.375 188.5 c 1
 504.875 183 528.875 84 532.875 84 c 1
 535.375 67.5 534.875 37.5 537.375 21 c 1
 518.375 16.5 516.375 15 500.875 15 c 0
 482.375 15 455.875 0.5 433.875 -3.5 c 1
 411.375 0 396.875 17.5 380.375 17.5 c 0
 365.875 17.5 377.375 23 358.375 27.5 c 1
 358.875 43 396.375 114 396.375 124 c 2
EndSplineSet
EndChar

StartChar: f_f_h
Encoding: 61706 61706 255
Width: 1148
Flags: HW
LayerCount: 2
Fore
SplineSet
826.875 124.5 m 2
 826.875 370.5 l 2
 826.875 437.5 807.875 466 771.375 479.5 c 0
 744.875 492 713.875 483 691.375 481 c 0
 661.375 480 635.875 436.5 636.875 397 c 2
 637.375 284.5 l 2
 637.375 267 638.875 251 643.375 237.5 c 1
 644.875 232 724.875 227.5 728.875 227.5 c 1
 733.875 227.5 733.875 215.5 732.875 209.5 c 1
 712.875 206 695.875 193 673.375 186 c 1
 652.875 186 587.875 184.5 567.375 183.5 c 1
 563.375 186 561.875 196.5 564.375 195 c 0
 570.375 150 593.375 92 594.875 97.5 c 1
 597.875 93 598.875 93 602.375 86.5 c 1
 603.875 81 629.875 265.5 633.875 265.5 c 1
 636.375 273 633.875 283 629.375 287.5 c 1
 604.375 299 550.375 330 505.375 330 c 0
 453.875 330 411.875 281 390.875 235.5 c 1
 388.375 238 388.375 228.5 390.875 228.5 c 1
 396.875 227.5 423.375 233 425.875 238.5 c 1
 428.875 251.5 484.875 273 484.875 276.5 c 2
 487.375 276.5 487.375 346 487.375 387.5 c 0
 487.375 384.5 483.875 378 478.875 371 c 1
 342.375 371 l 2
 338.875 371 336.875 368 336.875 365 c 0
 336.875 275 337.875 142 337.875 142 c 2
 337.875 108.5 338.375 79 345.375 52 c 0
 348.375 41 396.875 29.5 404.875 29.5 c 0
 409.875 29.5 409.375 2.5 407.375 -3.5 c 1
 366.875 -1.5 324.875 3 285.375 3 c 0
 243.875 3 205.875 -1.5 164.375 -3.5 c 1
 160.875 0 159.875 19.5 162.375 22.5 c 0
 168.375 25.5 194.375 36.5 196.875 42 c 0
 205.875 55 227.875 81 229.375 90 c 1
 233.375 105.5 233.375 187 233.875 249 c 1
 233.875 250.5 232.875 367.5 231.375 367.5 c 2
 231.375 369 203.875 371 202.375 371 c 2
 201.375 371 105.375 372 105.375 374 c 1
 103.375 380.5 106.875 399.5 109.375 398 c 1
 109.375 353 130.875 282.5 130.875 282.5 c 2
 132.375 266 133.875 253 137.375 241 c 1
 138.875 235.5 161.375 234.5 165.375 234.5 c 0
 167.875 303 230.875 342 284.875 339.5 c 1
 295.375 340.5 316.875 338.5 313.375 322 c 1
 309.875 339 323.875 347.5 350.875 346.5 c 1
 361.875 347.5 373.375 342 381.375 345 c 0
 401.875 348 432.375 360.5 437.875 360.5 c 0
 446.875 360.5 471.375 359 473.375 362 c 1
 477.375 377.5 471.875 366.5 472.375 356 c 1
 472.375 380.5 l 2
 472.375 380 472.375 380 472.375 380 c 1
 473.375 380 447.875 382 448.875 383 c 1
 456.375 391.5 481.875 410.5 507.375 412.5 c 1
 548.875 419 589.375 403.5 591.875 359.5 c 2
 612.375 284 l 2
 614.375 267 614.875 253.5 618.375 241.5 c 1
 619.875 236 645.875 235.5 649.875 235.5 c 1
 652.375 308 709.875 341.5 755.875 338.5 c 1
 772.375 339.5 765.375 317 750.875 308.5 c 1
 748.875 334.5 750.875 346.5 754.875 345.5 c 1
 767.375 348 786.875 352.5 801.875 352.5 c 0
 823.875 352.5 864.375 370.5 867.375 376 c 1
 870.375 389 872.375 410.5 872.375 414 c 2
 875.375 414 877.875 453.5 878.375 451 c 1
 878.375 504 864.375 508.5 833.875 481 c 1
 816.375 481 802.375 360 797.375 352.5 c 1
 795.875 350 795.375 346.5 795.875 344.5 c 1
 796.875 343.5 797.375 259.5 797.375 259.5 c 1
 807.875 252 832.875 261.5 863.875 248 c 0
 926.375 242.5 959.375 177 963.375 142 c 1
 965.875 142 965.375 68 964.375 65 c 1
 943.875 49.5 917.875 38.5 901.875 25 c 0
 882.375 19.5 880.375 12 863.375 11 c 1
 863.375 13.5 863.375 18 864.875 15 c 1
 850.875 16 861.375 24.5 843.875 30 c 0
 826.375 43 826.875 114.5 826.875 124.5 c 2
355.875 589 m 0
 310.875 593 287.875 596.5 246.375 558.5 c 1
 213.375 558.5 197.375 499 197.375 454.5 c 2
 197.375 453.5 197.375 427 199.875 427 c 2
 199.875 426 286.375 424.5 287.375 424.5 c 2
 288.875 424.5 386.375 425.5 386.375 427 c 2
 387.875 427 388.375 430.5 388.875 433 c 1
 388.875 442.5 393.875 500 398.375 521 c 0
 399.375 525 399.875 530.5 399.875 534.5 c 0
 399.875 540.5 396.875 547.5 395.375 551.5 c 0
 390.375 561.5 377.375 587.5 355.875 589 c 0
EndSplineSet
EndChar

StartChar: f_j
Encoding: 61707 61707 256
Width: 557
Flags: HW
LayerCount: 2
Fore
SplineSet
385 293.5 m 2
 385 303 383.5 338.5 370 355 c 0
 357.5 370.5 324.5 372 304 372 c 1
 201 372 l 2
 198 372 195 369 195 366 c 0
 195 276 195.5 140.5 195.5 140.5 c 2
 195.5 107 196.5 78 203.5 50.5 c 0
 206.5 39.5 250 27 258 27 c 0
 263 27 262.5 2.5 260.5 -3.5 c 1
 220 -1.5 184 3 144.5 3 c 0
 103 3 68 -1.5 26.5 -3.5 c 1
 24 -1 22.5 6.5 22.5 13.5 c 1
 22.5 20.5 24.5 27 26.5 27 c 0
 38.5 27 80.5 39.5 83.5 50.5 c 0
 90.5 79 91.5 112 91.5 133 c 2
 91.5 133 92 276 92 365 c 0
 92 368 90 372 87 372 c 2
 34 372 l 2
 32 372 31 374 31 378 c 0
 31 391 41 424.5 46 424.5 c 2
 87 424.5 l 2
 90 424.5 92 427.5 92 430.5 c 2
 92 439 l 1
 92 576.5 205.5 695.5 326.5 695.5 c 0
 387.5 695.5 441.5 674 449.5 651 c 0
 470.5 633.5 478 611 464 590.5 c 0
 455.5 570 430.5 557.5 406 564.5 c 0
 382.5 576 358 609 327 622 c 0
 291 634.5 266 599 246 554.5 c 1
 217 554.5 193.5 487.5 194.5 449.5 c 2
 194.5 448.5 196.5 426.5 197.5 426.5 c 2
 197.5 425.5 254.5 424 255.5 424 c 2
 277.5 424 416.5 425 435 431 c 1
 438 431 464 433 480.5 438.5 c 0
 484 438.5 488.5 431 489 428.5 c 0
 491 412.5 493.5 403.5 493.5 384 c 1
 491.5 368 488.5 214.5 488.5 197 c 2
 488.5 179 486.5 27.5 469 0 c 1
 451 -70.5 414 -132 378 -166.5 c 1
 358.5 -192 302.5 -219.5 287.5 -217 c 1
 283.5 -214 278.5 -208 279 -201.5 c 0
 280 -197.5 333.5 -184 334 -69.5 c 1
 336 -68.5 385 -164 385 72.5 c 2
 385 293.5 l 2
EndSplineSet
EndChar

StartChar: f_f_j
Encoding: 61708 61708 257
Width: 853
Flags: HW
LayerCount: 2
Fore
SplineSet
388.875 134.5 m 2
 388.875 134.5 388.875 319.5 388.875 364 c 1
 388.875 367 386.875 371 383.875 371 c 2
 203.375 371 l 2
 200.375 371 197.375 368 197.375 365 c 0
 197.375 275 198.375 142 198.375 142 c 2
 198.375 108.5 198.875 79 205.875 52 c 0
 208.875 41 257.375 29.5 265.375 29.5 c 0
 270.375 29.5 269.875 2.5 267.875 -3.5 c 1
 227.375 -1.5 185.375 3 145.875 3 c 0
 104.375 3 66.375 -1.5 24.875 -3.5 c 1
 21.375 0 20.375 19.5 22.875 22.5 c 0
 28.875 25.5 54.875 36.5 57.375 42 c 0
 66.375 55 88.375 81 89.875 90 c 1
 93.875 105.5 94.375 187 94.375 249 c 1
 94.375 250.5 93.375 367.5 91.875 367.5 c 2
 91.875 369 64.375 371 62.875 371 c 2
 61.875 371 34.875 372 34.875 374 c 1
 33.875 380.5 38.375 402 40.875 404 c 1
 40.875 410.5 66.375 424.5 68.875 424.5 c 2
 70.375 424.5 91.875 426 91.875 427.5 c 2
 93.375 427.5 94.375 432.5 94.375 434 c 1
 94.375 502.5 157.375 560 212.375 560 c 1
 242.875 632.5 335.875 678 399.375 661.5 c 1
 453.375 678.5 524.875 663 551.875 654.5 c 1
 602.375 680 641.375 694 674.375 692.5 c 0
 725.875 689 783.375 656 783.375 614 c 0
 783.375 579.5 758.375 553.5 723.875 553.5 c 0
 698.375 553.5 677.375 567.5 667.875 587.5 c 0
 655.875 611.5 634.375 645 588.875 645 c 0
 529.375 645 487.875 557.5 491.375 475 c 1
 491.875 429 l 2
 491.875 427 494.875 424 496.875 424 c 2
 656.875 424 l 2
 681.375 424 740.375 425.5 774.875 437 c 0
 775.875 437 782.875 440 783.875 440 c 0
 790.875 440 792.875 425 792.875 420 c 0
 788.875 388 785.375 368 785.375 333.5 c 2
 785.375 94 l 2
 785.375 34 776.875 -56 741.875 -111 c 0
 706.875 -166.5 622.375 -217.5 589.875 -224.5 c 1
 583.875 -221 576.875 -213.5 575.875 -205 c 0
 575.375 -203 575.375 -197.5 576.375 -196.5 c 0
 579.375 -192.5 681.875 -164 681.875 72.5 c 2
 681.875 293.5 l 2
 681.875 303 680.375 338.5 666.875 355 c 0
 654.375 370.5 621.375 372 600.875 372 c 1
 497.875 372 l 2
 494.875 372 491.875 369 491.875 365.5 c 0
 491.875 275.5 492.875 142 492.875 142 c 2
 492.875 108.5 493.375 79 500.375 52 c 0
 503.375 41 551.875 29.5 559.875 29.5 c 0
 564.875 29.5 564.375 2.5 562.375 -3.5 c 1
 521.875 -1.5 479.875 3 440.375 3 c 0
 398.875 3 360.875 -1.5 319.375 -3.5 c 1
 315.875 0 314.875 19.5 317.375 22.5 c 0
 323.375 25.5 349.375 36.5 351.875 42 c 0
 360.875 55 388.875 113.5 388.875 134.5 c 2
397.875 537 m 0
 394.875 543 383.875 582.5 341.375 585 c 0
 308.375 589 288.875 560.5 287.375 518.5 c 1
 282.375 526.5 270.875 522 249.875 522 c 1
 207.375 521 197.375 485 199.375 447 c 2
 296.375 426.5 l 2
 297.875 425.5 299.875 426 300.875 427.5 c 2
 386.375 429.5 l 2
 387.875 445 390.875 466 394.875 481 c 1
 395.875 483.5 395.875 487.5 395.875 489 c 0
 395.875 500.5 397.375 528 397.875 537 c 0
EndSplineSet
EndChar

StartChar: T_h
Encoding: 61709 61709 258
Width: 1071
Flags: HW
LayerCount: 2
Fore
SplineSet
375 396 m 1
 330.5 396 253.5 577 209 577 c 1
 173 597 165.5 631 152.5 638 c 0
 146.5 642 134 645 92.5 644 c 1
 54 644 32.5 544.5 23 507.5 c 1
 24 504 30.5 501.5 32.5 501.5 c 0
 30.5 501.5 26.5 504 25.5 507.5 c 1
 30.5 540 63 642 88.5 642 c 1
 96.5 640 162.5 636.5 169.5 636.5 c 1
 214 636 239 399.5 279 399.5 c 1
 319 378 353.5 362.5 385 355.5 c 0
 411 351.5 429.5 364 425 363.5 c 1
 422.5 360 424.5 348 426.5 345 c 1
 449 347 482 343 503.5 340.5 c 1
 524.5 340.5 550.5 323 570 293.5 c 1
 572 296.5 572.5 201.5 570 205 c 1
 563.5 205 540.5 205.5 538.5 211.5 c 0
 535.5 220.5 536 236 536 257.5 c 1
 546 267 571.5 525.5 599 525.5 c 1
 660 525.5 742 467 742.5 432 c 1
 756.5 432 781.5 372 784 366 c 1
 787.5 341 788 320 791.5 298 c 1
 793 292.5 817.5 85.5 821.5 85.5 c 1
 824 64 824 37 819 24 c 1
 796.5 18.5 759 18 733.5 17.5 c 1
 710.5 14 697.5 0.5 679 -3.5 c 1
 696 1 724 14.5 747.5 14.5 c 0
 774.5 14.5 822 17.5 843 21 c 1
 848 36.5 849 64 846.5 74.5 c 1
 840 75 820.5 132.5 818 139 c 1
 814 202 795.5 239.5 765 258 c 1
 744 258 722.5 320.5 720 318.5 c 1
 719 327.5 741 343.5 761 342 c 1
 787.5 342 795 215.5 795 179.5 c 2
 795 163 795 109 798.5 95.5 c 1
 800 68.5 824.5 48.5 824.5 38.5 c 0
 824.5 32 807.5 18.5 800 15 c 1
 777.5 12.5 763.5 2 746.5 -1 c 1
 745.5 1 754 1 754.5 0 c 1
 773 2.5 801 13 823 11 c 1
 831 14 854 30.5 853 39.5 c 1
 849.5 52.5 827.5 69.5 825 83 c 1
 821 93 821 316 821 337.5 c 2
 821 370 802 412.5 763.5 412.5 c 1
 724 491.5 690.5 527 632.5 523 c 0
 605.5 509 571.5 470.5 557.5 435.5 c 1
 556.5 434.5 555 252.5 554 252.5 c 1
 553.5 235 554.5 221 558 209 c 0
 559.5 203.5 586 301 590 301 c 0
 591.5 321 597.5 347.5 597.5 344.5 c 1
 597 344.5 592.5 347 589 346 c 1
 567.5 347 467.5 387 375 396 c 1
EndSplineSet
EndChar

StartChar: zero.onum
Encoding: 63280 63280 259
Width: 537
Flags: HW
LayerCount: 2
Fore
SplineSet
256.5 210.5 m 0
 270 210.5 278 216.5 278 223 c 0
 278 230.5 269 232.5 257.5 232.5 c 0
 244 232.5 236 226.5 236 220 c 0
 236 212.5 245 210.5 256.5 210.5 c 0
257 450.5 m 0
 384 450.5 485 348 485 222.5 c 0
 485 96.5 386 -7 258 -7 c 0
 130.5 -7 29 96.5 29 222.5 c 0
 29 349.5 128.5 450.5 257 450.5 c 0
EndSplineSet
EndChar

StartChar: one.onum
Encoding: 63281 63281 260
Width: 302
Flags: HW
LayerCount: 2
Fore
SplineSet
170.599 396.5 m 1
 190.599 398.5 214.599 285 235.599 288 c 1
 237.099 274 240.099 255 242.599 240.5 c 0
 244.099 232.5 268.099 225.5 271.099 225.5 c 0
 266.599 225 245.598 211.5 244.598 203 c 0
 242.598 187.5 242.098 160 241.599 155 c 1
 221.599 156 206.599 75.5 187.599 75.5 c 1
 167.098 58.5 155.099 42.5 138.099 27.5 c 1
 137.099 24.5 159.599 29.5 166.099 29.5 c 0
 173.599 29.5 196.599 28.5 198.598 31 c 0
 201.598 37 201.598 43 201.098 49.5 c 1
 180.598 50.5 155.098 169 135.598 169 c 1
 114.598 173 90.5985 182.5 60.0987 181.5 c 1
 51.0987 184 29.0986 194 30.5986 194 c 0
 34.0986 194 54.5986 213.5 57.5986 223 c 1
 88.0986 244 120.599 279 139.099 288 c 1
 139.599 288 141.099 370.5 141.599 370.5 c 1
 144.599 387.5 144.099 390.5 139.099 402 c 0
 134.099 395 125.099 414.5 120.099 412 c 0
 114.599 396 110.099 414 109.599 411.5 c 0
 105.599 395.5 107.099 422 106.599 424.5 c 0
 104.599 410 107.099 430 107.599 430.5 c 1
 126.099 415.5 151.099 411.5 170.599 396.5 c 1
EndSplineSet
EndChar

StartChar: two.onum
Encoding: 63282 63282 261
Width: 451
Flags: HW
LayerCount: 2
Fore
SplineSet
228.5 457.5 m 0
 310.5 457.5 364.5 401.5 364.5 335 c 0
 364.5 289.5 329 245.5 299.5 215.5 c 1
 268.5 188.5 188 117 162.5 97.5 c 1
 159.5 94.5 160.5 86.5 165.5 86.5 c 2
 294.5 86 l 2
 353.5 86 357 111 375 150 c 0
 377 155 381.5 159 387.5 159 c 0
 391.5 159 404.5 156 408.5 151 c 1
 397.5 100 382.5 51 373.5 -0.5 c 1
 228 0.5 l 1
 228 0.5 36.5 0 33 0 c 1
 26 2.5 25 12 25 20 c 1
 136.5 128 255 236.5 255 308 c 0
 255 340.5 233.5 380.5 175.5 380.5 c 0
 108.5 380.5 75 323 54.5 304.5 c 1
 47.5 303.5 41 312.5 39.5 317 c 1
 37.5 321 35 328.5 35.5 330.5 c 0
 46 350 126.5 457.5 228.5 457.5 c 0
EndSplineSet
EndChar

StartChar: three.onum
Encoding: 63283 63283 262
Width: 430
Flags: HW
LayerCount: 2
Fore
SplineSet
237.5 457.5 m 0
 282.5 457.5 343.5 425.5 343.5 353.5 c 0
 343.5 289 291.5 227.5 246.5 194.5 c 1
 290 192.5 387.5 149 387.5 54 c 0
 387.5 -78 211 -186.5 91 -186.5 c 0
 64.5 -186.5 45 -180.5 29.5 -174 c 1
 25 -165.5 22.5 -154 22.5 -146.5 c 0
 22.5 -125 46 -101 66 -101 c 0
 103 -101 104.5 -136 146 -136 c 0
 218.5 -136 276 -65.5 276 23 c 0
 276 87.5 238.5 138.5 178 138.5 c 0
 156 138.5 133.5 132.5 116 127 c 1
 109 129 107 139 107 147 c 0
 107 151 108.5 162.5 110.5 167.5 c 1
 177 190.5 247.5 242 247.5 319 c 0
 247.5 364 218 390 185 390 c 0
 136 390 106.5 352.5 93 340 c 0
 90 337.5 88 336 85.5 336 c 0
 80 336 73 348.5 73 355.5 c 1
 73 357 73.5 360.5 74.5 362 c 0
 109.5 413 162 457.5 237.5 457.5 c 0
EndSplineSet
EndChar

StartChar: four.onum
Encoding: 63284 63284 263
Width: 499
Flags: HW
LayerCount: 2
Fore
SplineSet
333 -187 m 0
 303 -187 284.5 -181.5 284.5 -172.5 c 2
 284.5 0.5 l 1
 283.5 5.5 278.5 5.5 275.5 5.5 c 2
 37 6 l 1
 29 13 22.5 26.5 22.5 44.5 c 1
 83 117 292.5 380 345.5 446 c 1
 352 454 362.5 459 370.5 459 c 0
 376.5 459 386 455.5 386 449 c 2
 386 79 l 2
 386 74 389 72 395 71 c 1
 438.5 71 l 2
 450.5 71 454.5 57 454.5 19.5 c 0
 454.5 13.5 448.5 7.5 447 6 c 1
 392 6 l 2
 388 6 386 3 386 -2 c 2
 386 -177.5 l 1
 386 -177.5 371 -187 333 -187 c 0
284.5 77.5 m 1
 285.5 289 l 2
 285.5 292 282.5 298 280.5 298 c 1
 280.5 298 280.5 297 279.5 296 c 2
 109.5 83 l 2
 108.5 82 108.5 81 108.5 80 c 0
 108.5 76 111.5 71 115.5 71 c 2
 275.5 70.5 l 1
 278.5 71.5 283.5 71.5 284.5 77.5 c 1
EndSplineSet
EndChar

StartChar: five.onum
Encoding: 63285 63285 264
Width: 381
Flags: HW
LayerCount: 2
Fore
SplineSet
184.5 147 m 1
 186.5 146 189 143.5 191 134.5 c 0
 227.5 126 292.5 138.5 289 198.5 c 1
 222 237.5 158.5 265.5 97 279 c 0
 89 279.5 86.5 281 86 282.5 c 1
 86 284.5 92 322.5 100 363 c 1
 100 362 106 362.5 112 361.5 c 0
 204 350.5 294.5 302.5 312.5 254 c 1
 314.5 162 238 124.5 153.5 115.5 c 1
 152.5 109.5 149.5 104.5 146 103 c 1
 95.5 105 79 107.5 75.5 107 c 0
 102.5 107 164 131 163.5 193.5 c 1
 163.5 251 123.5 241 82.5 247.5 c 1
 79.5 245 82 242.5 84 245.5 c 0
 133.5 232 202 317 202 264.5 c 0
 202.5 192.5 127.5 134.5 63 134.5 c 1
 96.5 136.5 166.5 139 184.5 147 c 1
EndSplineSet
EndChar

StartChar: six.onum
Encoding: 63286 63286 265
Width: 473
Flags: HW
LayerCount: 2
Fore
SplineSet
254.5 380.5 m 0
 360.5 380.5 425 288 425 190 c 0
 425 83 336.5 -6 230.5 -6 c 0
 126.5 -6 28.5 83.5 28.5 203.5 c 0
 28.5 414.5 231 567 383 637 c 1
 394.5 634 402.5 617 402.5 606 c 1
 305.5 558 215.5 468.5 171 352.5 c 1
 190.5 367 222.5 380.5 254.5 380.5 c 0
226.5 331.5 m 0
 186.5 331.5 162 308 154 299 c 1
 145.5 265 141 229 141 191.5 c 0
 141 101.5 173.5 40 236.5 40 c 0
 275.5 40 313 75 313 175.5 c 0
 313 260.5 291.5 331.5 226.5 331.5 c 0
EndSplineSet
EndChar

StartChar: seven.onum
Encoding: 63287 63287 266
Width: 489
Flags: HW
LayerCount: 2
Fore
SplineSet
371.5 446 m 2
 397.5 446 431.5 449 437.5 449 c 0
 443.5 449 444.5 445 444.5 440 c 0
 444.5 427 435 404.5 417.5 373 c 2
 117.5 -186 l 1
 114.5 -187 112.5 -187 110.5 -187 c 0
 95 -187 81 -171 81 -158 c 0
 81 -155 81 -151 83 -148 c 2
 356 358.5 l 1
 313.5 358.5 166 358 127 358 c 1
 84 358 66.5 305 59.5 285 c 1
 51.5 284 36 283 28 291 c 1
 34 337 48.5 396 53 434 c 0
 54 442 62.5 446 71.5 446 c 2
 371.5 446 l 2
EndSplineSet
EndChar

StartChar: eight.onum
Encoding: 63288 63288 267
Width: 457
Flags: HW
LayerCount: 2
Fore
SplineSet
104 316.5 m 1
 104 331 150.5 336.5 219.5 336.5 c 1
 285 336.5 338 328.5 338 306.5 c 1
 338 306 279.5 306 237.5 302.5 c 1
 233 304 229.5 303.5 230 302.5 c 0
 259.5 280 287.5 255.5 286.5 220 c 0
 276.5 166 104 306 104 316.5 c 1
148 487 m 1
 148 425 195 397 235 371 c 0
 237.5 369.5 241.5 368 244.5 368 c 0
 247.5 368 250 369.5 252 371 c 0
 288.5 398.5 295 437.5 295 483 c 1
 295 540.5 270 585 222.5 585 c 1
 175 585 148 545.5 148 487 c 1
75 321 m 1
 75 325 145 330.5 216.5 330.5 c 1
 298.5 330.5 366 324.5 366 317 c 1
 366 320.5 275 323 251.5 317.5 c 0
 249 318 247 316.5 246.5 316 c 0
 258.5 306.5 308 274.5 307.5 233.5 c 1
 279 166 255 146 200.5 145.5 c 1
 121 132 100 168.5 99.5 228 c 1
 71 261.5 142.5 298 158 306 c 0
 130.5 293 160 309 157.5 310 c 0
 111.5 311.5 75 309.5 75 321 c 1
EndSplineSet
EndChar

StartChar: nine.onum
Encoding: 63289 63289 268
Width: 474
Flags: HW
LayerCount: 2
Fore
SplineSet
223 456.5 m 0
 327 456.5 425 367 425 247 c 0
 425 36 222.5 -116.5 70.5 -186.5 c 1
 59.5 -183 51 -166.5 51 -155.5 c 1
 148 -107.5 238 -18 282.5 98 c 1
 263 83.5 231 70 199 70 c 0
 93 70 28.5 162.5 28.5 260.5 c 0
 28.5 367.5 117 456.5 223 456.5 c 0
217 410.5 m 0
 178 410.5 140.5 375.5 140.5 275 c 0
 140.5 190 162 119 227 119 c 0
 267 119 291.5 142.5 299.5 151.5 c 1
 308 185.5 312.5 221.5 312.5 259 c 0
 312.5 349 280 410.5 217 410.5 c 0
EndSplineSet
EndChar

StartChar: uni0304
Encoding: 772 772 269
Width: 415
Flags: HW
LayerCount: 2
Fore
SplineSet
67.5 565 m 0
 67.5 578.5 74 602 81 602 c 2
 316.5 602 l 2
 318.5 602 322 600.5 322 593.5 c 0
 322 578 314.5 567.5 312 558.5 c 1
 311 555.5 176.5 555 176.5 555 c 1
 176.5 555 67.5 554 67.5 565 c 0
EndSplineSet
EndChar

StartChar: gravecomb.cap
Encoding: 63632 63632 270
Width: 245
Flags: HW
LayerCount: 2
Fore
SplineSet
218.5 743 m 0
 218.5 735.5 212 726.5 206.5 726.5 c 0
 191 726.5 27 793.5 27 829.5 c 0
 27 849.5 52.5 863.5 81 863.5 c 0
 89 863.5 95 862 99 860 c 0
 139.5 829.5 218.5 751.5 218.5 743 c 0
EndSplineSet
EndChar

StartChar: acutecomb.cap
Encoding: 63633 63633 271
Width: 245
Flags: HW
LayerCount: 2
Fore
SplineSet
27 743 m 0
 27 751.5 106 829.5 146.5 860 c 0
 150.5 862 156.5 863.5 164.5 863.5 c 0
 193 863.5 218.5 849.5 218.5 829.5 c 0
 218.5 793.5 54.5 726.5 39 726.5 c 0
 33.5 726.5 27 735.5 27 743 c 0
EndSplineSet
EndChar

StartChar: uni0302.cap
Encoding: 63634 63634 272
Width: 305
Flags: HW
LayerCount: 2
Fore
SplineSet
268 715 m 0
 256 715 186.5 754.5 155.5 775 c 1
 124.5 753.5 56 715 44 715 c 0
 37 715 34 728.5 34 734.5 c 1
 42 742 64.5 759.5 101 795 c 0
 120.5 814 133 828 143.5 842 c 0
 148.5 848 151 850.5 155 850.5 c 0
 159.5 850.5 164 847 168 842 c 0
 180 827.5 191 813.5 208.5 796 c 0
 246.5 758.5 273 739 277.5 734.5 c 1
 277.5 726.5 274.5 715 268 715 c 0
EndSplineSet
EndChar

StartChar: uni030A.cap
Encoding: 63635 63635 273
Width: 381
Flags: HW
LayerCount: 2
Fore
SplineSet
125.5 675.5 m 0
 125.5 645 150 620.5 180 620.5 c 0
 210 620.5 233.5 645 233.5 675.5 c 0
 233.5 706 210 730 180 730 c 0
 150 730 125.5 706 125.5 675.5 c 0
86 675.5 m 0
 86 727 129 769 180 769 c 0
 231 769 272.5 727 272.5 675.5 c 0
 272.5 624 231 581 180 581 c 0
 129 581 86 624 86 675.5 c 0
EndSplineSet
EndChar

StartChar: uni030A
Encoding: 778 778 274
Width: 362
Flags: HW
LayerCount: 2
Fore
SplineSet
120.5 600.5 m 0
 120.5 570 145 545.5 175 545.5 c 0
 205 545.5 228 570 228 600.5 c 0
 228 631 205 655 175 655 c 0
 145 655 120.5 631 120.5 600.5 c 0
81 600.5 m 0
 81 652 124 694 175 694 c 0
 226 694 267 652 267 600.5 c 0
 267 549 226 506 175 506 c 0
 124 506 81 549 81 600.5 c 0
EndSplineSet
EndChar

StartChar: tildecomb.cap
Encoding: 63636 63636 275
Width: 675
Flags: HW
LayerCount: 2
Fore
SplineSet
215.155 835.941 m 0
 247.364 835.941 269.997 823.753 293.5 810.696 c 0
 318.745 796.768 347.472 782.84 365.751 782.84 c 0
 412.759 782.84 432.78 822.883 441.485 827.236 c 1
 445.837 827.236 448.449 819.401 448.449 815.048 c 0
 448.449 800.25 439.744 783.711 431.91 773.264 c 0
 410.147 746.279 382.292 730.61 350.953 730.61 c 0
 318.745 730.61 296.112 742.797 272.608 755.854 c 0
 247.364 769.783 223.86 784.581 200.356 784.581 c 0
 153.35 784.581 133.328 743.667 124.623 739.315 c 1
 120.271 739.315 117.659 748.02 117.659 752.373 c 0
 117.659 767.171 126.364 783.711 134.199 794.157 c 0
 155.961 821.142 183.817 835.941 215.155 835.941 c 0
EndSplineSet
EndChar

StartChar: uni0304.cap
Encoding: 63637 63637 276
Width: 412
Flags: HW
LayerCount: 2
Fore
SplineSet
59.5 657 m 0
 59.5 670.5 66 695 74 695 c 2
 342.5 695 l 2
 344.5 695 348.5 693.5 348.5 686.5 c 0
 348.5 671 341 659.5 338 650.5 c 1
 337 647.5 190 647 190 647 c 1
 190 647 59.5 646 59.5 657 c 0
EndSplineSet
EndChar

StartChar: uni0306.cap
Encoding: 63638 63638 277
Width: 253
Flags: HW
LayerCount: 2
Fore
SplineSet
212.5 718.5 m 1
 220.5 717.5 235 707 235 700 c 0
 235 697.5 234.291 695.579 233.5 693.5 c 0
 212.5 644 169.5 615 125.5 615 c 0
 81.5 615 38.5 644 17.5 693.5 c 0
 16.7094 695.579 16 698 16 700 c 0
 16 707 30.5 717.5 38.5 718.5 c 1
 52.5 689.5 84 665 125.5 665 c 0
 168.5 665 199 687.5 212.5 718.5 c 1
EndSplineSet
EndChar

StartChar: uni0306
Encoding: 774 774 278
Width: 254
Flags: HW
LayerCount: 2
Fore
SplineSet
171 604 m 1
 195.5 604 220 611 225 629 c 1
 225 629 226 628 226.5 627 c 0
 222 600.5 208.5 577 181.5 574.5 c 0
 154.5 574 130.5 591 123 616.5 c 0
 118 591 95.5 569 68.5 570 c 1
 41.5 573.5 25 603 24 631.5 c 1
 28 622 49 601.5 72.5 602 c 0
 97.5 604.5 145.5 593.5 171 604 c 1
EndSplineSet
EndChar

StartChar: uni0327.cap
Encoding: 63639 63639 279
Width: 757
Flags: HW
LayerCount: 2
Fore
SplineSet
235 -27 m 1
 239.5 -26.5 257 -26 262 -26 c 1
 292 -26 315 -51.5 315 -81 c 0
 315 -133.5 270.5 -170.5 207.5 -170.5 c 0
 188.5 -170.5 169 -163.5 161.5 -157 c 1
 160 -152.5 157.5 -143.5 157.5 -138 c 0
 157.5 -131 163 -126 167.5 -126 c 1
 176.5 -127 193.5 -141.5 214.5 -141.5 c 0
 249 -141.5 264 -123.5 264 -106 c 0
 264 -84.5 251 -68.5 232 -68.5 c 0
 222.5 -68.5 214 -71.5 202.5 -76 c 1
 200 -76 188.5 -66 189.5 -60.5 c 1
 200 -43.5 216 -17.5 223.5 -1 c 1
 253 -1 l 1
 253 -1 237.5 -22 235 -27 c 1
EndSplineSet
EndChar

StartChar: uni0327
Encoding: 807 807 280
Width: 464
Flags: HW
LayerCount: 2
Fore
SplineSet
228.5 -27.5 m 1
 228.5 -27.5 247 -27 250.5 -27 c 1
 278 -27 299.5 -51 299.5 -77 c 0
 299.5 -124 260.5 -154 204 -154 c 0
 187 -154 169.5 -147 163 -141.5 c 1
 162 -137.5 160.5 -131 160.5 -126 c 0
 160.5 -119 166.5 -112 171 -112 c 0
 179.5 -112 195.5 -126 214.5 -126 c 0
 242.5 -126 255.5 -110.5 255.5 -95 c 0
 255.5 -76 243 -64 228 -64 c 0
 219.5 -64 210 -66.5 200 -70.5 c 0
 198 -70.5 186 -60 188 -56 c 0
 197 -41 210 -17 218 -3 c 1
 244.5 -3 l 1
 228.5 -27.5 l 1
EndSplineSet
EndChar

